<svg xmlns="http://www.w3.org/2000/svg" width="398.99" height="297.303" viewBox="0 0 398.99 297.303"><defs><style>.a{fill:#a6c7f9;}.b{fill:#699dee;}.c{fill:#d2e4ff;}.d{fill:#b77446;}.e{fill:#365da4;}.f{fill:#285493;}.g{fill:#163560;}.h{fill:#a86337;}.i{fill:#80bdcc;}.j{fill:#fff;}.k{fill:#5f9aa8;}.l{fill:#f4be61;}.m{fill:#f2a83d;}.n{fill:#c65447;}.o{fill:#e49963;}.p{fill:#d68d5d;}.q{fill:#aa443e;}.r{fill:#d86713;}.s{fill:#f1a34f;}.t{fill:#c95c12;}.u{fill:#ffd5ab;}.v{fill:#e57970;}.w{fill:#8cb3ed;}.x{fill:#82b378;}.y{fill:#a8d29f;}.z{fill:#ffb973;}.aa{fill:#91b6ed;}.ab{fill:#4a75cb;}.ac{fill:#ebf2f9;}</style></defs><g transform="translate(-3050.18 -459.176)"><g transform="translate(3079.823 462.963)"><rect class="a" width="121.6" height="293.515" transform="translate(0.111 0)"/><rect class="b" width="21.68" height="293.515" transform="translate(0 0)"/><rect class="c" width="121.6" height="293.515" transform="translate(26.984 0)"/><rect class="a" width="22.561" height="293.515" transform="translate(122 0)"/></g><g transform="translate(3337.35 522.47)"><path class="d" d="M4412.117,1610.571c-.2,2.521-24.016.746-24.284-.065-.239-.719,2.49-1.3,5.409-1.99.367-.085.736-.175,1.1-.265a14.846,14.846,0,0,0,8.313-5.38c2.453-3.144,4.7-17.457,4.7-17.457l8.838,1.649s-5.145,12.268-5.672,16.292c-.237,1.806,1.047,3.01,1.348,4.591A9.889,9.889,0,0,1,4412.117,1610.571Z" transform="translate(-4354.984 -1379.277)"/><path class="e" d="M4412.118,1682.224a2.194,2.194,0,0,1-1.732,1.967h-6.574a9.47,9.47,0,0,0-2.448,0h-10.622c-1.935-.615-2.744-1.529-2.909-2.031-.239-.718,2.49-1.3,5.409-1.99l.033.055a15.86,15.86,0,0,0,8.29,1.548c3.8-.354,7.682-1.909,10.3-2.172A9.98,9.98,0,0,1,4412.118,1682.224Z" transform="translate(-4354.984 -1450.931)"/><g transform="translate(49.23 100.687)"><path class="e" d="M4456.354,1260.384a14.451,14.451,0,0,0,4.491,1.927c3.265.594,4.781-.066,4.781-.066s15.7-39.428,14.807-52.751q-.032-.481-.037-1.021a55.84,55.84,0,0,1,.88-8.938c.212-1.3.455-2.661.726-4.07.629-3.285,1.409-6.828,2.266-10.442.375-1.591.77-3.2,1.169-4.8,3.948-15.765,8.771-31.3,8.771-31.3s-28.337-9.256-29.939-.606c-.615,3.32-2.663,16.605-1.741,36.919a293.016,293.016,0,0,1-1.15,43.91A242.1,242.1,0,0,1,4456.354,1260.384Z" transform="translate(-4456.354 -1144.627)"/></g><path class="f" d="M4548.475,1295.888a55.963,55.963,0,0,1,.88-8.938c.211-1.3.455-2.661.726-4.07.629-3.285,1.409-6.829,2.266-10.442.376-1.591.77-3.2,1.169-4.8-.56-4.811-1.011-8.111-1.011-8.111A40.326,40.326,0,0,0,4548.475,1295.888Z" transform="translate(-4475.203 -1131.354)"/><path class="d" d="M4561.55,1619.172c-.2,2.521-24.016.746-24.284-.065-.238-.719,2.49-1.3,5.409-1.99.367-.085.735-.175,1.1-.265,3.292-.811,5.486-3.254,8.313-5.38,2.678-2.014.8-11.785.8-11.785l8.311-2.968s-1.254,9.828-1.254,15.236c0,1.821,1.047,3.01,1.348,4.591A9.89,9.89,0,0,1,4561.55,1619.172Z" transform="translate(-4468.668 -1387.878)"/><path class="e" d="M4561.548,1682.224a2.194,2.194,0,0,1-1.732,1.967h-6.574a9.468,9.468,0,0,0-2.447,0h-10.619c-1.938-.615-2.747-1.529-2.912-2.031-.239-.718,2.49-1.3,5.409-1.99l.036.055a15.855,15.855,0,0,0,8.287,1.548c3.8-.354,7.685-1.909,10.3-2.172A9.857,9.857,0,0,1,4561.548,1682.224Z" transform="translate(-4468.667 -1450.931)"/><path class="e" d="M4543.237,1114.864s9.219,45.948,10.777,70.956,3.5,45.712,3.5,45.712a12.189,12.189,0,0,0,4.32.594,15.9,15.9,0,0,0,4.37-.891s9.137-37.626,6.111-52.687-.5-28.953.948-41.445c2.083-17.912-5.932-26.238-11.528-31.913C4556.073,1099.446,4543.237,1114.864,4543.237,1114.864Z" transform="translate(-4473.222 -1012.962)"/><path class="g" d="M4506.952,741.491c-.916-7.481,1.42-19.451,16.351-17.539s19.636,16.586,16.625,23.111,4.335,8.1,6.641,15.114c1.981,6.027,2.672,13.511,5.878,16.87,10.336,10.828-9.923,27.48-22.137,23.969-22.246-6.4-25.111-7.35-24.322-24.83.4-8.956,7.373-12.426,2.949-15.017C4498.25,756.911,4509.025,758.419,4506.952,741.491Z" transform="translate(-4443.471 -723.749)"/><path class="h" d="M4539.276,826.789s1.7,9.878-4.45,14.54l4.425,6.63,8.888-.436,4.105-10.625s-1.26-.248-1.86-13.492Z" transform="translate(-4466.823 -799.565)"/><path class="d" d="M4533.966,770.887s13.3,2.671,14.835-5.637,4.286-13.558-4.14-15.615-10.667.808-11.854,3.456S4530.546,769.978,4533.966,770.887Z" transform="translate(-4464.414 -742.909)"/><path class="h" d="M4503.744,875.61c.571,0,11.034-3.5,25.974,2.585,0,0-7.093,40.576-4.046,48.321a81.84,81.84,0,0,1,4.2,14.617l-33.05.41s.461-26.581-1.062-35.989S4503.744,875.61,4503.744,875.61Z" transform="translate(-4436.98 -838.518)"/><path class="i" d="M4379.531,925.711a13.921,13.921,0,0,1-.38-2.052,31.63,31.63,0,0,1,1.533-12.808.028.028,0,0,0,0-.012c.02-.061.04-.125.06-.186.034-.1.075-.261.125-.465,0-.006,0-.01,0-.016.047-.186.1-.41.158-.665.018-.083.038-.172.058-.269.851-3.809,2.717-13.378,3.209-14.682a12.775,12.775,0,0,0,.507-2.09c.5-2.881.718-7.464-.962-9.379-2.339-2.665-10.6-4.642-10.6-4.642-1.632,2.559-6.924,8.879-13.861,7.735-4.011-.663-4.63-8.467-4.63-8.467-4.31.594-5.412,1.249-5.412,1.249s-10.331,6.447-24.928,26.972c-.463.653-1.565.578-4.261.055-3.431-.669-10.435-.582-21-2.133,0,0-.363.263-.462,1.419a17.091,17.091,0,0,1-.473,3.305,131.738,131.738,0,0,0,14.358,5.622c2.618.831,5.354,1.607,7.966,2.19a40.812,40.812,0,0,0,6.776,1.017s8.433-3.24,16.6-12.244c.477,7.558,1.531,17.319.884,24.447-.37,4.059-3.146,17.714-2.45,19.985,1.452,4.733,12.6,4.978,22.557,4.484.218-.01.434-.021.651-.036,1.543-.089,3.059-.223,4.474-.382a61.538,61.538,0,0,0,6.484-1.033,31.4,31.4,0,0,0,6.367-2.042,6.773,6.773,0,0,0,3.325-2.818C4385.254,942.621,4380.642,931.4,4379.531,925.711Z" transform="translate(-4286.816 -840.88)"/><path class="g" d="M4568.463,742.046s-.233,2.818,4.141,7.6,3.332,13.306,3.332,13.306,7.371-13.856,3.438-18.28S4568.463,742.046,4568.463,742.046Z" transform="translate(-4492.412 -737.393)"/><path class="g" d="M4542.334,726.709s-6.612-2.213-13.172,4.253c-2.827,2.785-2.4,8.26-.886,11.438,0,0,2.325-6.808,6.557-8.293S4542.334,726.709,4542.334,726.709Z" transform="translate(-4460.935 -725.723)"/><path class="j" d="M4543.419,820.292s-.355.986-2.859.538c0,0-2.1-.375-1.909-1.482A6.857,6.857,0,0,1,4543.419,820.292Z" transform="translate(-4469.723 -796.401)"/><path class="k" d="M4526.521,967.53c1.886,6.4,2.982,11.663,7.719,15.223,1.544-.089,3.059-.224,4.474-.382a61.511,61.511,0,0,0,6.484-1.033,31.429,31.429,0,0,0,6.368-2.042,6.77,6.77,0,0,0,3.324-2.818c-.958-5.151-5.57-16.37-6.68-22.061a13.744,13.744,0,0,1-.22-1.492,37.13,37.13,0,0,1,1.374-13.368.027.027,0,0,0,0-.012l.184-.651a.085.085,0,0,1,0-.016c.04-.141.093-.368.158-.665.018-.083.038-.172.057-.269.76-3.609,2.749-14.935,3.255-16.414.16-.467-.217-2.563-.061-3.551l-3.422-2.534s-22.83,9.749-27.86,23.2S4523.813,958.353,4526.521,967.53Z" transform="translate(-4455.495 -869.586)"/><path class="k" d="M4358.232,989.679c5.054,1.6,10.553,3.008,14.742,3.208,0,0,8.545-3.281,16.768-12.422.346-1.554.681-4.159-1.2-3.408-2.64,1.055-12.4,13.588-16.1,13.851C4369.8,991.1,4362.287,990.2,4358.232,989.679Z" transform="translate(-4332.476 -916.356)"/><path class="i" d="M4433.6,922.469s11.254,5.653,21.011,7.992a43.75,43.75,0,0,0,7.82,1.259,35,35,0,0,0,18.5-14.445c13.455-20.712,3.526-24,3.526-24s-10.333,6.447-24.928,26.972c-.511.718-1.793.556-5.113-.115-3.546-.716-10.6-.631-20.348-2.062a5.466,5.466,0,0,0-.262,1.518C4433.591,922.135,4433.6,922.469,4433.6,922.469Z" transform="translate(-4389.816 -852.716)"/><path class="h" d="M4283.9,981.552c-3.4-.662-10.619-.714-21.013-2.219a18.092,18.092,0,0,1-2.579-1.022c-2.228-1.114-8.167-1.856-9.429-.668s1.337,6.014,6.756,6.162a34.709,34.709,0,0,1,4.372.36,131.652,131.652,0,0,0,14.314,5.6c2.618.831,5.354,1.607,7.966,2.19A19.218,19.218,0,0,0,4283.9,981.552Z" transform="translate(-4250.569 -916.443)"/><path class="d" d="M4410.175,999.17a11.485,11.485,0,0,1-.194-10.333c-3.545-.716-10.653-1.027-20.4-2.457l0,.016a21.7,21.7,0,0,1-3.992-1.45c-2.377-1.189-8.718-1.982-10.065-.713s1.427,6.42,7.212,6.578a29.212,29.212,0,0,1,6.237.7C4389.937,991.951,4400.856,996.937,4410.175,999.17Z" transform="translate(-4345.376 -921.425)"/></g><g transform="translate(3121.184 523.867)"><path class="l" d="M4020.273,932.484a136.324,136.324,0,0,1-14.355,5.571c-2.64.819-5.335,1.583-7.975,2.184a35.971,35.971,0,0,1-6.765.983,4.12,4.12,0,0,1-.495-.219,49.986,49.986,0,0,1-16.28-12.071c-.55-.655-1.155-1.311-1.7-2.021-.44-.492-.88-5.353-1.21-10.433l-.055-.056c-.385-5.953-.66-12.29-.66-12.29s9.57,2.569,23.32,25.729c.385.655,1.54.545,4.235.055,3.466-.656,10.45-.6,21.01-2.131,0,0,.385.273.5,1.42A14.475,14.475,0,0,0,4020.273,932.484Z" transform="translate(-3821.543 -862.377)"/><path class="m" d="M3992.957,980.266a49.983,49.983,0,0,1-16.28-12.071c-.55-.655-1.155-1.311-1.705-2.021-.44-.492-.88-5.353-1.21-10.433C3975.083,957.051,3990.482,971.909,3992.957,980.266Z" transform="translate(-3823.817 -901.638)"/><path class="g" d="M3834.016,730.967s-.875-1.782-5.254-1.293-11.951,1.293-12.016,25.135c-.007,2.612-15.754,26.421,2.006,48.839l12.678-32.066Z" transform="translate(-3699.461 -729.589)"/><path class="n" d="M3887.41,735.012s-4.67-1.565-7.128.755a4.879,4.879,0,0,0-1.065,5.387Z" transform="translate(-3751.591 -733.322)"/><path class="g" d="M3897.877,745.768s-.087-10.226-16.659-9.049a8.1,8.1,0,0,0-6.658,4.3c-1.864,3.618-2.677,9.987,3.346,20.2Z" transform="translate(-3747.309 -734.941)"/><path class="o" d="M3888.668,854l3.734,14.5,10.789.523,5.37-7.992c-5.021-3.779-5.73-10.405-5.657-14.336,0-.038,0-.077,0-.115a23.054,23.054,0,0,1,.255-3.076l-7.655-2.315-5.83-1.762a43.8,43.8,0,0,1,.258,9.852C3889.553,852.789,3888.668,854,3888.668,854Z" transform="translate(-3759.08 -813.147)"/><path class="o" d="M3838.979,972.138l39.15-.051s-4.871-26.068-2.167-34.613-.132-21.028-.132-21.028c-3.933-9.277-4.935-17.961-6.686-18.415-.96-.251-1.736-.766-2.677-.953a50.688,50.688,0,0,0-27.881,2.5c-3.452,8.61,3.939,15.077,4.3,34.518C3843.237,953.21,3838.979,972.138,3838.979,972.138Z" transform="translate(-3720.283 -856.312)"/><path class="l" d="M3867.023,975.663s-29.81,6.118-46.859-.219c-.935-.382,2.64-13.164,5.115-21.9a79.2,79.2,0,0,0,2.09-8.084c-.605-11.908-2.97-22.068-4.07-29.934a45.4,45.4,0,0,1-.6-5.681v-.873a14.441,14.441,0,0,1,1.32-7.047c1.87-3.441,11.935-3.5,11.935-3.5.99,1.148,6.435,4.917,12.925,4.862,6.545-.055,3.309-4.649,3.309-4.649.275.055.706.115.926.17a16.7,16.7,0,0,1,5.445,2.239c5.225,5.681,6.93,33.977,6.82,34.9C3865.153,939.393,3867.023,975.663,3867.023,975.663Z" transform="translate(-3706.848 -858.034)"/><path class="p" d="M3893.141,849.275c4.635-2.462,11.811-2.58,12.97-2.583h.159l-.157-.115c-.767-.562-4.208-3.079-7.4-5.392l-5.83-1.762A43.794,43.794,0,0,1,3893.141,849.275Z" transform="translate(-3762.287 -813.147)"/><path class="o" d="M3905.541,783.517s-16.448.746-16.758-9.434-2.643-16.94,7.846-17.847,12.648,2.916,13.584,6.289S3909.811,783.061,3905.541,783.517Z" transform="translate(-3758.836 -749.759)"/><path class="g" d="M3925.441,754.038s7.044,4.812,5.915,10.392c0,0,3.489-1.822,3.161-7.142s-5.439-8.977-9.937-9.255a52.13,52.13,0,0,0-7.886.085Z" transform="translate(-3780.402 -743.541)"/><path class="g" d="M3902.983,755.626c2.919,1.535-9.146,2.828-9.883,7.71s-6.49,6.751-6.49,6.751S3879.315,743.176,3902.983,755.626Z" transform="translate(-3756.707 -746.895)"/><path class="m" d="M3871.209,967.077a56.772,56.772,0,0,1-37.4,19.992,79.281,79.281,0,0,0,2.09-8.084c-.605-11.908-2.97-22.068-4.07-29.934a45.448,45.448,0,0,1-.6-5.681V942.5c2.8.547,7.15,3.44,9.02,3.878C3854.71,949.762,3871.209,967.077,3871.209,967.077Z" transform="translate(-3715.379 -891.563)"/><path class="j" d="M3953.01,846.477s-.119,1.034-2.658,1.175c0,0-2.132.118-2.2-1A6.9,6.9,0,0,1,3953.01,846.477Z" transform="translate(-3804.335 -818.259)"/><path class="l" d="M3883.974,935.83s-11.254,5.615-21.011,7.938a44.058,44.058,0,0,1-7.82,1.25,39.593,39.593,0,0,1-18.5-14.346c-15.468-21.519-3.526-23.84-3.526-23.84s10.333,6.4,24.928,26.788c.51.713,1.793.552,5.113-.114,3.546-.711,10.6-.627,20.347-2.048a5.369,5.369,0,0,1,.263,1.507C3883.987,935.5,3883.974,935.83,3883.974,935.83Z" transform="translate(-3713.471 -864.43)"/><path class="h" d="M4105.046,1007.268a132.211,132.211,0,0,1-14.358,5.584c-2.618.825-5.354,1.6-7.966,2.176a18.963,18.963,0,0,1,.388-10.333c3.431-.664,10.764-.709,21.33-2.25Z" transform="translate(-3906.31 -937.169)"/><path class="h" d="M4164.152,995.993a22.205,22.205,0,0,0,4.9-1.622c2.227-1.106,8.167-1.843,9.429-.664s-1.336,5.972-6.756,6.12-6.979,1.033-6.979,1.033Z" transform="translate(-3968.66 -930.065)"/><path class="d" d="M3993.137,1013.187s-11.514,5.32-21.271,7.643a11.338,11.338,0,0,0,.194-10.262c3.546-.711,10.653-1.02,20.4-2.441,0,0,.115.753.214,1.9A14.429,14.429,0,0,0,3993.137,1013.187Z" transform="translate(-3822.375 -941.492)"/><path class="q" d="M3396.977,1214.129v-.381h-40.864a9,9,0,0,0-9.13,8.85,8.9,8.9,0,0,0,7.655,8.733v99.155H3508.3V1214.129Z" transform="translate(-3346.982 -1097.922)"/><g transform="translate(174.419 55.084)"><rect class="r" width="24.547" height="24.379"/><rect class="s" width="24.547" height="24.379" transform="translate(7.568)"/><path class="t" d="M4083.631,959.842l-7.568,4.557v-4.557Z" transform="translate(-4076.063 -959.842)"/><g transform="translate(3.445 3.282)"><path class="u" d="M4098.716,975.555h-8.254l.347-.958-.347-1.034h8.177l-.5,1.073Z" transform="translate(-4090.462 -973.563)"/><path class="t" d="M4094.589,973.563v1.992h-4.127l.347-.958-.347-1.034Z" transform="translate(-4090.462 -973.563)"/></g><g transform="translate(3.445 18.004)"><path class="u" d="M4098.716,1037.094h-8.254l.347-.958-.347-1.034h8.177l-.5,1.073Z" transform="translate(-4090.462 -1035.102)"/><path class="t" d="M4094.589,1035.1v1.992h-4.127l.347-.958-.347-1.034Z" transform="translate(-4090.462 -1035.102)"/></g></g><path class="d" d="M4052.768,999.611A23.723,23.723,0,0,0,4058,997.88c2.378-1.181,8.718-1.968,10.065-.709s-1.427,6.376-7.212,6.534-7.45,1.1-7.45,1.1Z" transform="translate(-3883.922 -932.669)"/><rect class="n" width="153.662" height="116.356" transform="translate(50.28 116.207)"/><path class="v" d="M3573.58,1213.748H3356.112a8.853,8.853,0,1,0,0,17.7H3573.58c5.61,0,10.175-3.987,10.175-8.848S3579.19,1213.748,3573.58,1213.748Z" transform="translate(-3346.982 -1097.922)"/></g><g transform="translate(3110.829 587.897)"><rect class="w" width="27.581" height="24.508"/><rect class="a" width="27.581" height="24.508" transform="translate(5.04)"/></g><g transform="translate(3146.235 584.213)"><rect class="w" width="34.751" height="28.192" transform="translate(0 0)"/><rect class="a" width="34.75" height="28.192" transform="translate(6.35 0)"/></g><g transform="translate(3050.18 641.668)"><path class="x" d="M3350.327,1413.785s-11.442,8.508-13.672,7.992,8.362-9.184,8.362-9.184c-3.986-1.917-16.377-.715-16.377-.715s-4.127,13.309-6.162,12.26,4.256-11.6,4.256-11.6c-4.44-.268-9.885,3.029-9.885,3.029-7.454,5.887.49,15.155.49,15.155a22.655,22.655,0,0,1-6.237,8.754,19.668,19.668,0,0,0-7.19,13.856l1.22.109s1.955-8.357,5.505-12.245c.133-.137.311-.32.525-.535.57-.528.968-.923,1.237-1.218,1.75-1.682,4.172-3.828,5.338-4.036a2.263,2.263,0,0,1-.05-.586c.016.188.032.381.05.586.4,4.684,9.486,8.775,15.077,9.616s3.862-1.457,1.936-4.864-8.022-4.932-9.413-6.5,1.485-1.573,4.853-.034,3.83,5.64,9.233,8.228,13.534-6.379,13.534-6.379c-4.306-.219-10.456-4.9-10.234-6.327s10.439,2.469,12.185,2.656,5.72-1.985,6.335-9.02S3350.327,1413.785,3350.327,1413.785Z" transform="translate(-3243.211 -1366.171)"/><g transform="translate(0 20.172)"><path class="y" d="M3096.532,1339.049s12.637-7.077,6.74-16.681c0,0-4.717-5.9-9.772-7.414,0,0,2.7,14.322,0,14.659s-1.853-16.175-1.853-16.175-13.311-6.4-18.534-5.9c0,0,8.256,13.985,5.56,13.648s-11.963-14.49-11.963-14.49-13.647-2.527-15.838,5.56,1.348,12.131,3.37,12.637,15,.337,14.659,2.022-9.1,4.381-13.985,2.864c0,0,5.392,13.311,12.468,12.637s9.267-5.055,13.648-5.392,7.583.843,5.392,2.022-9.6.386-13.143,3.395-6.4,4.862.168,6.209,18.366.506,20.724-4.549Z" transform="translate(-3050.18 -1306.325)"/><path class="x" d="M3121.926,1378.257a26.878,26.878,0,0,1-3.37-12.3c-4.043-12.805-39.427-24.263-39.427-24.263,44.987,18.2,37.068,29.318,37.068,29.318,1.213.707,3.031,4.081,4.293,6.668.179.44.463,1.048.884,1.872.172.376.31.684.4.9,2.316,5.8,1.089,15.8,1.089,15.8l1.4.377A23.338,23.338,0,0,0,3121.926,1378.257Z" transform="translate(-3072.203 -1333.233)"/></g><g transform="translate(55.506 0)"><path class="y" d="M3293.148,1265.141s-16.657-9.328-8.884-21.988c0,0,6.219-7.774,12.882-9.772,0,0-3.554,18.879,0,19.323s2.443-21.322,2.443-21.322,17.546-8.44,24.431-7.774c0,0-10.884,18.435-7.33,17.99s15.769-19.1,15.769-19.1,17.99-3.331,20.878,7.329-1.777,15.991-4.442,16.658-19.767.444-19.323,2.665,11.994,5.774,18.435,3.776c0,0-7.107,17.546-16.436,16.658s-12.216-6.663-17.99-7.107-10,1.11-7.107,2.665,12.66.51,17.324,4.475,8.44,6.409-.222,8.185-24.209.666-27.319-6Z" transform="translate(-3282.197 -1222.005)"/><path class="x" d="M3351.967,1268.628s-46.642,15.1-51.972,31.983a35.435,35.435,0,0,1-4.442,16.214s-7.193,10.923-3.092,24.219l1.851-.5s-1.618-13.193,1.436-20.833c.125-.281.305-.685.531-1.178h0c.557-1.09.932-1.894,1.169-2.474,1.663-3.411,4.059-7.856,5.657-8.788C3303.1,1307.274,3292.666,1292.615,3351.967,1268.628Z" transform="translate(-3289.044 -1257.474)"/></g><path class="s" d="M3189.232,1555.458a32.63,32.63,0,1,0,65.26,0Z" transform="translate(-3155.967 -1475.686)"/><path class="z" d="M3242.538,1587.837a32.649,32.649,0,0,1-36.682-32.38h8.106A32.635,32.635,0,0,0,3242.538,1587.837Z" transform="translate(-3168.613 -1475.685)"/><path class="s" d="M3249.484,1681.966h-58.109a4.026,4.026,0,0,0-4.026,4.026h66.161A4.026,4.026,0,0,0,3249.484,1681.966Z" transform="translate(-3154.534 -1571.929)"/><rect class="r" width="67.075" height="1.001" transform="translate(32.193 79.772)"/></g><rect class="aa" width="114.432" height="4.025" transform="translate(3106.754 492.991)"/><rect class="b" width="148.668" height="4.025" transform="translate(3079.76 459.176)"/><rect class="aa" width="114.432" height="4.025" transform="translate(3106.754 532.798)"/><rect class="aa" width="114.432" height="4.025" transform="translate(3106.754 572.606)"/><rect class="aa" width="114.432" height="4.025" transform="translate(3106.754 612.413)"/><g transform="translate(3110.704 500.315)"><g transform="translate(0 0)"><rect class="r" width="32.484" height="32.483"/><rect class="s" width="32.484" height="32.483" transform="translate(10.016)"/><path class="t" d="M3313.19,631.141l-10.016,6.072v-6.072Z" transform="translate(-3303.174 -631.141)"/></g><g transform="translate(22.881 6.902)"><rect class="ab" width="25.581" height="25.581"/><rect class="b" width="25.581" height="25.581" transform="translate(7.888)"/></g><rect class="ac" width="9.68" height="4.919" transform="matrix(0.981, -0.196, 0.196, 0.981, 32.825, 26.471)"/><g transform="translate(26.129 11.302)"><path class="ac" d="M3421.639,680.631H3412.4l.389-1.08-.389-1.166h9.157l-.562,1.209Z" transform="translate(-3412.396 -678.385)"/><path class="a" d="M3417.017,678.385v2.246H3412.4l.389-1.08-.389-1.166Z" transform="translate(-3412.396 -678.385)"/></g><g transform="translate(4.559 4.313)"><path class="u" d="M3333.154,651.823H3322.23l.459-1.276-.459-1.378h10.821l-.663,1.429Z" transform="translate(-3322.23 -649.169)"/><path class="t" d="M3327.692,649.169v2.654h-5.462l.459-1.276-.459-1.378Z" transform="translate(-3322.23 -649.169)"/></g><g transform="translate(4.559 23.929)"><path class="u" d="M3333.154,733.82H3322.23l.459-1.276-.459-1.378h10.821l-.663,1.429Z" transform="translate(-3322.23 -731.166)"/><path class="t" d="M3327.692,731.166v2.654h-5.462l.459-1.276-.459-1.378Z" transform="translate(-3322.23 -731.166)"/></g></g><g transform="translate(3126.481 467.468)"><rect class="ab" width="25.582" height="25.581" transform="translate(0)"/><rect class="b" width="25.582" height="25.581" transform="translate(7.888)"/><rect class="ac" width="9.68" height="4.919" transform="matrix(0.981, -0.196, 0.196, 0.981, 9.944, 19.443)"/><g transform="translate(3.248 4.275)"><path class="ac" d="M3391.942,513.952H3382.7l.389-1.08-.389-1.166h9.157l-.562,1.21Z" transform="translate(-3382.699 -511.706)"/><path class="a" d="M3387.321,511.706v2.246H3382.7l.389-1.08-.389-1.166Z" transform="translate(-3382.699 -511.706)"/></g><g transform="translate(36.866 7.442)"><rect class="r" width="18.076" height="18.076"/><rect class="s" width="18.076" height="18.076" transform="translate(5.574)"/><path class="t" d="M3528.8,524.945l-5.574,3.379v-3.379Z" transform="translate(-3523.224 -524.945)"/><g transform="translate(2.537 2.434)"><path class="u" d="M3539.906,536.6h-6.079l.256-.71-.256-.767h6.022l-.37.8Z" transform="translate(-3533.827 -535.118)"/><path class="t" d="M3536.867,535.118V536.6h-3.04l.256-.71-.256-.767Z" transform="translate(-3533.827 -535.118)"/></g><g transform="translate(2.537 13.35)"><path class="u" d="M3539.906,582.225h-6.079l.256-.71-.256-.767h6.022l-.37.8Z" transform="translate(-3533.827 -580.748)"/><path class="t" d="M3536.867,580.748v1.477h-3.04l.256-.71-.256-.767Z" transform="translate(-3533.827 -580.748)"/></g></g></g><g transform="translate(3111.01 551.368)"><rect class="ab" width="21.253" height="21.253" transform="translate(0)"/><rect class="b" width="21.253" height="21.253" transform="translate(6.553)"/><rect class="ac" width="8.042" height="4.087" transform="translate(8.261 16.153) rotate(-11.294)"/><g transform="translate(2.699 3.552)"><path class="ac" d="M3323.414,861.256h-7.679l.323-.9-.323-.969h7.607l-.467,1Z" transform="translate(-3315.734 -859.39)"/><path class="a" d="M3319.574,859.39v1.866h-3.839l.323-.9-.323-.969Z" transform="translate(-3315.734 -859.39)"/></g></g><g transform="translate(3141.393 551.368)"><rect class="ab" width="21.253" height="21.253" transform="translate(0)"/><rect class="b" width="21.253" height="21.253" transform="translate(6.553)"/><rect class="ac" width="8.042" height="4.087" transform="translate(8.261 16.153) rotate(-11.294)"/><g transform="translate(2.699 3.552)"><path class="ac" d="M3450.414,861.256h-7.679l.323-.9-.323-.969h7.607l-.467,1Z" transform="translate(-3442.734 -859.39)"/><path class="a" d="M3446.574,859.39v1.866h-3.84l.323-.9-.323-.969Z" transform="translate(-3442.734 -859.39)"/></g></g><g transform="translate(3170.187 517.299)"><g transform="translate(0)"><rect class="r" width="15.5" height="15.5"/><rect class="s" width="15.5" height="15.5" transform="translate(4.779)"/><path class="t" d="M3556.6,702.134l-4.779,2.9v-2.9Z" transform="translate(-3551.816 -702.134)"/></g><g transform="translate(10.918 3.293)"><rect class="ab" width="12.206" height="12.206"/><rect class="b" width="12.206" height="12.206" transform="translate(3.764)"/></g><rect class="ac" width="4.619" height="2.347" transform="translate(15.662 12.696) rotate(-11.294)"/><g transform="translate(12.468 5.458)"><path class="ac" d="M3608.342,726.022h-4.41l.186-.515-.186-.557h4.369l-.268.577Z" transform="translate(-3603.932 -724.95)"/><path class="a" d="M3606.137,724.95v1.072h-2.206l.186-.515-.186-.557Z" transform="translate(-3603.932 -724.95)"/></g><g transform="translate(2.175 2.123)"><path class="u" d="M3566.12,712.276h-5.212l.219-.609-.219-.658h5.164l-.317.682Z" transform="translate(-3560.908 -711.01)"/><path class="t" d="M3563.515,711.01v1.266h-2.606l.219-.609-.219-.658Z" transform="translate(-3560.908 -711.01)"/></g><g transform="translate(2.175 11.483)"><path class="u" d="M3566.12,751.4h-5.212l.219-.609-.219-.658h5.164l-.317.682Z" transform="translate(-3560.908 -750.135)"/><path class="t" d="M3563.515,750.135V751.4h-2.606l.219-.609-.219-.658Z" transform="translate(-3560.908 -750.135)"/></g></g><path class="b" d="M3676.008,815.16l-6.531,28.359h18.047l6.531-28.359Z" transform="translate(-471.142 -270.822)"/><path class="j" d="M3627.154,815.16l-6.531,28.359h18.047l6.531-28.359Z" transform="translate(-433.975 -270.822)"/><g transform="translate(3175.97 558.669)"><path class="s" d="M3598.182,875.909l.008,12.321a.851.851,0,0,1-.846.847l-20.5.014a.851.851,0,0,1-.847-.846l-.009-12.321a.848.848,0,0,1,.846-.848l20.5-.014A.848.848,0,0,1,3598.182,875.909Z" transform="translate(-3575.992 -875.063)"/><path class="r" d="M3598.182,875.909v.356l-11.091,5.812-11.1-6.153a.848.848,0,0,1,.846-.848l20.5-.014A.848.848,0,0,1,3598.182,875.909Z" transform="translate(-3575.992 -875.063)"/><path class="r" d="M3648.758,924.892l-3.844,0a.341.341,0,1,0,0,.681l3.844,0a.341.341,0,1,0,0-.681Z" transform="translate(-3628.166 -912.971)"/></g><g transform="translate(3172.19 558.577)"><path class="s" d="M3582.377,875.527a.847.847,0,0,0-.847-.846l-20.5.014a.847.847,0,0,0-.846.847l.008,12.321a.851.851,0,0,0,.847.846l20.5-.014a.851.851,0,0,0,.846-.847Z" transform="translate(-3560.188 -874.681)"/><path class="r" d="M3582.377,875.527v.356l-11.09,5.812-11.1-6.153a.847.847,0,0,1,.846-.847l20.5-.014A.847.847,0,0,1,3582.377,875.527Z" transform="translate(-3560.188 -874.681)"/><path class="r" d="M3632.953,924.509l-3.844,0a.341.341,0,0,0,0,.681l3.844,0a.341.341,0,1,0,0-.681Z" transform="translate(-3612.362 -912.589)"/></g></g></svg>