<svg xmlns="http://www.w3.org/2000/svg" xmlns:xlink="http://www.w3.org/1999/xlink" width="384.883" height="253.406" viewBox="0 0 384.883 253.406"><defs><style>.a{fill:none;}.b{fill:#4396ca;}.c{fill:#d0d0d0;}.d{fill:#54c3dd;}.e{fill:#fff;}.f{clip-path:url(#a);}.g{fill:#1f83b5;}.h{fill:#062c3f;}.i{fill:#cecac6;}</style><clipPath id="a"><path class="a" d="M206.888,531.892H85.725V373.91h62.808a24.136,24.136,0,0,1,21.312,12.8l58.354,109.7A24.141,24.141,0,0,1,206.888,531.892Z" transform="translate(-85.725 -373.91)"/></clipPath></defs><g transform="translate(-22.375 -439.142)"><g transform="translate(261.925 489.563)"><path class="b" d="M206.888,531.892H85.725V373.91h62.808a24.136,24.136,0,0,1,21.312,12.8l58.354,109.7A24.141,24.141,0,0,1,206.888,531.892Z" transform="translate(-85.725 -373.91)"/></g><g transform="translate(33.36 439.142)"><path class="c" d="M37.044,360.576H242.081a11.765,11.765,0,0,1,11.764,11.768V568.978H25.28V372.344A11.765,11.765,0,0,1,37.044,360.576Z" transform="translate(-25.28 -360.576)"/></g><g transform="translate(22.375 607.5)"><path class="d" d="M29.329,405.1H262.669v40.332H22.375V412.053A6.955,6.955,0,0,1,29.329,405.1Z" transform="translate(-22.375 -405.099)"/></g><g transform="translate(278.464 510.784)"><path class="e" d="M90.1,379.522h37.523a13.009,13.009,0,0,1,11.507,6.946l25.77,48.965a5.422,5.422,0,0,1-4.8,7.945H91.782Z" transform="translate(-90.099 -379.522)"/></g><g transform="translate(261.925 489.563)"><g class="f"><g transform="translate(4.512 91.905)"><circle class="g" cx="56.016" cy="56.016" r="56.016" transform="translate(0 109.035) rotate(-76.718)"/></g></g></g><g transform="translate(290.131 604.043)"><circle class="h" cx="44.253" cy="44.253" r="44.253"/></g><g transform="translate(52.624 624.209)"><circle class="h" cx="34.17" cy="34.17" r="34.17"/></g><g transform="translate(319.228 633.14)"><circle class="i" cx="15.155" cy="15.155" r="15.155"/></g><g transform="translate(74.47 646.055)"><circle class="i" cx="12.323" cy="12.323" r="12.323"/></g></g></svg>