<svg xmlns="http://www.w3.org/2000/svg" xmlns:xlink="http://www.w3.org/1999/xlink" width="219.419" height="325.199" viewBox="0 0 219.419 325.199"><defs><style>.a,.cr,.cs,.df,.dh,.di{opacity:0.95;}.a{fill:url(#a);}.b,.x{opacity:0.5;}.b,.cb,.cy{mix-blend-mode:multiply;}.aa,.b,.cb,.cq,.cy{isolation:isolate;}.ax,.c{fill:#afb6e5;}.c{opacity:0;}.d{fill:#a7adda;opacity:0.024;}.e{fill:#9ea5cf;}.ac,.e{opacity:0.048;}.f{fill:#969cc4;opacity:0.071;}.g{fill:#8e93b9;}.ad,.g{opacity:0.095;}.h{fill:#858bae;opacity:0.119;}.i{fill:#7d82a4;}.ae,.i{opacity:0.143;}.j{fill:#757999;opacity:0.167;}.k{fill:#6c718e;}.af,.k{opacity:0.19;}.l{fill:#646883;opacity:0.214;}.m{fill:#5c5f78;}.ag,.m{opacity:0.238;}.n{fill:#53576d;opacity:0.262;}.o{fill:#4b4e62;}.ah,.o{opacity:0.286;}.p{fill:#434557;opacity:0.31;}.q{fill:#3a3d4c;}.ai,.q{opacity:0.333;}.r{fill:#323441;opacity:0.357;}.s{fill:#2a2b37;}.aj,.s{opacity:0.381;}.t{fill:#21232c;opacity:0.405;}.u{fill:#191a21;}.ak,.u{opacity:0.429;}.v{fill:#111116;opacity:0.452;}.w{fill:#08090b;}.al,.w{opacity:0.476;}.y{fill:url(#c);}.z{fill:url(#d);}.aa{mix-blend-mode:color-dodge;fill:url(#e);}.ab{opacity:0.2;}.ac{fill:#abb2e2;}.ad,.cc{fill:#a7addf;}.ae{fill:#a3a9dc;}.af{fill:#9fa4d8;}.ag{fill:#9ba0d5;}.ah{fill:#979bd2;}.ai{fill:#9397cf;}.aj{fill:#8f92cc;}.ak{fill:#8b8ec9;}.al{fill:#8789c6;}.am{fill:#8385c2;opacity:0.524;}.an{fill:#7f80bf;opacity:0.571;}.ao{fill:#7b7cbc;opacity:0.619;}.ap{fill:#7777b9;opacity:0.667;}.aq{fill:#7373b6;opacity:0.714;}.ar{fill:#6f6eb3;opacity:0.762;}.as{fill:#6b6ab0;opacity:0.81;}.at{fill:#6765ac;opacity:0.857;}.au,.cl{fill:#6361a9;}.au{opacity:0.905;}.av{fill:#5f5ca6;opacity:0.952;}.aw{fill:#5b58a3;}.ay{fill:url(#f);}.az{fill:url(#g);}.ba{fill:url(#h);}.bb{fill:url(#i);}.bc{fill:url(#j);}.bd{fill:url(#k);}.be{fill:url(#l);}.bf{fill:url(#m);}.bg{fill:url(#n);}.bh{fill:url(#o);}.bi{fill:url(#p);}.bj{fill:url(#q);}.bk{fill:url(#r);}.bl{fill:url(#s);}.bm{fill:url(#t);}.bn{fill:url(#u);}.bo{fill:url(#v);}.bp{fill:url(#w);}.bq{fill:url(#x);}.br{fill:url(#y);}.bs{fill:url(#z);}.bt{fill:#fff;}.bu{fill:url(#aa);}.bv{fill:url(#ab);}.bw{fill:url(#ac);}.bx{fill:url(#ad);}.by{fill:url(#ae);}.bz{fill:#e6e7e8;}.ca{fill:url(#af);}.cb{opacity:0.3;}.cc{opacity:0.091;}.cd{fill:#a0a5d9;opacity:0.182;}.ce{fill:#989cd3;opacity:0.273;}.cf{fill:#9094cd;opacity:0.364;}.cg{fill:#898bc7;opacity:0.455;}.ch{fill:#8183c1;opacity:0.545;}.ci{fill:#7a7abb;opacity:0.636;}.cj{fill:#7272b5;opacity:0.727;}.ck{fill:#6a69af;opacity:0.818;}.cl{opacity:0.909;}.cm{fill:url(#ag);}.cn{fill:url(#ah);}.co{fill:url(#ai);}.cp{fill:#273b98;}.cq{mix-blend-mode:screen;fill:url(#aj);}.cr{fill:url(#ak);}.cs{fill:url(#al);}.ct{fill:url(#am);}.cu{fill:url(#an);}.cv{fill:#ffd4c0;}.cw{fill:#ffdecf;}.cx{fill:url(#ao);}.cy{fill:#ced3f4;}.cz{fill:#4e0070;}.da{fill:#35004d;}.db{fill:url(#ap);}.dc{fill:url(#aq);}.dd{fill:url(#ar);}.de{fill:url(#as);}.df{fill:url(#at);}.dg{fill:url(#au);}.dh{fill:url(#av);}.di{fill:url(#aw);}.dj{fill:url(#ax);}.dk{fill:url(#ay);}</style><linearGradient id="a" x1="0.403" y1="0.029" x2="0.635" y2="1.151" gradientUnits="objectBoundingBox"><stop offset="0.005" stop-color="#00c7c5"/><stop offset="0.223" stop-color="#23a4da"/><stop offset="0.475" stop-color="#5277f7"/><stop offset="0.624" stop-color="#5a75f6"/><stop offset="0.865" stop-color="#7270f4"/><stop offset="0.999" stop-color="#836df3"/></linearGradient><linearGradient id="c" y1="0.5" x2="1.417" y2="0.5" gradientUnits="objectBoundingBox"><stop offset="0" stop-color="#b7bee9"/><stop offset="0.177" stop-color="#bac1ea"/><stop offset="0.33" stop-color="#c5caef"/><stop offset="0.434" stop-color="#d1d6f5"/><stop offset="0.462" stop-color="#dbdffa"/><stop offset="0.5" stop-color="#e5e9ff"/><stop offset="0.525" stop-color="#d1d6f5"/><stop offset="0.561" stop-color="#afb6e5"/><stop offset="1" stop-color="#afb6e5"/></linearGradient><linearGradient id="d" x1="0.664" y1="-0.24" x2="0.413" y2="0.894" gradientUnits="objectBoundingBox"><stop offset="0" stop-color="#afb6e5"/><stop offset="0.145" stop-color="#b5bce8"/><stop offset="0.349" stop-color="#c7cdf0"/><stop offset="0.581" stop-color="#e5e9ff"/><stop offset="0.855" stop-color="#f4f6ff"/><stop offset="1" stop-color="#fff"/></linearGradient><radialGradient id="e" cx="0.5" cy="0.5" r="0.944" gradientTransform="translate(0.298) scale(0.404 1)" gradientUnits="objectBoundingBox"><stop offset="0" stop-color="#fff"/><stop offset="1"/></radialGradient><linearGradient id="f" x1="0.103" y1="0.006" x2="0.928" y2="0.991" gradientUnits="objectBoundingBox"><stop offset="0" stop-color="#b0b7e6"/><stop offset="0.192" stop-color="#b2b8e6"/><stop offset="0.283" stop-color="#b3b9e6"/><stop offset="0.409" stop-color="#afb6e5"/><stop offset="0.909" stop-color="#afb6e5"/><stop offset="1" stop-color="#b0b7e6"/></linearGradient><linearGradient id="g" x1="0.102" y1="0.006" x2="0.929" y2="0.991" gradientUnits="objectBoundingBox"><stop offset="0" stop-color="#b2b9e6"/><stop offset="0.192" stop-color="#b4bbe7"/><stop offset="0.283" stop-color="#b7bde7"/><stop offset="0.409" stop-color="#afb6e5"/><stop offset="0.909" stop-color="#afb6e5"/><stop offset="1" stop-color="#b2b9e6"/></linearGradient><linearGradient id="h" x1="0.102" y1="0.006" x2="0.929" y2="0.991" gradientUnits="objectBoundingBox"><stop offset="0" stop-color="#b3bae7"/><stop offset="0.192" stop-color="#b7bde9"/><stop offset="0.283" stop-color="#bac0e9"/><stop offset="0.409" stop-color="#afb6e5"/><stop offset="0.909" stop-color="#afb6e5"/><stop offset="1" stop-color="#b3bae7"/></linearGradient><linearGradient id="i" x1="0.101" y1="0.006" x2="0.93" y2="0.991" gradientUnits="objectBoundingBox"><stop offset="0" stop-color="#b5bbe8"/><stop offset="0.192" stop-color="#b9c0ea"/><stop offset="0.283" stop-color="#bec4ea"/><stop offset="0.409" stop-color="#afb6e5"/><stop offset="0.909" stop-color="#afb6e5"/><stop offset="1" stop-color="#b5bbe8"/></linearGradient><linearGradient id="j" x1="0.1" y1="0.006" x2="0.931" y2="0.991" gradientUnits="objectBoundingBox"><stop offset="0" stop-color="#b6bde8"/><stop offset="0.192" stop-color="#bcc2eb"/><stop offset="0.283" stop-color="#c2c7eb"/><stop offset="0.409" stop-color="#afb6e5"/><stop offset="0.909" stop-color="#afb6e5"/><stop offset="1" stop-color="#b6bde8"/></linearGradient><linearGradient id="k" x1="0.1" y1="0.006" x2="0.931" y2="0.991" gradientUnits="objectBoundingBox"><stop offset="0" stop-color="#b8bee9"/><stop offset="0.192" stop-color="#bec5ec"/><stop offset="0.283" stop-color="#c6cbec"/><stop offset="0.393" stop-color="#b2b9e6"/><stop offset="0.409" stop-color="#afb6e5"/><stop offset="0.909" stop-color="#afb6e5"/><stop offset="1" stop-color="#b8bee9"/></linearGradient><linearGradient id="l" x1="0.099" y1="0.005" x2="0.932" y2="0.991" gradientUnits="objectBoundingBox"><stop offset="0" stop-color="#b9bfea"/><stop offset="0.192" stop-color="#c1c7ee"/><stop offset="0.283" stop-color="#caceee"/><stop offset="0.378" stop-color="#b6bce7"/><stop offset="0.409" stop-color="#afb6e5"/><stop offset="0.909" stop-color="#afb6e5"/><stop offset="1" stop-color="#b9bfea"/></linearGradient><linearGradient id="m" x1="0.098" y1="0.005" x2="0.933" y2="0.991" gradientUnits="objectBoundingBox"><stop offset="0" stop-color="#bac1ea"/><stop offset="0.192" stop-color="#c4c9ef"/><stop offset="0.283" stop-color="#cdd2ef"/><stop offset="0.37" stop-color="#b9bfe8"/><stop offset="0.409" stop-color="#afb6e5"/><stop offset="0.909" stop-color="#afb6e5"/><stop offset="0.999" stop-color="#b9c0e9"/><stop offset="1" stop-color="#bac1ea"/></linearGradient><linearGradient id="n" x1="0.098" y1="0.005" x2="0.934" y2="0.991" gradientUnits="objectBoundingBox"><stop offset="0" stop-color="#bcc2eb"/><stop offset="0.192" stop-color="#c6ccf0"/><stop offset="0.277" stop-color="#d0d4f0"/><stop offset="0.283" stop-color="#d1d5f0"/><stop offset="0.361" stop-color="#bdc3e9"/><stop offset="0.409" stop-color="#afb6e5"/><stop offset="0.909" stop-color="#afb6e5"/><stop offset="0.988" stop-color="#b9c0ea"/><stop offset="1" stop-color="#bcc2eb"/></linearGradient><linearGradient id="o" x1="0.097" y1="0.005" x2="0.934" y2="0.992" gradientUnits="objectBoundingBox"><stop offset="0" stop-color="#bdc3ec"/><stop offset="0.192" stop-color="#c9cef1"/><stop offset="0.272" stop-color="#d3d7f1"/><stop offset="0.283" stop-color="#d5d9f1"/><stop offset="0.354" stop-color="#c1c6ea"/><stop offset="0.409" stop-color="#afb6e5"/><stop offset="0.909" stop-color="#afb6e5"/><stop offset="0.984" stop-color="#b9c0ea"/><stop offset="1" stop-color="#bdc3ec"/></linearGradient><linearGradient id="p" x1="0.096" y1="0.005" x2="0.935" y2="0.992" gradientUnits="objectBoundingBox"><stop offset="0" stop-color="#bfc5ec"/><stop offset="0.192" stop-color="#cbd1f3"/><stop offset="0.263" stop-color="#d5d8f3"/><stop offset="0.283" stop-color="#d9dcf3"/><stop offset="0.348" stop-color="#c5caec"/><stop offset="0.409" stop-color="#afb6e5"/><stop offset="0.909" stop-color="#afb6e5"/><stop offset="0.976" stop-color="#b9c0e9"/><stop offset="1" stop-color="#bfc5ec"/></linearGradient><linearGradient id="q" x1="0.096" y1="0.005" x2="0.936" y2="0.992" gradientUnits="objectBoundingBox"><stop offset="0" stop-color="#c0c6ed"/><stop offset="0.192" stop-color="#ced3f4"/><stop offset="0.259" stop-color="#d8dbf4"/><stop offset="0.283" stop-color="#dde0f4"/><stop offset="0.343" stop-color="#c9ceed"/><stop offset="0.409" stop-color="#afb6e5"/><stop offset="0.909" stop-color="#afb6e5"/><stop offset="0.973" stop-color="#b9c0ea"/><stop offset="1" stop-color="#c0c6ed"/></linearGradient><linearGradient id="r" x1="0.095" y1="0.005" x2="0.936" y2="0.992" gradientUnits="objectBoundingBox"><stop offset="0" stop-color="#c2c7ee"/><stop offset="0.192" stop-color="#d0d6f5"/><stop offset="0.253" stop-color="#daddf5"/><stop offset="0.283" stop-color="#e1e3f5"/><stop offset="0.339" stop-color="#cdd1ee"/><stop offset="0.409" stop-color="#afb6e5"/><stop offset="0.909" stop-color="#afb6e5"/><stop offset="0.968" stop-color="#b9bfea"/><stop offset="1" stop-color="#c2c7ee"/></linearGradient><linearGradient id="s" x1="0.094" y1="0.005" x2="0.937" y2="0.992" gradientUnits="objectBoundingBox"><stop offset="0" stop-color="#c3c9ee"/><stop offset="0.192" stop-color="#d3d8f6"/><stop offset="0.253" stop-color="#dde0f6"/><stop offset="0.283" stop-color="#e4e7f6"/><stop offset="0.336" stop-color="#d0d4ef"/><stop offset="0.409" stop-color="#afb6e5"/><stop offset="0.909" stop-color="#afb6e5"/><stop offset="0.966" stop-color="#b9c0e9"/><stop offset="1" stop-color="#c3c9ee"/></linearGradient><linearGradient id="t" x1="0.094" y1="0.005" x2="0.938" y2="0.992" gradientUnits="objectBoundingBox"><stop offset="0" stop-color="#c4caef"/><stop offset="0.192" stop-color="#d6daf8"/><stop offset="0.25" stop-color="#e0e2f8"/><stop offset="0.283" stop-color="#e8eaf8"/><stop offset="0.333" stop-color="#d4d8f1"/><stop offset="0.409" stop-color="#afb6e5"/><stop offset="0.909" stop-color="#afb6e5"/><stop offset="0.963" stop-color="#b9c0ea"/><stop offset="1" stop-color="#c4caef"/></linearGradient><linearGradient id="u" x1="0.093" y1="0.005" x2="0.939" y2="0.992" gradientUnits="objectBoundingBox"><stop offset="0" stop-color="#c6cbf0"/><stop offset="0.192" stop-color="#d8ddf9"/><stop offset="0.246" stop-color="#e2e5f9"/><stop offset="0.283" stop-color="#eceef9"/><stop offset="0.33" stop-color="#d8dbf2"/><stop offset="0.409" stop-color="#afb6e5"/><stop offset="0.909" stop-color="#afb6e5"/><stop offset="0.96" stop-color="#b9bfea"/><stop offset="1" stop-color="#c6cbf0"/></linearGradient><linearGradient id="v" x1="0.092" y1="0.004" x2="0.939" y2="0.992" gradientUnits="objectBoundingBox"><stop offset="0" stop-color="#c7cdf0"/><stop offset="0.192" stop-color="#dbdffa"/><stop offset="0.244" stop-color="#e5e7fa"/><stop offset="0.283" stop-color="#f0f1fa"/><stop offset="0.327" stop-color="#dcdff3"/><stop offset="0.409" stop-color="#afb6e5"/><stop offset="0.909" stop-color="#afb6e5"/><stop offset="0.958" stop-color="#b9c0e9"/><stop offset="1" stop-color="#c7cdf0"/></linearGradient><linearGradient id="w" x1="0.092" y1="0.004" x2="0.94" y2="0.992" gradientUnits="objectBoundingBox"><stop offset="0" stop-color="#c9cef1"/><stop offset="0.192" stop-color="#dde2fb"/><stop offset="0.24" stop-color="#e7eafb"/><stop offset="0.283" stop-color="#f4f5fb"/><stop offset="0.325" stop-color="#e0e3f4"/><stop offset="0.409" stop-color="#afb6e5"/><stop offset="0.909" stop-color="#afb6e5"/><stop offset="0.955" stop-color="#b9c0ea"/><stop offset="1" stop-color="#c9cef1"/></linearGradient><linearGradient id="x" x1="0.091" y1="0.004" x2="0.941" y2="0.993" gradientUnits="objectBoundingBox"><stop offset="0" stop-color="#cacff2"/><stop offset="0.192" stop-color="#e0e4fd"/><stop offset="0.24" stop-color="#eaecfd"/><stop offset="0.283" stop-color="#f7f8fd"/><stop offset="0.324" stop-color="#e3e5f6"/><stop offset="0.407" stop-color="#b0b7e5"/><stop offset="0.409" stop-color="#afb6e5"/><stop offset="0.909" stop-color="#afb6e5"/><stop offset="0.954" stop-color="#b9c0ea"/><stop offset="1" stop-color="#cacff2"/></linearGradient><linearGradient id="y" x1="0.09" y1="0.004" x2="0.942" y2="0.993" gradientUnits="objectBoundingBox"><stop offset="0" stop-color="#ccd1f2"/><stop offset="0.192" stop-color="#e2e7fe"/><stop offset="0.237" stop-color="#eceffe"/><stop offset="0.283" stop-color="#fbfcfe"/><stop offset="0.322" stop-color="#e7e9f7"/><stop offset="0.401" stop-color="#b4bbe6"/><stop offset="0.409" stop-color="#afb6e5"/><stop offset="0.909" stop-color="#afb6e5"/><stop offset="0.951" stop-color="#b9c0e9"/><stop offset="1" stop-color="#ccd1f2"/></linearGradient><linearGradient id="z" x1="0.09" y1="0.004" x2="0.942" y2="0.993" gradientUnits="objectBoundingBox"><stop offset="0" stop-color="#cdd2f3"/><stop offset="0.192" stop-color="#e5e9ff"/><stop offset="0.236" stop-color="#eff1ff"/><stop offset="0.283" stop-color="#fff"/><stop offset="0.32" stop-color="#ebedf8"/><stop offset="0.396" stop-color="#b8bee8"/><stop offset="0.409" stop-color="#afb6e5"/><stop offset="0.909" stop-color="#afb6e5"/><stop offset="0.95" stop-color="#b9c0ea"/><stop offset="1" stop-color="#cdd2f3"/></linearGradient><linearGradient id="aa" x1="-1.318" y1="0.768" x2="1.886" y2="0.295" xlink:href="#d"/><linearGradient id="ab" x1="-0.133" y1="0.086" x2="1.438" y2="1.114" gradientUnits="objectBoundingBox"><stop offset="0.005" stop-color="#273b98"/><stop offset="0.227" stop-color="#2e2ba2"/><stop offset="0.399" stop-color="#361cac"/><stop offset="0.768" stop-color="#440b88"/><stop offset="1" stop-color="#4e0070"/></linearGradient><linearGradient id="ac" x1="2.581" y1="0.815" x2="-3.49" y2="-0.104" xlink:href="#d"/><linearGradient id="ad" x1="0.075" y1="0.787" x2="0.914" y2="0.226" gradientUnits="objectBoundingBox"><stop offset="0" stop-color="#ced3f4"/><stop offset="0.013" stop-color="#d3d8f6"/><stop offset="0.056" stop-color="#e0e4fc"/><stop offset="0.096" stop-color="#e5e9ff"/><stop offset="0.253" stop-color="#eaedff"/><stop offset="1" stop-color="#fff"/></linearGradient><linearGradient id="ae" x1="1.047" y1="0.637" x2="-0.354" y2="0.454" gradientUnits="objectBoundingBox"><stop offset="0.005" stop-color="#b4f759"/><stop offset="0.049" stop-color="#90ed6e"/><stop offset="0.147" stop-color="#35d5a4"/><stop offset="0.202" stop-color="#00c7c5"/><stop offset="0.408" stop-color="#2d9be0"/><stop offset="0.596" stop-color="#5277f7"/><stop offset="0.662" stop-color="#5a76f6"/><stop offset="0.768" stop-color="#7273f5"/><stop offset="0.902" stop-color="#9970f4"/><stop offset="1" stop-color="#bb6df3"/></linearGradient><linearGradient id="af" x1="1.315" y1="1.547" x2="-0.312" y2="-0.19" xlink:href="#ae"/><linearGradient id="ag" x1="0.134" y1="0.779" x2="0.845" y2="0.17" gradientUnits="objectBoundingBox"><stop offset="0" stop-color="#ced3f4"/><stop offset="0.013" stop-color="#d3d8f6"/><stop offset="0.056" stop-color="#e0e4fc"/><stop offset="0.096" stop-color="#e5e9ff"/><stop offset="0.448" stop-color="#e8ebff"/><stop offset="0.719" stop-color="#f1f3ff"/><stop offset="0.924" stop-color="#fff"/><stop offset="1" stop-color="#f5f7ff"/></linearGradient><linearGradient id="ah" x1="0.292" y1="1.01" x2="0.54" y2="0.425" gradientUnits="objectBoundingBox"><stop offset="0" stop-color="#ced3f4"/><stop offset="0.022" stop-color="#d3d8f6"/><stop offset="0.098" stop-color="#e0e4fc"/><stop offset="0.167" stop-color="#e5e9ff"/><stop offset="0.521" stop-color="#e8ebff"/><stop offset="0.794" stop-color="#f1f3ff"/><stop offset="1" stop-color="#fff"/></linearGradient><linearGradient id="ai" x1="0.984" y1="1.04" x2="-1.063" y2="-1.057" xlink:href="#ae"/><radialGradient id="aj" cx="0.5" cy="0.5" r="0.5" gradientTransform="matrix(0, 1, -1, 0, 40.623, -26.264)" gradientUnits="objectBoundingBox"><stop offset="0" stop-color="#5277f7"/><stop offset="0.002" stop-color="#5176f6"/><stop offset="0.12" stop-color="#3e5bbd"/><stop offset="0.241" stop-color="#2e438b"/><stop offset="0.363" stop-color="#202e60"/><stop offset="0.486" stop-color="#141d3d"/><stop offset="0.611" stop-color="#0b1022"/><stop offset="0.737" stop-color="#05070f"/><stop offset="0.865" stop-color="#010103"/><stop offset="1"/></radialGradient><linearGradient id="ak" x1="0.997" y1="1.068" x2="-0.113" y2="-0.201" gradientUnits="objectBoundingBox"><stop offset="0.005" stop-color="#2be9a3"/><stop offset="0.29" stop-color="#07ccbf"/><stop offset="0.343" stop-color="#00c7c5"/><stop offset="0.436" stop-color="#08beca"/><stop offset="0.586" stop-color="#20a6d9"/><stop offset="0.774" stop-color="#4780f0"/><stop offset="0.817" stop-color="#5277f7"/></linearGradient><linearGradient id="al" x1="1.416" y1="1.388" x2="-0.284" y2="0.167" xlink:href="#ak"/><linearGradient id="am" x1="0.02" y1="0.012" x2="0.999" y2="1.007" gradientUnits="objectBoundingBox"><stop offset="0.005" stop-color="#b4f759"/><stop offset="0.107" stop-color="#90ed6e"/><stop offset="0.333" stop-color="#35d5a4"/><stop offset="0.46" stop-color="#00c7c5"/><stop offset="0.721" stop-color="#2d9be0"/><stop offset="0.96" stop-color="#5277f7"/></linearGradient><linearGradient id="an" x1="1.066" y1="1.031" x2="-0.074" y2="-0.04" xlink:href="#am"/><linearGradient id="ao" x1="-0.312" y1="1.122" x2="1.029" y2="-0.568" gradientUnits="objectBoundingBox"><stop offset="0.005" stop-color="#5277f7"/><stop offset="0.393" stop-color="#756ff4"/><stop offset="0.525" stop-color="#836df3"/><stop offset="0.648" stop-color="#8b6df3"/><stop offset="0.846" stop-color="#a36df3"/><stop offset="1" stop-color="#bb6df3"/></linearGradient><linearGradient id="ap" x1="-0.017" y1="0.916" x2="0.918" y2="0.047" xlink:href="#ab"/><linearGradient id="aq" x1="0.508" y1="1.002" x2="0.493" y2="0.09" xlink:href="#ab"/><linearGradient id="ar" x1="0.448" y1="1.055" x2="0.52" y2="0.205" xlink:href="#ao"/><linearGradient id="as" x1="0.173" y1="0.727" x2="1.151" y2="0.106" gradientUnits="objectBoundingBox"><stop offset="0.096" stop-color="#45108a"/><stop offset="1" stop-color="#7c1dc9"/></linearGradient><linearGradient id="at" x1="1.554" y1="1.771" x2="-0.354" y2="-0.53" xlink:href="#ak"/><linearGradient id="au" x1="-2.256" y1="-0.994" x2="17.615" y2="9.749" xlink:href="#ae"/><linearGradient id="av" x1="2.26" y1="2.499" x2="-0.003" y2="-0.072" xlink:href="#ak"/><linearGradient id="aw" x1="0.05" y1="0.181" x2="1.898" y2="1.514" gradientUnits="objectBoundingBox"><stop offset="0.005" stop-color="#2be9a3"/><stop offset="0.252" stop-color="#07ccbf"/><stop offset="0.298" stop-color="#00c7c5"/><stop offset="0.476" stop-color="#23a4da"/><stop offset="0.682" stop-color="#5277f7"/><stop offset="0.772" stop-color="#5a75f6"/><stop offset="0.918" stop-color="#7270f4"/><stop offset="0.999" stop-color="#836df3"/></linearGradient><linearGradient id="ax" x1="2.435" y1="1.306" x2="-3.15" y2="-1.094" xlink:href="#ae"/><linearGradient id="ay" x1="0.082" y1="0.02" x2="1.141" y2="1.176" gradientUnits="objectBoundingBox"><stop offset="0" stop-color="#836df3"/><stop offset="0.551" stop-color="#5277f7"/><stop offset="1" stop-color="#6cf"/></linearGradient></defs><g transform="translate(-336.488 -71.037)"><path class="a" d="M432.852,140.725a.5.5,0,0,1-.249-.067l-2.594-1.493a.5.5,0,1,1,.5-.867l2.594,1.493a.5.5,0,0,1-.249.934Zm-5.189-2.987a.494.494,0,0,1-.25-.067l-2.594-1.493a.5.5,0,0,1,.5-.867l2.594,1.494a.5.5,0,0,1-.25.933Zm-5.189-2.987a.5.5,0,0,1-.249-.066l-2.594-1.493a.5.5,0,1,1,.5-.867l2.594,1.493a.5.5,0,0,1-.249.933Zm-5.189-2.986a.5.5,0,0,1-.249-.067l-2.6-1.493a.5.5,0,0,1,.5-.867l2.6,1.493a.5.5,0,0,1-.249.934Zm-5.189-2.987a.488.488,0,0,1-.249-.067l-2.594-1.493a.5.5,0,1,1,.5-.866l2.594,1.493a.5.5,0,0,1-.249.933Z"/><path class="a" d="M432.852,171.475a.5.5,0,0,1-.249-.067l-2.594-1.493a.5.5,0,1,1,.5-.867l2.594,1.493a.5.5,0,0,1-.249.934Zm-5.189-2.987a.494.494,0,0,1-.25-.067l-2.594-1.493a.5.5,0,0,1,.5-.867l2.594,1.494a.5.5,0,0,1-.25.933Zm-5.189-2.987a.5.5,0,0,1-.249-.066l-2.594-1.493a.5.5,0,1,1,.5-.867l2.594,1.493a.5.5,0,0,1-.249.933Zm-5.189-2.986a.5.5,0,0,1-.249-.067l-2.6-1.493a.5.5,0,0,1,.5-.867l2.6,1.493a.5.5,0,0,1-.249.934Zm-5.189-2.987a.488.488,0,0,1-.249-.067l-2.594-1.493a.5.5,0,1,1,.5-.866l2.594,1.493a.5.5,0,0,1-.249.933Z"/><g class="b"><path class="c" d="M489.8,389.437l-96.651-55.261c-6.808-3.931-5.954-10.8,1.907-15.335L428.1,299.958c7.861-4.538,19.753-5.031,26.561-1.1l96.651,55.262c6.808,3.93,5.955,10.8-1.907,15.335l-33.038,18.882C508.5,392.875,496.611,393.368,489.8,389.437Z"/><path class="d" d="M489.79,389.144l-96.148-54.971c-6.748-3.9-5.9-10.7,1.89-15.2l32.574-18.614c7.792-4.5,19.58-4.987,26.329-1.091l96.148,54.971c6.748,3.9,5.9,10.7-1.891,15.2l-32.573,18.614C508.327,392.552,496.539,393.04,489.79,389.144Z"/><path class="e" d="M489.777,388.851,394.132,334.17c-6.689-3.861-5.85-10.607,1.874-15.066l32.108-18.346c7.723-4.459,19.407-4.943,26.1-1.082l95.645,54.681c6.689,3.862,5.85,10.608-1.873,15.067l-32.108,18.345C508.15,392.228,496.466,392.713,489.777,388.851Z"/><path class="f" d="M489.764,388.558l-95.142-54.39c-6.63-3.828-5.8-10.513,1.857-14.933l31.643-18.077c7.655-4.419,19.234-4.9,25.864-1.072l95.142,54.39c6.629,3.828,5.8,10.513-1.857,14.933l-31.643,18.077C507.973,391.9,496.393,392.385,489.764,388.558Z"/><path class="g" d="M489.75,388.264l-94.638-54.1c-6.57-3.793-5.746-10.419,1.84-14.8l31.177-17.808c7.587-4.38,19.063-4.855,25.632-1.062L548.4,354.6c6.57,3.793,5.746,10.419-1.84,14.8L515.382,387.2C507.8,391.582,496.32,392.058,489.75,388.264Z"/><path class="h" d="M489.737,387.971,395.6,334.162c-6.511-3.759-5.694-10.324,1.823-14.664l30.712-17.54c7.518-4.34,18.89-4.811,25.4-1.053l94.136,53.809c6.51,3.759,5.694,10.325-1.824,14.665l-30.712,17.539C507.619,391.259,496.247,391.73,489.737,387.971Z"/><path class="i" d="M489.724,387.678l-93.633-53.519c-6.45-3.724-5.641-10.229,1.807-14.53l30.247-17.271c7.449-4.3,18.717-4.767,25.168-1.043l93.632,53.519c6.451,3.724,5.642,10.229-1.807,14.53l-30.247,17.271C507.443,390.935,496.175,391.4,489.724,387.678Z"/><path class="j" d="M489.711,387.385l-93.13-53.228c-6.391-3.69-5.589-10.136,1.791-14.4l29.781-17c7.38-4.261,18.544-4.723,24.935-1.033l93.13,53.228c6.391,3.69,5.589,10.135-1.791,14.4l-29.781,17C507.266,390.612,496.1,391.075,489.711,387.385Z"/><path class="k" d="M489.7,387.091l-92.626-52.937c-6.332-3.656-5.537-10.041,1.774-14.262l29.316-16.734c7.311-4.221,18.371-4.679,24.7-1.024l92.626,52.938c6.332,3.655,5.538,10.041-1.774,14.262L514.4,386.068C507.089,390.289,496.029,390.747,489.7,387.091Z"/><path class="l" d="M489.684,386.8l-92.123-52.647c-6.272-3.621-5.486-9.946,1.757-14.128l28.851-16.465c7.242-4.181,18.2-4.635,24.47-1.014l92.123,52.647c6.273,3.621,5.486,9.947-1.756,14.128l-28.851,16.465C506.912,389.965,495.956,390.419,489.684,386.8Z"/><path class="m" d="M489.671,386.505l-91.62-52.357c-6.213-3.586-5.434-9.852,1.74-13.994l28.386-16.2c7.174-4.141,18.025-4.591,24.238-1l91.62,52.356c6.213,3.587,5.433,9.852-1.74,13.994l-28.386,16.2C506.735,389.642,495.883,390.092,489.671,386.505Z"/><path class="n" d="M489.658,386.212l-91.117-52.066c-6.153-3.553-5.382-9.758,1.723-13.86l27.921-15.928c7.105-4.1,17.853-4.547,24.006-.995l91.116,52.066c6.153,3.553,5.382,9.758-1.723,13.86l-27.921,15.928C506.558,389.319,495.811,389.764,489.658,386.212Z"/><path class="o" d="M489.644,385.919l-90.613-51.776c-6.094-3.518-5.33-9.663,1.707-13.726l27.455-15.659c7.036-4.062,17.68-4.5,23.773-.985l90.614,51.775c6.093,3.519,5.329,9.664-1.707,13.726l-27.455,15.659C506.382,388.995,495.738,389.437,489.644,385.919Z"/><path class="p" d="M489.631,385.625l-90.11-51.485c-6.034-3.484-5.278-9.569,1.69-13.591l26.99-15.391c6.967-4.022,17.507-4.459,23.541-.976l90.11,51.486c6.034,3.483,5.278,9.569-1.69,13.591l-26.99,15.39C506.2,388.672,495.665,389.109,489.631,385.625Z"/><path class="q" d="M489.618,385.332l-89.608-51.2c-5.974-3.449-5.225-9.474,1.674-13.457l26.525-15.122c6.9-3.983,17.334-4.415,23.308-.966l89.608,51.195c5.974,3.449,5.225,9.474-1.674,13.457l-26.524,15.122C506.028,388.349,495.592,388.781,489.618,385.332Z"/><path class="r" d="M489.605,385.039l-89.105-50.9c-5.915-3.415-5.173-9.38,1.657-13.324l26.059-14.853c6.83-3.943,17.162-4.371,23.077-.956l89.1,50.9c5.915,3.415,5.173,9.38-1.657,13.323l-26.059,14.853C505.851,388.026,495.519,388.454,489.605,385.039Z"/><path class="s" d="M489.591,384.746l-88.6-50.614c-5.855-3.381-5.121-9.286,1.64-13.189l25.594-14.585c6.762-3.9,16.989-4.327,22.845-.947l88.6,50.614c5.855,3.381,5.121,9.286-1.64,13.189L512.436,383.8C505.674,387.7,495.447,388.126,489.591,384.746Z"/><path class="t" d="M489.578,384.452l-88.1-50.323c-5.8-3.346-5.069-9.191,1.624-13.055l25.128-14.316c6.693-3.864,16.816-4.283,22.612-.937l88.1,50.323c5.8,3.346,5.069,9.191-1.623,13.055L512.19,383.515C505.5,387.379,495.374,387.8,489.578,384.452Z"/><path class="u" d="M489.565,384.159l-87.6-50.033c-5.736-3.311-5.017-9.1,1.607-12.921l24.663-14.047c6.624-3.824,16.644-4.239,22.38-.927l87.6,50.032c5.736,3.312,5.017,9.1-1.607,12.921l-24.664,14.047C505.321,387.056,495.3,387.471,489.565,384.159Z"/><path class="v" d="M489.552,383.866,402.46,334.124c-5.677-3.278-4.965-9,1.59-12.787l24.2-13.779c6.555-3.784,16.471-4.2,22.147-.918l87.092,49.742c5.677,3.278,4.965,9-1.59,12.787l-24.2,13.779C505.144,386.732,495.228,387.143,489.552,383.866Z"/><path class="w" d="M489.538,383.573,402.95,334.121c-5.617-3.243-4.913-8.908,1.573-12.653l23.733-13.51c6.486-3.745,16.3-4.151,21.915-.908L536.76,356.5c5.617,3.243,4.912,8.908-1.574,12.652l-23.733,13.51C504.967,386.409,495.155,386.816,489.538,383.573Z"/><path class="x" d="M489.525,383.279,403.44,334.118c-5.558-3.209-4.861-8.813,1.556-12.518l23.268-13.242c6.417-3.7,16.125-4.107,21.683-.9l86.085,49.161c5.558,3.208,4.861,8.813-1.557,12.518l-23.267,13.242C504.79,386.086,495.083,386.488,489.525,383.279Z"/></g><path class="y" d="M543.294,302.4h-1.289a9.352,9.352,0,0,0-2.722-2.285l-89.329-51.034c-5.942-3.43-16.32-3-23.181.961l-26.268,14.973a13.781,13.781,0,0,0-4.15,3.5H394.83V328.57h.041c.191,1.991,1.489,3.872,3.97,5.3l89.329,51.034c5.942,3.43,16.32,3,23.181-.961l26.268-14.973c3.257-1.881,5.118-4.219,5.557-6.523h.118Z"/><path class="z" d="M488.17,325.813l-89.329-51.034c-5.942-3.431-5.2-9.423,1.664-13.384l26.268-14.973c6.861-3.961,17.239-4.391,23.181-.961l89.329,51.034c5.942,3.43,5.2,9.422-1.664,13.384l-26.268,14.973C504.49,328.813,494.112,329.243,488.17,325.813Z"/><path class="aa" d="M537.619,308.843l-26.268,14.973c-6.861,3.961-17.239,4.391-23.181.961l-89.329-51.035c-2.384-1.376-3.674-3.167-3.941-5.072-.367,2.469.915,4.88,3.941,6.626l89.329,51.035c5.942,3.43,16.32,3,23.181-.961L537.619,310.4c4.107-2.372,6-5.469,5.6-8.311C542.871,304.466,540.986,306.9,537.619,308.843Z"/><g class="ab"><path class="c" d="M506.608,323.184a14.985,14.985,0,0,1-7.483-1.8l-38.078-22.466-38.078-22.467a7.917,7.917,0,0,1-4.293-6.84c0-3.038,1.884-5.868,5.17-7.764l14.518-13.287a18.426,18.426,0,0,1,9.088-2.31,15,15,0,0,1,7.483,1.8l42.042,23.606,42.041,23.607a7.916,7.916,0,0,1,4.293,6.839c0,3.037-1.884,5.867-5.17,7.764L515.7,320.874A18.426,18.426,0,0,1,506.608,323.184Z"/><path class="ac" d="M423.933,262.094l6.561-5.889c.1-.058,7.771-6.984,7.892-6.978a17.83,17.83,0,0,1,6.064-1.934,21.329,21.329,0,0,1,2.89-.161,15.222,15.222,0,0,1,7.357,1.848l39.439,22.156,2.028,1.139,41.472,23.3a8.82,8.82,0,0,1,3.821,4.189,7.115,7.115,0,0,1,.51,2.48c.064,2.976-1.769,5.781-5.032,7.665l-7.754,3.8c-.167.1-14.317,6.923-14.462,6.839a18.573,18.573,0,0,1-8.94,2.038,15.234,15.234,0,0,1-7.36-1.851l-32.8-19.329-4.789-2.822-37.593-22.152a8.794,8.794,0,0,1-3.873-4.318,7.158,7.158,0,0,1-.461-2.353C418.836,266.784,420.668,263.978,423.933,262.094Z"/><path class="ad" d="M424.02,262.345l6.52-5.734c.2-.117,7.626-6.725,7.867-6.713a18.1,18.1,0,0,1,5.985-1.779,23.243,23.243,0,0,1,2.837-.1,15.486,15.486,0,0,1,7.23,1.893l38.894,21.86,2,1.123,40.9,22.989a9.175,9.175,0,0,1,3.813,4.084,7.153,7.153,0,0,1,.555,2.416c.12,2.915-1.654,5.693-4.894,7.564l-7.653,3.753c-.335.193-14.043,6.689-14.334,6.521-2.334,1.348-5.823,1.766-8.791,1.766a15.52,15.52,0,0,1-7.238-1.9l-32.374-19.053-4.726-2.781-37.107-21.839a9.14,9.14,0,0,1-3.868-4.209,7.188,7.188,0,0,1-.507-2.292C419.005,267,420.776,264.217,424.02,262.345Z"/><path class="ae" d="M424.107,262.6l6.479-5.58c.3-.175,7.481-6.465,7.842-6.447a18.378,18.378,0,0,1,5.906-1.624,25.77,25.77,0,0,1,2.783-.041,15.794,15.794,0,0,1,7.1,1.938l38.349,21.564,1.967,1.106,40.336,22.681a9.582,9.582,0,0,1,3.8,3.979,7.168,7.168,0,0,1,.6,2.352c.18,2.854-1.538,5.606-4.756,7.464l-7.552,3.7c-.5.291-13.769,6.456-14.205,6.2-2.212,1.276-5.832,1.493-8.643,1.493a15.852,15.852,0,0,1-7.116-1.945l-31.948-18.778-4.663-2.74L423.773,276.4a9.548,9.548,0,0,1-3.863-4.1,7.242,7.242,0,0,1-.553-2.231C419.168,267.213,420.884,264.456,424.107,262.6Z"/><path class="af" d="M424.194,262.847l6.437-5.426c.4-.232,7.337-6.2,7.819-6.182a18.756,18.756,0,0,1,5.827-1.468c.786-.086,1.926.018,2.729.018a16.159,16.159,0,0,1,6.976,1.983l37.8,21.269,1.937,1.09L533.491,296.5a10.037,10.037,0,0,1,3.795,3.873,7.223,7.223,0,0,1,.647,2.288c.24,2.794-1.424,5.519-4.619,7.364l-7.451,3.653c-.67.387-13.5,6.222-14.076,5.887-2.089,1.206-5.84,1.222-8.495,1.222A16.226,16.226,0,0,1,496.3,318.8l-31.523-18.5-4.6-2.7-36.135-21.209a10.025,10.025,0,0,1-3.86-3.993,7.324,7.324,0,0,1-.6-2.17C419.332,267.427,420.992,264.7,424.194,262.847Z"/><path class="ag" d="M424.281,263.1l6.4-5.272c.5-.29,7.192-5.945,7.794-5.916a19.122,19.122,0,0,1,5.748-1.313c.74-.072,1.92.078,2.676.078a16.581,16.581,0,0,1,6.849,2.028L491,273.676l1.907,1.074,39.2,22.063a10.593,10.593,0,0,1,3.787,3.768,7.272,7.272,0,0,1,.692,2.224c.3,2.733-1.308,5.432-4.481,7.264l-7.35,3.6c-.837.483-13.222,5.988-13.947,5.569-1.966,1.135-5.849.95-8.348.95a16.69,16.69,0,0,1-6.87-2.039l-31.1-18.228-4.535-2.658L424.31,276.371a10.575,10.575,0,0,1-3.855-3.885,7.417,7.417,0,0,1-.644-2.11C419.495,267.641,421.1,264.934,424.281,263.1Z"/><path class="ah" d="M424.368,263.349l6.355-5.118c.6-.348,7.047-5.685,7.77-5.65a19.481,19.481,0,0,1,5.668-1.158c.695-.059,1.914.138,2.622.138a17.077,17.077,0,0,1,6.723,2.073l36.714,20.677,1.878,1.057,38.629,21.756a11.207,11.207,0,0,1,3.779,3.661,7.432,7.432,0,0,1,.738,2.16c.362,2.673-1.194,5.346-4.344,7.165l-7.249,3.552c-1.005.581-12.948,5.755-13.819,5.253-1.843,1.064-5.856.677-8.2.677a17.2,17.2,0,0,1-6.747-2.086l-30.673-17.952-4.472-2.618-35.163-20.58a11.2,11.2,0,0,1-3.85-3.777,7.564,7.564,0,0,1-.69-2.049C419.658,267.855,421.208,265.173,424.368,263.349Z"/><path class="ai" d="M424.455,263.6l6.313-4.964c.7-.406,6.9-5.425,7.746-5.384,1.761-.666,3.747-.576,5.589-1a15.33,15.33,0,0,1,2.569.2,17.662,17.662,0,0,1,6.6,2.117l36.169,20.382,1.848,1.041,38.06,21.447a11.944,11.944,0,0,1,3.77,3.556,7.506,7.506,0,0,1,.784,2.1c.424,2.613-1.078,5.258-4.206,7.064l-7.148,3.5c-1.173.677-12.674,5.521-13.69,4.935-1.72.993-5.865.406-8.051.406a17.823,17.823,0,0,1-6.625-2.134l-30.247-17.677-4.408-2.576L424.846,276.34A11.959,11.959,0,0,1,421,272.673a7.742,7.742,0,0,1-.735-1.989C419.82,268.068,421.316,265.411,424.455,263.6Z"/><path class="aj" d="M424.542,263.851l6.272-4.81c.8-.464,6.757-5.165,7.721-5.118,1.756-.612,3.72-.407,5.511-.847a15.068,15.068,0,0,1,2.514.257c1.765,0,5.2,1.431,6.47,2.162l35.624,20.086,1.818,1.025,37.491,21.138a12.805,12.805,0,0,1,3.762,3.451,7.639,7.639,0,0,1,.829,2.032c.487,2.552-.962,5.171-4.067,6.964l-7.048,3.453c-1.34.774-12.4,5.288-13.561,4.617-1.6.923-5.873.134-7.9.134-1.766,0-5.237-1.45-6.5-2.181l-29.821-17.4-4.345-2.536-34.192-19.952a12.842,12.842,0,0,1-3.841-3.559,7.966,7.966,0,0,1-.781-1.928C419.982,268.282,421.424,265.65,424.542,263.851Z"/><path class="ak" d="M424.628,264.1l6.232-4.654c.905-.523,6.612-4.906,7.7-4.853,1.75-.559,3.691-.238,5.431-.692a15.071,15.071,0,0,1,2.461.317c1.629,0,5.174,1.532,6.342,2.207l35.08,19.79,1.788,1.008,36.922,20.83a13.88,13.88,0,0,1,3.754,3.345,7.946,7.946,0,0,1,.875,1.968c.548,2.493-.848,5.084-3.93,6.864l-6.947,3.4c-1.508.871-12.126,5.055-13.432,4.3-1.475.851-5.881-.139-7.756-.139-1.629,0-5.211-1.553-6.379-2.227l-29.4-17.127-4.282-2.494L425.382,276.31a13.9,13.9,0,0,1-3.836-3.451,8.3,8.3,0,0,1-.827-1.867C420.144,268.495,421.531,265.889,424.628,264.1Z"/><path class="al" d="M424.715,264.352l6.19-4.5c1.006-.581,6.468-4.646,7.673-4.587,1.745-.506,3.662-.069,5.352-.537a15.2,15.2,0,0,1,2.407.377c1.494,0,5.146,1.633,6.216,2.251l34.535,19.5,1.758.992L525.2,298.364a15.139,15.139,0,0,1,3.744,3.24,8.162,8.162,0,0,1,.921,1.9c.612,2.432-.732,5-3.792,6.764l-6.846,3.353c-1.675.967-11.853,4.821-13.3,3.983-1.351.78-5.889-.41-7.607-.41-1.494,0-5.186-1.657-6.257-2.275l-28.97-16.851-4.218-2.454L425.65,276.3a15.2,15.2,0,0,1-3.832-3.343,8.668,8.668,0,0,1-.872-1.806C420.3,268.709,421.639,266.128,424.715,264.352Z"/><path class="am" d="M424.8,264.6l6.149-4.346c1.107-.639,6.323-4.386,7.649-4.322,1.739-.452,3.631.1,5.273-.381.446-.131,1.881.436,2.353.436,1.358,0,5.116,1.735,6.089,2.3l33.99,19.2,1.728.976,35.785,20.213a16.7,16.7,0,0,1,3.736,3.133,8.571,8.571,0,0,1,.966,1.84c.676,2.372-.617,4.911-3.654,6.664l-6.745,3.3c-1.843,1.064-11.579,4.587-13.175,3.666-1.229.709-5.9-.683-7.459-.683-1.358,0-5.161-1.76-6.134-2.322L462.807,297.7l-4.154-2.412L425.918,276.28a16.8,16.8,0,0,1-3.827-3.235,9.221,9.221,0,0,1-.918-1.745C420.465,268.922,421.747,266.367,424.8,264.6Z"/><path class="an" d="M424.889,264.854,431,260.662c1.207-.7,6.178-4.126,7.624-4.056,1.734-.4,3.6.271,5.194-.226.4-.124,1.875.5,2.3.5,1.222,0,5.086,1.836,5.962,2.341l33.445,18.9,1.7.96,35.216,19.9c.8.46,3.448,2.29,3.728,3.028a4.981,4.981,0,0,1,1.012,1.776c.739,2.312-.5,4.823-3.517,6.564l-6.644,3.253c-2.01,1.161-11.305,4.354-13.046,3.349-1.106.638-5.906-.955-7.311-.955-1.222,0-5.136-1.863-6.012-2.369l-28.12-16.3-4.09-2.372-32.25-18.694c-.816-.472-3.551-2.365-3.822-3.127a4.977,4.977,0,0,1-.964-1.684C420.624,269.136,421.855,266.606,424.889,264.854Z"/><path class="ao" d="M424.976,265.105l6.066-4.038c1.308-.755,6.034-3.866,7.6-3.79,1.728-.345,3.566.442,5.115-.071.353-.116,1.868.556,2.246.556,1.086,0,5.057,1.936,5.836,2.386l32.9,18.607,1.669.944,34.647,19.6c.708.409,3.471,2.266,3.719,2.923a4.863,4.863,0,0,1,1.058,1.712c.8,2.251-.387,4.736-3.379,6.463l-6.543,3.2c-2.178,1.258-11.031,4.12-12.917,3.031-.983.568-5.914-1.226-7.164-1.226-1.086,0-5.11-1.967-5.889-2.416L462.245,296.96l-4.027-2.331-31.764-18.38c-.726-.419-3.576-2.341-3.818-3.018a4.906,4.906,0,0,1-1.009-1.623C420.783,269.35,421.963,266.845,424.976,265.105Z"/><path class="ap" d="M425.063,265.356l6.025-3.884c1.408-.813,5.889-3.606,7.576-3.524a13.085,13.085,0,0,1,5.035.085c.322-.049,1.862.615,2.193.615.95,0,5.027,2.037,5.709,2.431l32.354,18.311,1.639.928,34.078,19.287c.62.358,3.494,2.243,3.711,2.817a4.811,4.811,0,0,1,1.1,1.648c.869,2.191-.272,4.649-3.242,6.364l-6.442,3.154c-2.345,1.354-10.757,3.886-12.789,2.714-.86.5-5.922-1.5-7.015-1.5-.95,0-5.085-2.07-5.766-2.463l-27.269-15.751L458,294.3l-31.278-18.066c-.635-.367-3.6-2.317-3.813-2.91a4.81,4.81,0,0,1-1.055-1.563C420.942,269.564,422.071,267.083,425.063,265.356Z"/><path class="aq" d="M425.15,265.607l5.984-3.73c1.509-.871,5.744-3.346,7.551-3.258a12.659,12.659,0,0,1,4.957.24c.275-.042,1.855.675,2.138.675.815,0,5,2.138,5.582,2.475l31.81,18.016,1.609.911,33.509,18.979c.531.307,3.517,2.22,3.7,2.712a4.755,4.755,0,0,1,1.149,1.584c.935,2.13-.156,4.562-3.1,6.264l-6.342,3.1c-2.513,1.451-10.483,3.654-12.66,2.4-.737.426-5.93-1.771-6.867-1.771-.815,0-5.06-2.173-5.644-2.51l-26.843-15.475-3.9-2.249-30.792-17.751c-.545-.314-3.628-2.294-3.809-2.8a4.751,4.751,0,0,1-1.1-1.5C421.1,269.779,422.179,267.322,425.15,265.607Z"/><path class="ar" d="M425.237,265.858l5.942-3.575c1.61-.93,5.6-3.087,7.527-2.993a12.22,12.22,0,0,1,4.878.395c.23-.035,1.849.735,2.085.735.679,0,4.969,2.239,5.455,2.52l31.265,17.72,1.579.895,32.94,18.67c.443.256,3.539,2.2,3.694,2.606a4.709,4.709,0,0,1,1.2,1.52c1,2.069-.041,4.476-2.965,6.164l-6.241,3.054c-2.68,1.548-10.21,3.42-12.531,2.079-.615.355-5.938-2.042-6.719-2.042-.679,0-5.035-2.277-5.521-2.558l-26.418-15.2-3.837-2.207L427.259,276.2c-.454-.262-3.654-2.27-3.8-2.693a4.746,4.746,0,0,1-1.147-1.442C421.256,269.994,422.287,267.561,425.237,265.858Z"/><path class="as" d="M425.324,266.109l5.9-3.421c1.71-.988,5.455-2.827,7.5-2.727a11.776,11.776,0,0,1,4.8.55c.184-.028,1.843.8,2.031.8a43.234,43.234,0,0,1,5.329,2.565l30.72,17.424,1.549.879,32.372,18.362a28.549,28.549,0,0,1,3.685,2.5,4.687,4.687,0,0,1,1.241,1.456c1.069,2.006.074,4.388-2.828,6.064l-6.14,3c-2.848,1.644-9.936,3.186-12.4,1.762-.492.283-5.947-2.315-6.572-2.315a44.615,44.615,0,0,1-5.4-2.6L461.12,295.478l-3.773-2.167-29.82-17.122a29.134,29.134,0,0,1-3.8-2.585,4.722,4.722,0,0,1-1.192-1.381C421.412,270.209,422.395,267.8,425.324,266.109Z"/><path class="at" d="M425.411,266.36l5.86-3.267c1.81-1.046,5.309-2.566,7.478-2.461a11.332,11.332,0,0,1,4.719.705c.138-.021,1.836.855,1.978.855a56.005,56.005,0,0,1,5.2,2.609l30.175,17.129,1.519.862,31.8,18.054a37.389,37.389,0,0,1,3.677,2.395,4.659,4.659,0,0,1,1.286,1.392c1.137,1.943.189,4.3-2.69,5.963l-6.039,2.954c-3.016,1.742-9.662,2.953-12.274,1.445-.368.213-5.954-2.587-6.423-2.587a57.638,57.638,0,0,1-5.276-2.651l-25.567-14.65-3.709-2.125L427.8,276.174A38.087,38.087,0,0,1,424,273.7a4.706,4.706,0,0,1-1.238-1.32C421.568,270.425,422.5,268.039,425.411,266.36Z"/><path class="au" d="M425.5,266.611l5.818-3.113a16.075,16.075,0,0,1,7.455-2.2,10.905,10.905,0,0,1,4.64.861c.092-.014,1.829.914,1.924.914.271,0,4.88,2.542,5.075,2.655l29.629,16.833,1.49.846,31.234,17.745c.177.1,3.606,2.125,3.669,2.289a4.692,4.692,0,0,1,1.331,1.328c1.206,1.881.3,4.214-2.552,5.864l-5.938,2.9c-3.183,1.838-9.388,2.719-12.145,1.127-.246.142-5.963-2.858-6.275-2.858-.272,0-4.959-2.587-5.153-2.7l-25.142-14.374-3.646-2.085-28.849-16.494c-.182-.1-3.73-2.2-3.79-2.368a4.746,4.746,0,0,1-1.284-1.259C421.723,270.642,422.61,268.278,425.5,266.611Z"/><path class="av" d="M425.584,266.862l5.778-2.959a14.942,14.942,0,0,1,7.43-1.93,10.494,10.494,0,0,1,4.561,1.016c.046-.007,1.823.974,1.87.974.136,0,4.851,2.643,4.949,2.7L479.256,283.2l1.46.83,30.665,17.436c.088.051,3.629,2.1,3.66,2.184a4.708,4.708,0,0,1,1.378,1.264c1.274,1.816.419,4.127-2.415,5.763l-5.837,2.855c-3.351,1.934-9.114,2.485-12.016.81-.123.071-5.971-3.131-6.127-3.131-.136,0-4.933-2.69-5.031-2.746l-24.716-14.1-3.582-2.043-28.364-16.18c-.091-.052-3.756-2.175-3.786-2.26a4.792,4.792,0,0,1-1.329-1.2C421.878,270.86,422.718,268.517,425.584,266.862Z"/><path class="aw" d="M495.174,314.015,460,294l-35.178-20.02c-3.047-1.759-2.665-4.832.853-6.863l5.737-2.8c3.518-2.031,8.84-2.252,11.887-.493l35.178,20.02,35.178,20.019c3.047,1.76,2.665,4.832-.854,6.864l-5.736,2.8C503.543,315.554,498.221,315.774,495.174,314.015Z"/></g><path class="ax" d="M498.222,309.433l-62.173-35.9c-7.013-4.049-12.7-14.912-12.7-24.263V83.7c0-4.756-3.909-5.807-1.541-7.515.09-.065,9.488-4.279,9.591-4.318a9.165,9.165,0,0,1,8.586.5l62.172,35.895c7.013,4.049,12.7,14.911,12.7,24.262V298.1c0,4.968-1.6,8.51-4.161,10.131-.152.1-10.668,4.958-10.837,5.014C497.593,314,501.288,311.2,498.222,309.433Z"/><path class="ay" d="M498.222,309.433l-62.173-35.9c-7.013-4.049-12.7-14.912-12.7-24.263V83.7c0-4.756-3.909-5.807-1.541-7.515.09-.065,9.335-4.222,9.437-4.262a9.17,9.17,0,0,1,8.587.5l62.172,35.895c7.013,4.049,12.7,14.911,12.7,24.262V298.157c0,4.968-1.6,8.51-4.161,10.131-.152.1-10.515,4.9-10.684,4.957C497.593,314,501.288,311.2,498.222,309.433Z"/><path class="az" d="M498.222,309.433l-62.173-35.9c-7.013-4.049-12.7-14.912-12.7-24.263V83.7c0-4.756-3.909-5.807-1.541-7.515.09-.065,9.181-4.165,9.284-4.205a9.17,9.17,0,0,1,8.586.5l62.173,35.9c7.013,4.049,12.7,14.911,12.7,24.262V298.214c0,4.968-1.605,8.51-4.162,10.131-.151.1-10.361,4.844-10.53,4.9C497.593,314,501.288,311.2,498.222,309.433Z"/><path class="ba" d="M498.222,309.433l-62.173-35.9c-7.013-4.049-12.7-14.912-12.7-24.263V83.7c0-4.756-3.909-5.807-1.541-7.515.09-.065,9.028-4.109,9.131-4.148a9.17,9.17,0,0,1,8.586.5L501.7,108.435c7.013,4.049,12.7,14.912,12.7,24.263V298.27c0,4.969-1.6,8.511-4.162,10.132-.151.1-10.208,4.787-10.377,4.843C497.593,314,501.288,311.2,498.222,309.433Z"/><path class="bb" d="M498.222,309.433l-62.173-35.9c-7.013-4.049-12.7-14.912-12.7-24.263V83.7c0-4.756-3.909-5.807-1.541-7.515.09-.065,8.875-4.052,8.978-4.091a9.165,9.165,0,0,1,8.586.5l62.172,35.895c7.013,4.049,12.7,14.912,12.7,24.263V298.327c0,4.969-1.605,8.51-4.161,10.132-.152.1-10.055,4.73-10.224,4.786C497.593,314,501.288,311.2,498.222,309.433Z"/><path class="bc" d="M498.222,309.433l-62.173-35.9c-7.013-4.049-12.7-14.912-12.7-24.263V83.7c0-4.756-3.909-5.807-1.541-7.515.09-.065,8.722-4,8.824-4.034a9.167,9.167,0,0,1,8.587.5l62.172,35.9c7.013,4.049,12.7,14.912,12.7,24.262V298.384c0,4.968-1.6,8.51-4.161,10.132-.152.1-9.9,4.673-10.071,4.729C497.593,314,501.288,311.2,498.222,309.433Z"/><path class="bd" d="M498.222,309.433l-62.173-35.9c-7.013-4.049-12.7-14.912-12.7-24.263V83.7c0-4.756-3.909-5.807-1.541-7.515.09-.065,8.568-3.938,8.671-3.978a9.168,9.168,0,0,1,8.586.5l62.173,35.9c7.013,4.049,12.7,14.911,12.7,24.262V298.441c0,4.968-1.6,8.51-4.162,10.131-.151.1-9.748,4.617-9.917,4.673C497.593,314,501.288,311.2,498.222,309.433Z"/><path class="be" d="M498.222,309.433l-62.173-35.9c-7.013-4.049-12.7-14.912-12.7-24.263V83.7c0-4.756-3.909-5.807-1.541-7.515.09-.065,8.415-3.881,8.518-3.921a9.17,9.17,0,0,1,8.586.5l62.172,35.9c7.013,4.049,12.7,14.911,12.7,24.262V298.5c0,4.968-1.6,8.51-4.162,10.131-.151.1-9.595,4.56-9.764,4.616C497.593,314,501.288,311.2,498.222,309.433Z"/><path class="bf" d="M498.222,309.433l-62.173-35.9c-7.013-4.049-12.7-14.912-12.7-24.263V83.7c0-4.756-3.909-5.807-1.541-7.515.09-.065,8.262-3.824,8.365-3.864a9.17,9.17,0,0,1,8.586.5l62.172,35.9c7.013,4.049,12.7,14.912,12.7,24.263V298.554c0,4.969-1.6,8.511-4.161,10.132-.152.1-9.442,4.5-9.611,4.559C497.593,314,501.288,311.2,498.222,309.433Z"/><path class="bg" d="M498.222,309.433l-62.173-35.9c-7.013-4.049-12.7-14.912-12.7-24.263V83.7c0-4.756-3.909-5.807-1.541-7.515.09-.065,8.109-3.768,8.211-3.807a9.172,9.172,0,0,1,8.587.5l62.172,35.9c7.013,4.049,12.7,14.912,12.7,24.263V298.611c0,4.969-1.605,8.511-4.161,10.132-.152.1-9.289,4.446-9.458,4.5C497.593,314,501.288,311.2,498.222,309.433Z"/><path class="bh" d="M498.222,309.433l-62.173-35.9c-7.013-4.049-12.7-14.912-12.7-24.263V83.7c0-4.756-3.909-5.807-1.541-7.515.09-.065,7.955-3.711,8.058-3.75a9.164,9.164,0,0,1,8.586.5l62.173,35.895c7.013,4.049,12.7,14.912,12.7,24.262V298.668c0,4.968-1.605,8.51-4.162,10.132-.151.1-9.135,4.389-9.3,4.445C497.593,314,501.288,311.2,498.222,309.433Z"/><path class="bi" d="M498.222,309.433l-62.173-35.9c-7.013-4.049-12.7-14.912-12.7-24.263V83.7c0-4.756-3.909-5.807-1.541-7.515.09-.065,7.8-3.654,7.9-3.693a9.165,9.165,0,0,1,8.586.5l62.172,35.895c7.013,4.049,12.7,14.911,12.7,24.262V298.725c0,4.968-1.605,8.51-4.162,10.131-.151.1-8.982,4.333-9.151,4.389C497.593,314,501.288,311.2,498.222,309.433Z"/><path class="bj" d="M498.222,309.433l-62.173-35.9c-7.013-4.049-12.7-14.912-12.7-24.263V83.7c0-4.756-3.909-5.807-1.541-7.515.09-.065,7.649-3.6,7.752-3.637a9.168,9.168,0,0,1,8.586.5l62.172,35.895c7.013,4.049,12.7,14.911,12.7,24.262V298.782c0,4.968-1.605,8.51-4.161,10.131-.152.1-8.829,4.276-9,4.332C497.593,314,501.288,311.2,498.222,309.433Z"/><path class="bk" d="M498.222,309.433l-62.173-35.9c-7.013-4.049-12.7-14.912-12.7-24.263V83.7c0-4.756-3.909-5.807-1.541-7.515.09-.065,7.5-3.54,7.6-3.58a9.172,9.172,0,0,1,8.587.5L500.167,109c7.013,4.049,12.7,14.912,12.7,24.263V298.838c0,4.969-1.6,8.511-4.161,10.132-.152.1-8.676,4.219-8.845,4.275C497.593,314,501.288,311.2,498.222,309.433Z"/><path class="bl" d="M498.222,309.433l-62.173-35.9c-7.013-4.049-12.7-14.912-12.7-24.263V83.7c0-4.756-3.909-5.807-1.541-7.515.09-.065,7.342-3.484,7.445-3.523a9.17,9.17,0,0,1,8.586.5l62.173,35.895c7.013,4.049,12.7,14.912,12.7,24.263V298.895c0,4.969-1.6,8.511-4.162,10.132-.151.1-8.522,4.162-8.691,4.218C497.593,314,501.288,311.2,498.222,309.433Z"/><path class="bm" d="M498.222,309.433l-62.173-35.9c-7.013-4.049-12.7-14.912-12.7-24.263V83.7c0-4.756-3.909-5.807-1.541-7.515.09-.065,7.189-3.427,7.292-3.466a9.165,9.165,0,0,1,8.586.5l62.172,35.895c7.013,4.049,12.7,14.912,12.7,24.262V298.952c0,4.969-1.605,8.51-4.162,10.132-.151.1-8.369,4.1-8.538,4.161C497.593,314,501.288,311.2,498.222,309.433Z"/><path class="bn" d="M498.222,309.433l-62.173-35.9c-7.013-4.049-12.7-14.912-12.7-24.263V83.7c0-4.756-3.909-5.807-1.541-7.515.09-.065,7.036-3.37,7.139-3.409a9.165,9.165,0,0,1,8.586.5l62.172,35.9c7.013,4.049,12.7,14.912,12.7,24.262V299.009c0,4.968-1.605,8.51-4.161,10.131-.152.1-8.216,4.049-8.385,4.1C497.593,314,501.288,311.2,498.222,309.433Z"/><path class="bo" d="M498.222,309.433l-62.173-35.9c-7.013-4.049-12.7-14.912-12.7-24.263V83.7c0-4.756-3.909-5.807-1.541-7.515.09-.065,6.882-3.313,6.985-3.353a9.17,9.17,0,0,1,8.587.5l62.172,35.9c7.013,4.049,12.7,14.911,12.7,24.262V299.066c0,4.968-1.605,8.51-4.161,10.131-.152.1-8.063,3.992-8.232,4.048C497.593,314,501.288,311.2,498.222,309.433Z"/><path class="bp" d="M498.222,309.433l-62.173-35.9c-7.013-4.049-12.7-14.912-12.7-24.263V83.7c0-4.756-3.909-5.807-1.541-7.515.09-.065,6.729-3.256,6.832-3.3a9.17,9.17,0,0,1,8.586.5l62.173,35.9c7.013,4.049,12.7,14.912,12.7,24.263V299.122c0,4.969-1.605,8.511-4.162,10.132-.151.1-7.909,3.935-8.078,3.991C497.593,314,501.288,311.2,498.222,309.433Z"/><path class="bq" d="M498.222,309.433l-62.173-35.9c-7.013-4.049-12.7-14.912-12.7-24.263V83.7c0-4.756-3.909-5.807-1.541-7.515.09-.065,6.576-3.2,6.679-3.239a9.17,9.17,0,0,1,8.586.5l62.172,35.9c7.013,4.049,12.7,14.912,12.7,24.263V299.179c0,4.969-1.605,8.511-4.162,10.132-.151.1-7.756,3.878-7.925,3.934C497.593,314,501.288,311.2,498.222,309.433Z"/><path class="br" d="M498.222,309.433l-62.173-35.9c-7.013-4.049-12.7-14.912-12.7-24.263V83.7c0-4.756-3.909-5.807-1.541-7.515.09-.065,6.423-3.143,6.526-3.182a9.165,9.165,0,0,1,8.586.5l62.172,35.9c7.013,4.049,12.7,14.912,12.7,24.262V299.236c0,4.969-1.6,8.51-4.161,10.132-.152.1-7.6,3.821-7.772,3.877C497.593,314,501.288,311.2,498.222,309.433Z"/><path class="bs" d="M498.222,309.433l-62.173-35.9c-7.013-4.049-12.7-14.912-12.7-24.263V83.7c0-4.756-3.909-5.807-1.541-7.515.09-.065,6.269-3.086,6.372-3.125a9.167,9.167,0,0,1,8.587.5l62.172,35.895c7.013,4.049,12.7,14.912,12.7,24.262V299.293c0,4.968-1.605,8.51-4.161,10.131-.152.1-7.45,3.765-7.619,3.821C497.593,314,501.288,311.2,498.222,309.433Z"/><path class="bt" d="M492.286,312.238l-62.172-35.9c-7.013-4.049-12.7-14.911-12.7-24.262V86.508c0-9.35,5.685-13.648,12.7-9.6l62.172,35.9c7.013,4.049,12.7,14.912,12.7,24.262V302.639C504.984,311.99,499.3,316.288,492.286,312.238Z"/><path class="bu" d="M497.327,312.505a8.924,8.924,0,0,1-4.411-1.356l-62.174-35.895c-6.654-3.842-12.069-14.237-12.069-23.172V86.508c0-5.992,2.512-9.865,6.4-9.865A8.936,8.936,0,0,1,429.485,78l62.173,35.9c6.654,3.842,12.069,14.237,12.069,23.172V302.639C503.727,308.632,501.215,312.505,497.327,312.505Z"/><path class="ax" d="M421.621,254.191V89.254c0-6.861,4.171-10.015,9.317-7.044l60.523,34.943c5.146,2.971,9.318,10.942,9.318,17.8V299.893c0,6.861-4.172,10.015-9.318,7.044l-60.523-34.943C425.792,269.023,421.621,261.052,421.621,254.191Z"/><path class="bv" d="M431.639,84.034c-4.85-2.8-8.781-.558-8.781,5.007V255.832c0,5.566,3.931,12.347,8.781,15.147l59.122,34.134c4.85,2.8,8.781.559,8.781-5.007V133.315c0-5.565-3.931-12.347-8.781-15.147Z"/><path class="bw" d="M509.755,191.481h0c-1.784,1.03-3.23-.063-3.23-2.441V175.566a7.735,7.735,0,0,1,3.23-6.171h0c1.784-1.03,3.23.063,3.23,2.441V185.31A7.734,7.734,0,0,1,509.755,191.481Z"/><path class="bx" d="M427.034,96.18c0,1.205-.062,98.032-.072,113.915,0,8.635.005,23.251.005,23.365,0,5.8-3.722,12.741-8.572,16.386,8.313,4.8,27.465,15.831,41.655,24.02H472.5c0,5.508,0,10.055,0,10.12a6.977,6.977,0,0,0,5.438,7.032l.042.007a5.862,5.862,0,0,0,.687.082c.152.008.307.009.463.005.108,0,.215,0,.325-.008a9.576,9.576,0,0,0,4.043-1.359,17.835,17.835,0,0,0,4.276-3.571A14.4,14.4,0,0,0,491.4,280.8a19.613,19.613,0,0,0,2.2-8.465c0-.051.049-1.037.049-3.8,0-.666.047-133.5.047-134.167Z"/><path class="by" d="M427.034,116.013,493.681,154.2c0-16.04.007-23.671.007-20.663L427.034,95.347c0-1.962-.062,94.865-.072,110.748,0,4.13,0,9.627,0,14.252C426.981,195.088,427.034,112.625,427.034,116.013Z"/><path class="bz" d="M450.725,275.908a11.065,11.065,0,0,0,2.327,1.731v-.419C451.625,276.406,450.725,275.9,450.725,275.908Z"/><path class="bt" d="M484.683,176.141l-50.6-29.679c0,4.788,0,8.576-.005,11.571l50.605,29.208Z"/><path class="ax" d="M484.683,185.69l-49.938-28.824c0-2.661,0-5.954,0-10.014l-.666-.39c0,4.788,0,8.576-.005,11.571l50.605,29.208Z"/><path class="bt" d="M484.683,206.891l-50.6-29.679c0,4.788,0,8.576-.005,11.571l50.605,29.208Z"/><path class="ax" d="M484.683,216.44l-49.938-28.824c0-2.661,0-5.954,0-10.014l-.666-.39c0,4.788,0,8.576-.005,11.571l50.605,29.208Z"/><path class="bt" d="M484.683,265.516l-50.6-29.68c0,4.789,0,8.577-.005,11.572l50.605,29.208Z"/><path class="ax" d="M484.683,275.065l-49.938-28.824c0-2.661,0-5.954,0-10.014l-.666-.391c0,4.789,0,8.577-.005,11.572l50.605,29.208Z"/><path class="bt" d="M449.058,216.766l-14.975-9.054c0,4.788,0,8.576-.005,11.571l14.98,8.583Z"/><path class="ax" d="M449.058,226.315l-14.313-8.2c0-2.661,0-5.954,0-10.014l-.666-.39c0,4.788,0,8.576-.005,11.571l14.98,8.583Z"/><path class="bt" d="M466.808,227.141l-14.728-8.964c0,4.788,0,8.577,0,11.571l14.733,8.493Z"/><path class="ax" d="M466.808,236.69l-14.066-8.108c0-2.662,0-5.955,0-10.014l-.666-.391c0,4.788,0,8.577,0,11.571l14.733,8.493Z"/><path class="ca" d="M434.07,142.112l0,0C434.067,142.609,434.069,142.544,434.07,142.112Zm27.008,12.944-27-15.525c0,1.152,0,2.1,0,2.581l27.005,15.526C461.076,158.205,461.077,156.679,461.078,155.056Zm9.316,36.228-36.32-21c0,1.152,0,2.1,0,2.581l36.321,21C470.392,194.434,470.393,192.908,470.394,191.284ZM434.07,172.862l0,0C434.067,173.359,434.069,173.294,434.07,172.862Zm0,30.5,0,0C434.067,203.859,434.069,203.794,434.07,203.362Zm0,0,15.627,8.866c0,.568,0-.958,0-2.582l-15.626-8.865C434.073,201.933,434.072,202.878,434.07,203.362Zm18,10.465,0,0C452.065,214.325,452.066,214.259,452.067,213.827Zm0,0,15.38,8.776c0,.568,0-.958,0-2.582l-15.378-8.775C452.07,212.4,452.069,213.343,452.067,213.827Zm17.755,7.919c0,1.152,0,2.1-.005,2.581l15.255,8.526c0,.568,0-.958,0-2.582Zm-.005,2.581,0,0C469.815,224.825,469.816,224.76,469.817,224.327Z"/><path class="bt" d="M484.433,237.391l-14.6-8.714c0,4.788,0,8.577,0,11.571l14.608,8.243Z"/><path class="ax" d="M484.433,246.94l-13.941-7.858c0-2.662,0-5.954,0-10.015l-.666-.39c0,4.788,0,8.577,0,11.571l14.608,8.243Z"/><path class="ax" d="M445.482,215.6l-2.232,2.04,4.463,2.577Z"/><path class="ax" d="M445.482,223.478l2.232-2.04-4.463-2.577Z"/><path class="ax" d="M463.357,225.978l-2.232,2.04,4.463,2.577Z"/><path class="ax" d="M463.357,233.853l2.232-2.04-4.463-2.577Z"/><path class="ax" d="M480.607,235.853l-2.232,2.04,4.463,2.577Z"/><path class="ax" d="M480.607,243.728l2.232-2.04-4.463-2.577Z"/><g class="cb"><path class="c" d="M427.043,224.643c-7.893-4.557-14.291-.909-14.291,8.148v6.167c0,9.057,6.4,20.093,14.291,24.65l49.1,26.925c7.893,4.557,3.751-5.258,3.751-14.315V270.05c0-9.056-9.561-19.592-17.453-24.149Z"/><path class="cc" d="M426.87,224.9c-7.883-4.551-14.273-.908-14.273,8.137V238.6c0,9.045,6.39,20.068,14.273,24.619l47.619,26.274c7.882,4.551,4.691-4.7,4.691-13.744v-5.565c0-9.045-9.266-19.612-17.148-24.163Z"/><path class="cd" d="M426.7,225.155c-7.873-4.545-14.255-.907-14.255,8.127v4.962c0,9.034,6.382,20.042,14.255,24.587l46.139,25.624c7.873,4.546,5.631-4.139,5.631-13.173V270.32c0-9.034-8.97-19.632-16.843-24.178Z"/><path class="ce" d="M426.524,225.411c-7.863-4.54-14.237-.9-14.237,8.117v4.359c0,9.022,6.374,20.017,14.237,24.556l44.659,24.973c7.863,4.54,6.572-3.58,6.572-12.6v-4.359c0-9.022-8.675-19.653-16.538-24.192Z"/><path class="cf" d="M426.351,225.667c-7.852-4.534-14.219-.9-14.219,8.107v3.756c0,9.011,6.367,19.991,14.219,24.525l43.179,24.322c7.853,4.534,7.512-3.02,7.512-12.031V270.59c0-9.011-8.379-19.673-16.232-24.207Z"/><path class="cg" d="M426.179,225.923c-7.843-4.528-14.2-.9-14.2,8.1v3.153c0,9,6.358,19.966,14.2,24.494l41.7,23.671c7.843,4.529,8.451-2.46,8.451-11.46v-3.153c0-9-8.083-19.693-15.926-24.221Z"/><path class="ch" d="M426.006,226.179c-7.833-4.522-14.183-.9-14.183,8.087v2.55c0,8.988,6.35,19.941,14.183,24.463l40.219,23.02c7.833,4.523,9.392-1.9,9.392-10.889v-2.55c0-8.988-7.788-19.714-15.621-24.236Z"/><path class="ci" d="M425.833,226.436c-7.823-4.517-14.165-.9-14.165,8.076v1.947c0,8.976,6.342,19.915,14.165,24.432l38.739,22.37c7.823,4.516,10.332-1.342,10.332-10.319v-1.947c0-8.977-7.492-19.734-15.315-24.25Z"/><path class="cj" d="M425.66,226.692c-7.813-4.511-14.147-.9-14.147,8.065V236.1c0,8.966,6.334,19.891,14.147,24.4l37.259,21.719c7.813,4.511,11.273-.782,11.273-9.748V271.13c0-8.966-7.2-19.754-15.01-24.265Z"/><path class="ck" d="M425.487,226.948c-7.8-4.505-14.129-.9-14.129,8.055v.741c0,8.955,6.326,19.866,14.129,24.371l35.779,21.068c7.8,4.5,12.213-.223,12.213-9.177v-.741c0-8.954-6.9-19.774-14.7-24.28Z"/><path class="cl" d="M425.314,227.2c-7.793-4.5-14.111-.9-14.111,8.045v.138c0,8.943,6.318,19.84,14.111,24.34l34.3,20.417c7.793,4.5,13.152.337,13.152-8.606V271.4c0-8.943-6.6-19.795-14.4-24.294Z"/><path class="aw" d="M425.141,227.46c-7.783-4.494-14.093-.9-14.093,8.035v-.465c0,8.932,6.31,19.815,14.093,24.308l32.82,19.767c7.783,4.494,14.093.9,14.093-8.035v.465c0-8.932-6.31-19.815-14.093-24.309Z"/></g><path class="ax" d="M473.5,283.986c0-.126,0-17.085.005-25.265-.172-1.358-.278-2.179-.278-2.2-.22-6.048-4.651-8.417-10.086-5.28s-9.859,10.614-10.084,16.912c0,.057,0,3.953-.005,9.069,5.747,3.275,23.839,13.609,23.839,13.563s0-.077,0-.112C474.815,289.748,473.5,287.426,473.5,283.986Z"/><g class="cb"><path class="c" d="M436.975,232.533c-7.893-4.557-35.723.7-35.723,9.758v81.695c0,9.057-4.732,40.065,3.16,44.622l35.4,21.258c7.893,4.557,28.584-11.776,28.584-20.833V279.55c0-9.056,9.975-23.96,2.083-28.517Z"/><path class="ac" d="M435.459,232.363c-7.888-4.554-34.693.625-34.693,9.675v81.38c0,9.051-4.206,39.1,3.681,43.654L439.72,388.26c7.888,4.554,27.894-11.173,27.894-20.224v-88.8c0-9.051,9.2-23.763,1.313-28.317Z"/><path class="ad" d="M433.943,232.193c-7.882-4.551-33.663.548-33.663,9.593V322.85c0,9.045-3.68,38.136,4.2,42.687l35.15,21.117c7.883,4.55,27.2-10.57,27.2-19.615V278.93c0-9.045,8.424-23.566.542-28.117Z"/><path class="ae" d="M432.427,232.022c-7.877-4.547-32.633.473-32.633,9.512v80.748c0,9.039-3.154,37.172,4.723,41.72l35.027,21.045c7.877,4.548,26.514-9.966,26.514-19.005V278.62c0-9.039,7.649-23.369-.228-27.917Z"/><path class="af" d="M430.911,231.852c-7.872-4.544-31.6.4-31.6,9.43v80.432c0,9.033-2.629,36.208,5.243,40.752l34.9,20.975c7.872,4.545,25.824-9.363,25.824-18.4V278.309c0-9.033,6.874-23.171-1-27.715Z"/><path class="ag" d="M429.395,231.682c-7.866-4.542-30.572.321-30.572,9.348v80.116c0,9.027-2.1,35.243,5.763,39.785l34.782,20.9c7.867,4.542,25.134-8.759,25.134-17.786V278c0-9.027,6.1-22.973-1.769-27.515Z"/><path class="ah" d="M427.88,231.512c-7.862-4.539-29.543.245-29.543,9.266v79.8c0,9.021-1.578,34.279,6.284,38.818l34.659,20.832c7.862,4.539,24.444-8.156,24.444-17.177V277.689c0-9.021,5.323-22.776-2.539-27.315Z"/><path class="ai" d="M426.364,231.342c-7.857-4.536-28.513.168-28.513,9.183V320.01c0,9.015-1.052,33.315,6.8,37.851l34.537,20.761c7.857,4.536,23.754-7.553,23.754-16.568V277.379c0-9.015,4.547-22.579-3.309-27.115Z"/><path class="aj" d="M424.848,231.172c-7.851-4.533-27.483.092-27.483,9.1v79.169c0,9.009-.526,32.35,7.325,36.883l34.414,20.69c7.851,4.533,23.064-6.948,23.064-15.957v-83.99c0-9.009,3.772-22.381-4.079-26.914Z"/><path class="ak" d="M423.332,231c-7.846-4.53-26.453.016-26.453,9.019v78.853c0,9,0,31.386,7.846,35.916l34.291,20.619c7.846,4.53,22.374-6.345,22.374-15.348v-83.3c0-9,3-22.184-4.85-26.714Z"/><path class="al" d="M421.816,230.832c-7.841-4.527-25.423-.06-25.423,8.937v78.537c0,9,.526,30.422,8.367,34.949L438.928,373.8c7.841,4.526,21.684-5.742,21.684-14.739V276.448c0-9,2.221-21.987-5.62-26.513Z"/><path class="am" d="M420.3,230.661c-7.835-4.523-24.393-.135-24.393,8.856v78.221c0,8.991,1.052,29.458,8.887,33.981L438.841,372.2c7.835,4.524,20.993-5.138,20.993-14.129v-81.93c0-8.991,1.445-21.788-6.39-26.312Z"/><path class="an" d="M418.784,230.491c-7.83-4.521-23.363-.212-23.363,8.774V317.17c0,8.985,1.578,28.493,9.408,33.014l33.924,20.406c7.83,4.521,20.3-4.535,20.3-13.52V275.827c0-8.985.67-21.591-7.161-26.112Z"/><path class="ao" d="M417.268,230.321c-7.825-4.518-22.333-.288-22.333,8.691V316.6c0,8.979,2.1,27.529,9.929,32.047l33.8,20.335c7.825,4.517,19.613-3.932,19.613-12.911V275.517c0-8.979-.106-21.394-7.931-25.912Z"/><path class="ap" d="M415.753,230.151c-7.82-4.515-21.3-.364-21.3,8.609v77.274c0,8.973,2.629,26.565,10.448,31.079l33.679,20.264c7.819,4.515,18.923-3.328,18.923-12.3V275.207c0-8.974-.881-21.2-8.7-25.712Z"/><path class="aq" d="M414.237,229.981c-7.815-4.512-20.273-.44-20.273,8.527v76.958c0,8.967,3.155,25.6,10.969,30.112l33.556,20.193c7.814,4.512,18.233-2.725,18.233-11.692V274.9c0-8.967-1.657-21-9.471-25.511Z"/><path class="ar" d="M412.721,229.811c-7.81-4.509-19.243-.516-19.243,8.445V314.9c0,8.961,3.68,24.636,11.49,29.145L438.4,364.165c7.809,4.508,17.543-2.122,17.543-11.083v-78.5c0-8.961-2.432-20.8-10.242-25.31Z"/><path class="as" d="M411.2,229.641c-7.8-4.506-18.213-.593-18.213,8.363V314.33c0,8.955,4.206,23.672,12.011,28.178l33.31,20.05c7.8,4.506,16.853-1.517,16.853-10.473V274.276c0-8.955-3.208-20.6-11.012-25.11Z"/><path class="at" d="M409.689,229.47c-7.8-4.5-17.183-.668-17.183,8.282v76.01c0,8.949,4.732,22.708,12.531,27.21l33.188,19.98c7.8,4.5,16.163-.914,16.163-9.864V273.965c0-8.949-3.983-20.406-11.782-24.909Z"/><path class="au" d="M408.173,229.3c-7.794-4.5-16.153-.744-16.153,8.2v75.7c0,8.943,5.258,21.743,13.052,26.243l33.065,19.908c7.793,4.5,15.473-.31,15.473-9.253V273.655c0-8.943-4.759-20.209-12.553-24.709Z"/><path class="av" d="M406.657,229.13c-7.788-4.5-15.123-.82-15.123,8.117v75.379c0,8.937,5.784,20.779,13.573,25.276l32.942,19.837c7.788,4.5,14.783.293,14.783-8.644v-75.75c0-8.937-5.534-20.012-13.323-24.509Z"/><path class="aw" d="M405.141,228.96c-7.783-4.494-14.093-.9-14.093,8.035v75.063c0,8.931,6.31,19.815,14.093,24.308l32.82,19.767c7.783,4.493,14.093.9,14.093-8.035V273.035c0-8.932-6.31-19.815-14.093-24.309Z"/></g><path class="cm" d="M404.594,213.1c-1.839-1.794-4.788-1.948-8.119-.025-5.431,3.135-9.86,10.614-10.085,16.912,0,.022,0,2.935-.005,3.705l-.018-.01c0,1.205-.067,104.788-.067,104.9,0,5.8-3.721,12.742-8.572,16.386,8.313,4.8,27.465,15.831,41.655,24.021,0,0,2.252,2.153,3.364,2.407.059.046,6.4,3.112,10.087,4.9v2.809c0,3.992,1.76,6.495,4.438,7.032l.042.007a5.456,5.456,0,0,0,.688.082c.151.008.306.009.462.006.108,0,.215,0,.325-.008a9.584,9.584,0,0,0,4.043-1.36,17.83,17.83,0,0,0,4.276-3.57,14.419,14.419,0,0,0,3.624-5.374,19.619,19.619,0,0,0,2.194-8.466c0-.05.072-1.069.072-2.3,0-.584.036-79.548.044-105.288,0-.031.011-.071.013-.1,0-.989,0-1.588,0-1.611.225-6.3,4.654-13.776,10.084-16.912a7.983,7.983,0,0,1,5.938-1.2Z"/><path class="cn" d="M433.653,389.849a17.645,17.645,0,0,1,1.251-6.2l-68.436-39.241-1.459-.817a17.587,17.587,0,0,0-1.224,6.129,7.447,7.447,0,0,0,3.586,6.6l68.967,39.7-.19-.162C434.6,394.776,433.653,392.717,433.653,389.849Z"/><path class="bt" d="M444.683,265.141l-50.6-29.68c0,4.789,0,8.577-.005,11.572l50.605,29.208Z"/><path class="ax" d="M444.683,274.69l-49.938-28.824c0-2.661,0-5.954,0-10.014l-.666-.391c0,4.789,0,8.577-.005,11.572l50.605,29.208Z"/><path class="co" d="M394.074,228.531c0,1.152,0,2.1,0,2.581l34.2,19.629c0,.568,0-.958,0-2.582Zm0,2.581,0,0C394.067,231.609,394.069,231.544,394.07,231.112Zm0,30.75,0,0C394.067,262.359,394.069,262.294,394.07,261.862Zm0,0,27.005,15.526c0,.567,0-.959,0-2.582l-27-15.525C394.073,260.433,394.072,261.378,394.07,261.862Z"/><path class="bt" d="M418.641,280.849l-24.558-14.638c0,4.789,0,8.577-.005,11.572l24.563,14.167Z"/><path class="ax" d="M418.641,290.4l-23.9-13.783c0-2.661,0-5.954,0-10.014l-.666-.391c0,4.789,0,8.577-.005,11.572l24.563,14.167Z"/><path class="bt" d="M444.683,325.891l-50.6-29.68c0,4.789,0,8.577-.005,11.572l50.605,29.208Z"/><path class="ax" d="M444.683,335.44l-49.938-28.824c0-2.661,0-5.954,0-10.014l-.666-.391c0,4.789,0,8.577-.005,11.572l50.605,29.208Z"/><path class="bt" d="M444.683,356.391l-50.6-29.68c0,4.789,0,8.577-.005,11.572l50.605,29.208Z"/><path class="ax" d="M444.683,365.94l-49.938-28.824c0-2.661,0-5.954,0-10.014l-.666-.391c0,4.789,0,8.577-.005,11.572l50.605,29.208Z"/><path class="cp" d="M414.107,286.45l2.842-2.6-5.685-3.282Z"/><path class="bt" d="M444.641,295.683,421.5,281.878c0,4.789,0,8.577,0,11.572l23.146,13.333Z"/><path class="ax" d="M444.641,305.232l-22.48-12.949c0-2.662,0-5.954,0-10.014l-.667-.391c0,4.789,0,8.577,0,11.572l23.146,13.333Z"/><path class="ax" d="M440.441,301.533l2.842-2.6-5.685-3.282Z"/><ellipse class="cq" cx="17.811" cy="34.561" rx="17.811" ry="34.561" transform="matrix(0.407, -0.914, 0.914, 0.407, 419.531, 124.54)"/><ellipse class="cr" cx="12.67" cy="21.946" rx="12.67" ry="21.946" transform="translate(438.112 112.487) rotate(-30.311)"/><path class="cs" d="M460.125,107.176c8.6,4.964,15.566,16.985,15.566,26.85s-6.969,13.838-15.566,8.875Z"/><path class="bt" d="M465.314,130.768a12.68,12.68,0,0,1-2.6-3.118c-.43-.721-.415-1.5,0-1.746a3.336,3.336,0,0,0,1.329-1.483c.456.126,1.022-.042,1.022-.668a2.476,2.476,0,0,0-.659-1.685,8.281,8.281,0,0,0-4.187-7.353c-3.142-1.815-4.076-.085-4.187,2.518-.377-.083-.659.286-.659.924a3.027,3.027,0,0,0,1.022,1.849,14.874,14.874,0,0,0,1.329,3.017c.419.727.434,1.527,0,1.75a3.429,3.429,0,0,1-2.6.111c-1.319-.4-2.3.4-2.3,2.022v2.817a1.9,1.9,0,0,0,.862,1.486l13.066,7.544c.476.275.862.055.862-.491v-2.817A6.707,6.707,0,0,0,465.314,130.768Z"/><g class="cb"><path class="c" d="M385.417,272.866c-3.461-2-6.268,3.839-6.268,7.811v35.831a13.814,13.814,0,0,0,6.268,10.811l29.228,16.826c3.462,2,7.655.18,7.655-3.793V300.284c0-3.972-4.193-8.593-7.655-10.591Z"/><path class="cc" d="M385.342,273.137c-3.458-2-6.26,3.454-6.26,7.421v35.566a13.793,13.793,0,0,0,6.26,10.8l29.125,16.766c3.457,2,7.521.2,7.521-3.768V300.5c0-3.967-4.064-8.6-7.521-10.6Z"/><path class="cd" d="M385.266,273.407c-3.453-1.994-6.252,3.069-6.252,7.032v35.3a13.776,13.776,0,0,0,6.252,10.784l29.022,16.707c3.453,1.994,7.387.218,7.387-3.744V300.718c0-3.962-3.934-8.61-7.387-10.6Z"/><path class="ce" d="M385.19,273.677c-3.449-1.991-6.244,2.685-6.244,6.642v35.037a13.758,13.758,0,0,0,6.244,10.771l28.92,16.647c3.448,1.991,7.253.238,7.253-3.719V300.936c0-3.958-3.8-8.62-7.253-10.611Z"/><path class="cf" d="M385.114,273.948c-3.444-1.989-6.236,2.3-6.236,6.252v34.773a13.74,13.74,0,0,0,6.236,10.756l28.817,16.588c3.445,1.989,7.119.257,7.119-3.695V301.153c0-3.952-3.674-8.629-7.119-10.617Z"/><path class="cg" d="M385.038,274.218c-3.439-1.986-6.228,1.915-6.228,5.862v34.509a13.726,13.726,0,0,0,6.228,10.743l28.715,16.528c3.44,1.986,6.985.277,6.985-3.67V301.37c0-3.947-3.545-8.637-6.985-10.623Z"/><path class="ch" d="M384.963,274.488c-3.436-1.983-6.221,1.531-6.221,5.473V314.2a13.7,13.7,0,0,0,6.221,10.729l28.611,16.47c3.436,1.983,6.851.3,6.851-3.647v-36.17c0-3.942-3.415-8.646-6.851-10.63Z"/><path class="ci" d="M384.887,274.758c-3.431-1.981-6.213,1.146-6.213,5.083v33.98a13.691,13.691,0,0,0,6.213,10.716l28.509,16.41c3.431,1.981,6.717.315,6.717-3.622V301.8c0-3.937-3.286-8.655-6.717-10.636Z"/><path class="cj" d="M384.811,275.029c-3.427-1.979-6.205.761-6.205,4.693v33.715a13.671,13.671,0,0,0,6.205,10.7l28.406,16.351c3.427,1.978,6.583.334,6.583-3.6V302.021c0-3.932-3.156-8.664-6.583-10.642Z"/><path class="ck" d="M384.735,275.3c-3.422-1.976-6.2.376-6.2,4.3v33.451a13.657,13.657,0,0,0,6.2,10.689l28.3,16.291c3.422,1.976,6.449.354,6.449-3.573V302.238c0-3.927-3.027-8.672-6.449-10.648Z"/><path class="cl" d="M384.659,275.569c-3.418-1.973-6.189-.008-6.189,3.914v33.186a13.637,13.637,0,0,0,6.189,10.675l28.2,16.232c3.418,1.973,6.315.373,6.315-3.549V302.456c0-3.923-2.9-8.682-6.315-10.655Z"/><path class="aw" d="M384.583,275.84c-3.413-1.971-6.181-.394-6.181,3.524v32.921a13.622,13.622,0,0,0,6.181,10.662l28.1,16.172c3.413,1.971,6.181.393,6.181-3.525V302.673a13.623,13.623,0,0,0-6.181-10.662Z"/></g><path class="ct" d="M352.034,305.334l66.647,38.182c0-16.04.007-54.675.007-51.666l-66.654-38.187Z"/><path class="cu" d="M352.034,305.334l66.647,38.182c0-16.04.007-54.675.007-51.666l-66.654-38.187Z"/><path class="bt" d="M363.432,268.929v.7l25.2,14.54,25.2,14.54v-1.158l-25.2-14.54-25.2-14.54Z"/><path class="bt" d="M413.829,297.555v0Z"/><path class="bt" d="M363.432,275.3v1.158l25.2,14.54,25.2,14.54v-1.158l-25.2-14.54Z"/><path class="bt" d="M413.829,304.038v0Z"/><path class="bt" d="M363.432,282.135v1.158l25.2,14.54,25.2,14.54v-1.158l-25.2-14.54Z"/><path class="bt" d="M413.829,310.52v0Z"/><path class="bt" d="M363.432,288.965v1.158l25.2,14.541,25.2,14.54v-1.158l-25.2-14.54Z"/><path class="bt" d="M413.829,317v0Z"/><path class="bt" d="M363.432,295.8v1.158l25.2,14.54,25.2,14.54v-1.158l-25.2-14.54Z"/><path class="bt" d="M413.829,323.486v0Z"/><path class="bt" d="M363.432,303.784l25.2,14.54,25.2,14.54v-1.158l-25.2-14.54-25.2-14.54Z"/><path class="bt" d="M413.829,329.968v0Z"/><path class="bt" d="M359.719,267.391c0,.961-.678,1.348-1.515.864a3.339,3.339,0,0,1-1.516-2.614c0-.96.679-1.347,1.516-.864A3.341,3.341,0,0,1,359.719,267.391Z"/><path class="bt" d="M359.719,274.316c0,.961-.678,1.348-1.515.864a3.339,3.339,0,0,1-1.516-2.614c0-.96.679-1.347,1.516-.864A3.341,3.341,0,0,1,359.719,274.316Z"/><path class="bt" d="M359.719,281.241c0,.961-.678,1.348-1.515.864a3.339,3.339,0,0,1-1.516-2.614c0-.96.679-1.347,1.516-.864A3.341,3.341,0,0,1,359.719,281.241Z"/><path class="bt" d="M359.719,288.166c0,.961-.678,1.348-1.515.864a3.339,3.339,0,0,1-1.516-2.614c0-.96.679-1.347,1.516-.864A3.339,3.339,0,0,1,359.719,288.166Z"/><path class="bt" d="M359.719,295.091c0,.961-.678,1.348-1.515.864a3.339,3.339,0,0,1-1.516-2.614c0-.96.679-1.347,1.516-.864A3.339,3.339,0,0,1,359.719,295.091Z"/><path class="bt" d="M359.719,302.016c0,.961-.678,1.348-1.515.864a3.339,3.339,0,0,1-1.516-2.614c0-.96.679-1.347,1.516-.864A3.341,3.341,0,0,1,359.719,302.016Z"/><g class="ab"><path class="c" d="M367.783,393.891a7.306,7.306,0,0,1-3.646-.879l-1.272-1.18a3.856,3.856,0,0,1-2.092-3.332,4.486,4.486,0,0,1,2.519-3.783l12.546-9.45a8.974,8.974,0,0,1,4.428-1.126,7.306,7.306,0,0,1,3.646.879l5.134,2.29a3.859,3.859,0,0,1,2.092,3.332,4.486,4.486,0,0,1-2.519,3.783l-8.2,4.17-8.2,4.17A8.98,8.98,0,0,1,367.783,393.891Z"/><path class="ac" d="M388.12,377.869a3.717,3.717,0,0,1,2.015,3.2,4.315,4.315,0,0,1-2.412,3.641c-.005.005-2.367,1.207-2.374,1.212l-2.256,1.153c-.01.006-3.24,1.647-3.252,1.65s-7.869,3.98-7.894,3.973a8.251,8.251,0,0,1-2.63.92,9.511,9.511,0,0,1-1.624.135,7.081,7.081,0,0,1-3.5-.852l-1.225-1.131a3.714,3.714,0,0,1-2.015-3.2,4.312,4.312,0,0,1,2.41-3.64c.005-.006,2.38-1.8,2.389-1.8l2.1-1.588c.023-.013,7.547-5.664,7.575-5.664a8.668,8.668,0,0,1,4.257-1.065,8.152,8.152,0,0,1,1.845.209,6.147,6.147,0,0,1,1.657.643Z"/><path class="ad" d="M387.194,378.429a3.573,3.573,0,0,1,1.938,3.067,4.138,4.138,0,0,1-2.3,3.5c-.01.011-2.26,1.158-2.276,1.167l-2.161,1.113c-.019.011-3.1,1.574-3.122,1.58-.053.015-7.535,3.79-7.584,3.777a8.01,8.01,0,0,1-2.524.864,9.358,9.358,0,0,1-1.558.121,6.84,6.84,0,0,1-3.355-.826l-1.179-1.083a3.571,3.571,0,0,1-1.937-3.066,4.134,4.134,0,0,1,2.3-3.5c.011-.012,2.274-1.717,2.292-1.727l2.016-1.525c.047-.027,7.227-5.4,7.283-5.4a8.356,8.356,0,0,1,4.086-1.005,7.948,7.948,0,0,1,1.768.2,6.025,6.025,0,0,1,1.589.619Z"/><path class="ae" d="M386.268,378.988a3.429,3.429,0,0,1,1.861,2.935,3.964,3.964,0,0,1-2.2,3.355c-.015.016-2.154,1.108-2.178,1.122l-2.066,1.072c-.029.016-2.959,1.5-2.993,1.512-.079.022-7.2,3.6-7.274,3.581a7.809,7.809,0,0,1-2.417.807,9.219,9.219,0,0,1-1.491.106,6.6,6.6,0,0,1-3.209-.8l-1.133-1.034a3.429,3.429,0,0,1-1.86-2.933,3.959,3.959,0,0,1,2.192-3.353c.016-.018,2.169-1.639,2.195-1.655l1.929-1.462c.07-.04,6.9-5.14,6.989-5.138a8.041,8.041,0,0,1,3.916-.944,7.567,7.567,0,0,1,1.691.2,5.823,5.823,0,0,1,1.521.6Z"/><path class="af" d="M385.342,379.547a3.283,3.283,0,0,1,1.783,2.8,3.789,3.789,0,0,1-2.09,3.214c-.02.021-2.048,1.058-2.08,1.076l-1.971,1.031c-.038.022-2.818,1.431-2.863,1.443-.107.03-6.866,3.409-6.964,3.385a7.565,7.565,0,0,1-2.312.751,9.073,9.073,0,0,1-1.423.092,6.379,6.379,0,0,1-3.064-.773l-1.086-.986a3.283,3.283,0,0,1-1.782-2.8,3.779,3.779,0,0,1,2.083-3.21c.021-.023,2.062-1.562,2.1-1.582l1.842-1.4c.093-.053,6.583-4.878,6.7-4.875a7.73,7.73,0,0,1,3.744-.883,7.307,7.307,0,0,1,1.615.2,5.7,5.7,0,0,1,1.454.572Z"/><path class="ag" d="M384.416,380.106a3.142,3.142,0,0,1,1.706,2.67,3.612,3.612,0,0,1-1.983,3.071c-.025.026-1.942,1.009-1.981,1.032l-1.877.989c-.048.028-2.677,1.359-2.734,1.375-.133.037-6.531,3.218-6.654,3.188a7.322,7.322,0,0,1-2.205.7,8.973,8.973,0,0,1-1.356.078,6.138,6.138,0,0,1-2.919-.748l-1.039-.937a3.139,3.139,0,0,1-1.7-2.665,3.6,3.6,0,0,1,1.974-3.067c.026-.029,1.956-1.484,2-1.509l1.755-1.337c.116-.067,6.262-4.616,6.4-4.612a7.423,7.423,0,0,1,3.574-.824,7.05,7.05,0,0,1,1.538.2,5.514,5.514,0,0,1,1.386.547Z"/><path class="ah" d="M383.49,380.665a3,3,0,0,1,1.629,2.538,3.436,3.436,0,0,1-1.876,2.928c-.03.032-1.836.96-1.883.987l-1.782.949c-.057.033-2.537,1.286-2.6,1.305-.16.045-6.2,3.029-6.344,2.992a7.126,7.126,0,0,1-2.1.639,8.737,8.737,0,0,1-1.289.063,5.921,5.921,0,0,1-2.773-.721l-.992-.888a3,3,0,0,1-1.628-2.532A3.429,3.429,0,0,1,363.713,386c.032-.035,1.85-1.406,1.9-1.437l1.667-1.274c.14-.08,5.941-4.353,6.109-4.349a7.12,7.12,0,0,1,3.4-.763,6.791,6.791,0,0,1,1.461.192,5.36,5.36,0,0,1,1.318.524Z"/><path class="ai" d="M382.564,381.225a2.854,2.854,0,0,1,1.552,2.4,3.262,3.262,0,0,1-1.769,2.786c-.035.037-1.73.91-1.785.942l-1.687.908c-.067.039-2.4,1.215-2.475,1.237-.186.052-5.862,2.838-6.033,2.795a6.9,6.9,0,0,1-1.994.583,8.7,8.7,0,0,1-1.222.049,5.686,5.686,0,0,1-2.627-.695l-.946-.84a2.853,2.853,0,0,1-1.551-2.4,3.251,3.251,0,0,1,1.756-2.78c.037-.041,1.744-1.329,1.806-1.364l1.58-1.211c.163-.094,5.619-4.092,5.816-4.087a6.813,6.813,0,0,1,3.233-.7,6.474,6.474,0,0,1,1.384.189,5.182,5.182,0,0,1,1.25.5Z"/><path class="aj" d="M381.638,381.784a2.713,2.713,0,0,1,1.475,2.272,3.09,3.09,0,0,1-1.662,2.644c-.041.042-1.623.86-1.687.9l-1.592.866c-.076.044-2.255,1.143-2.345,1.168-.213.06-5.528,2.648-5.724,2.6a6.713,6.713,0,0,1-1.888.527,8.665,8.665,0,0,1-1.154.034,5.475,5.475,0,0,1-2.482-.668l-.9-.791a2.713,2.713,0,0,1-1.474-2.266,3.075,3.075,0,0,1,1.647-2.637c.043-.047,1.638-1.251,1.709-1.292l1.493-1.148c.186-.108,5.3-3.829,5.522-3.823a6.488,6.488,0,0,1,3.062-.642,6.25,6.25,0,0,1,1.309.185,5.049,5.049,0,0,1,1.181.476Z"/><path class="ak" d="M380.712,382.343a2.57,2.57,0,0,1,1.4,2.14,2.916,2.916,0,0,1-1.554,2.5c-.047.047-1.518.811-1.59.852l-1.5.826c-.086.049-2.114,1.07-2.216,1.1-.239.067-5.193,2.457-5.413,2.4a6.512,6.512,0,0,1-1.782.471,8.736,8.736,0,0,1-1.087.02,5.258,5.258,0,0,1-2.337-.642l-.853-.743a2.574,2.574,0,0,1-1.4-2.132,2.9,2.9,0,0,1,1.538-2.494c.048-.053,1.533-1.173,1.611-1.219l1.406-1.086c.21-.121,4.977-3.566,5.23-3.56a6.192,6.192,0,0,1,2.891-.581,5.949,5.949,0,0,1,1.232.181,4.942,4.942,0,0,1,1.114.452Z"/><path class="al" d="M379.786,382.9a2.428,2.428,0,0,1,1.321,2.008,2.74,2.74,0,0,1-1.447,2.358c-.052.053-1.412.762-1.491.807l-1.4.785c-.1.055-1.973,1-2.086,1.03-.266.075-4.859,2.268-5.1,2.206a6.357,6.357,0,0,1-1.675.416,9.145,9.145,0,0,1-1.021,0,5.058,5.058,0,0,1-2.191-.615l-.806-.7a2.431,2.431,0,0,1-1.319-2,2.726,2.726,0,0,1,1.43-2.351c.053-.059,1.426-1.1,1.513-1.146l1.319-1.023c.232-.135,4.655-3.3,4.936-3.3a5.9,5.9,0,0,1,2.721-.521,5.7,5.7,0,0,1,1.155.179,4.808,4.808,0,0,1,1.046.428Z"/><path class="am" d="M378.86,383.461a2.29,2.29,0,0,1,1.244,1.875,2.569,2.569,0,0,1-1.34,2.216c-.057.058-1.306.712-1.393.762l-1.307.744c-.106.061-1.834.927-1.958.962-.292.082-4.524,2.077-4.793,2.009a6.233,6.233,0,0,1-1.57.36,9.2,9.2,0,0,1-.953-.01,4.849,4.849,0,0,1-2.046-.589l-.759-.646a2.287,2.287,0,0,1-1.241-1.865,2.549,2.549,0,0,1,1.32-2.208c.058-.065,1.32-1.018,1.416-1.074l1.232-.96c.255-.148,4.334-3.042,4.642-3.034a5.463,5.463,0,0,1,3.629-.286,4.756,4.756,0,0,1,.978.4Z"/><path class="an" d="M377.933,384.02a2.15,2.15,0,0,1,1.168,1.743,2.4,2.4,0,0,1-1.233,2.074c-.062.063-1.2.662-1.3.717l-1.212.7c-.115.067-1.693.855-1.828.893-.319.09-4.19,1.887-4.483,1.813a6.11,6.11,0,0,1-1.464.3c-.239.027-.641-.025-.886-.025a4.658,4.658,0,0,1-1.9-.562l-.713-.6a2.145,2.145,0,0,1-1.164-1.732,2.375,2.375,0,0,1,1.211-2.064c.064-.07,1.214-.94,1.319-1l1.144-.9a50.839,50.839,0,0,1,4.35-2.771,5.286,5.286,0,0,1,2.379-.4,5.161,5.161,0,0,1,1,.172,4.583,4.583,0,0,1,.91.38Z"/><path class="ao" d="M377.007,384.58a2.009,2.009,0,0,1,1.091,1.61,2.223,2.223,0,0,1-1.126,1.931c-.067.069-1.094.613-1.2.672l-1.117.662c-.125.071-1.552.783-1.7.824a42.993,42.993,0,0,1-4.173,1.616,5.986,5.986,0,0,1-1.358.248c-.212.022-.6-.039-.818-.039a4.47,4.47,0,0,1-1.755-.536l-.666-.549a2.006,2.006,0,0,1-1.087-1.6,2.2,2.2,0,0,1,1.1-1.921c.069-.076,1.108-.863,1.222-.928l1.057-.835a39.831,39.831,0,0,1,4.056-2.508,4.81,4.81,0,0,1,3.134-.172,4.56,4.56,0,0,1,.843.356Z"/><path class="ap" d="M376.081,385.139a1.868,1.868,0,0,1,1.014,1.477,2.047,2.047,0,0,1-1.019,1.789c-.072.074-.988.563-1.1.627l-1.023.621c-.134.077-1.411.711-1.569.755a33.446,33.446,0,0,1-3.863,1.42,6.014,6.014,0,0,1-1.252.192c-.186.017-.561-.053-.752-.053a4.322,4.322,0,0,1-1.609-.51l-.619-.5a1.864,1.864,0,0,1-1.01-1.465,2.022,2.022,0,0,1,.993-1.777c.075-.083,1-.786,1.125-.857l.97-.772a31.343,31.343,0,0,1,3.762-2.245,4.482,4.482,0,0,1,2.887-.114,4.43,4.43,0,0,1,.775.332Z"/><path class="aq" d="M375.155,385.7a1.728,1.728,0,0,1,.937,1.345,1.874,1.874,0,0,1-.912,1.646c-.077.08-.881.514-1,.583l-.928.579c-.144.083-1.271.639-1.44.687a25.683,25.683,0,0,1-3.553,1.223,6.046,6.046,0,0,1-1.146.136c-.159.012-.521-.068-.684-.068a4.184,4.184,0,0,1-1.464-.483l-.572-.452a1.727,1.727,0,0,1-.933-1.332,1.849,1.849,0,0,1,.884-1.634c.08-.089.9-.708,1.028-.784l.882-.71a24.261,24.261,0,0,1,3.47-1.982,4.4,4.4,0,0,1,1.867-.219,3.829,3.829,0,0,1,1.479.47Z"/><path class="ar" d="M374.229,386.257a1.585,1.585,0,0,1,.859,1.213,1.7,1.7,0,0,1-.8,1.5c-.082.084-.775.464-.9.537l-.833.538c-.153.089-1.13.568-1.31.618A19.49,19.49,0,0,1,368,391.694a6.265,6.265,0,0,1-1.04.08c-.133.007-.481-.082-.617-.082a4.075,4.075,0,0,1-1.318-.457l-.526-.4a1.587,1.587,0,0,1-.856-1.2,1.673,1.673,0,0,1,.775-1.491,10.424,10.424,0,0,1,.931-.712l.8-.646a18.478,18.478,0,0,1,3.176-1.719,4.128,4.128,0,0,1,1.7-.159,4.443,4.443,0,0,1,.7.158,4.647,4.647,0,0,1,.639.285Z"/><path class="as" d="M373.3,386.816a1.447,1.447,0,0,1,.782,1.081,1.526,1.526,0,0,1-.7,1.361,8.2,8.2,0,0,1-.8.492l-.738.5a11.659,11.659,0,0,1-1.181.549,14.612,14.612,0,0,1-2.933.831,7.059,7.059,0,0,1-.933.023c-.107,0-.442-.1-.551-.1a4.087,4.087,0,0,1-1.172-.43l-.48-.356a1.447,1.447,0,0,1-.777-1.065,1.5,1.5,0,0,1,.666-1.347,7.694,7.694,0,0,1,.833-.639l.708-.584a13.889,13.889,0,0,1,2.883-1.456,3.834,3.834,0,0,1,1.526-.1,4.27,4.27,0,0,1,.619.155,4.953,4.953,0,0,1,.571.26Z"/><path class="at" d="M372.377,387.375a1.314,1.314,0,0,1,.7.948,1.35,1.35,0,0,1-.59,1.219,6.294,6.294,0,0,1-.705.448l-.644.456a8.721,8.721,0,0,1-1.051.48,10.64,10.64,0,0,1-2.623.635,3.059,3.059,0,0,1-.828-.033c-.079.014-.4-.111-.483-.111a4.173,4.173,0,0,1-1.027-.4l-.433-.306a1.215,1.215,0,0,1-.143-2.136,5.7,5.7,0,0,1,.736-.566l.62-.522a10.213,10.213,0,0,1,2.59-1.193,3.569,3.569,0,0,1,1.355-.037,4.135,4.135,0,0,1,.543.151,5.4,5.4,0,0,1,.5.237Z"/><path class="au" d="M371.451,387.935a1.076,1.076,0,0,1,.145,1.891,4.32,4.32,0,0,1-.607.4l-.549.415a6.291,6.291,0,0,1-.922.412,7.518,7.518,0,0,1-2.312.438,2.741,2.741,0,0,1-.722-.089c-.053.01-.362-.126-.416-.126a4.725,4.725,0,0,1-.882-.378l-.386-.258a1.184,1.184,0,0,1-.623-.8,1.148,1.148,0,0,1,.448-1.061,4.043,4.043,0,0,1,.639-.494l.533-.458a7.254,7.254,0,0,1,2.3-.93,3.343,3.343,0,0,1,1.185.022,4.31,4.31,0,0,1,.466.149c.058.019.386.184.435.212Z"/><path class="av" d="M370.525,388.494a1.057,1.057,0,0,1,.551.683,1,1,0,0,1-.376.934,2.955,2.955,0,0,1-.509.357l-.454.375a4.389,4.389,0,0,1-.792.342,5.152,5.152,0,0,1-2,.242,2.4,2.4,0,0,1-.616-.145c-.026,0-.321-.14-.348-.14a6.657,6.657,0,0,1-.737-.352l-.339-.209a1.061,1.061,0,0,1-.546-.665A.976.976,0,0,1,364.7,389a2.853,2.853,0,0,1,.542-.421l.446-.4a5.011,5.011,0,0,1,2-.667,3.074,3.074,0,0,1,1.014.083c.139.038.263.1.389.145.029.011.343.175.367.189Z"/><path class="aw" d="M366.169,391.159,365,390.518c-.735-.424-.643-1.165.206-1.654l.358-.334a3.185,3.185,0,0,1,2.866-.118l1.165.641c.734.424.642,1.165-.206,1.654l-.359.334A3.183,3.183,0,0,1,366.169,391.159Z"/></g><path class="cv" d="M356.737,331.559l-2.294,1.892-1.333.984-.718.72s-.754.921-.955.913a.766.766,0,0,1-.314-.07l.594-1.243.96-1.027-1.43.549-1.232.13s-1.092.041-1.34-.256-.067-.492-.067-.492a.688.688,0,0,1-.213-.44c.009-.229,1.568-.454,1.568-.454l.928-.457,2.592-1.569,2.414-.507Z"/><path class="cw" d="M355.765,329.911a13.764,13.764,0,0,0-2.733.581,16.548,16.548,0,0,0-1.374,1.327s-.793,1.178-.6,1.444.969-.509,1.062-.707a10.589,10.589,0,0,1,1.078-1.08l.72-.068a2.145,2.145,0,0,0,1.849-1.5Z"/><path class="cx" d="M355.166,329.826a6.177,6.177,0,0,0,.739,1.348c.467.621.8.634.8.634s7.814-8.006,8.579-8.465c.895-.537,7.95-5.868,7.95-5.868s4-11.707.551-9.353-11.358,12.231-11.358,12.231Z"/><path class="cy" d="M374.648,312.612l-10.908,9.852-7.818,8.729c.457.6.788.615.788.615s7.814-8.006,8.579-8.465c.895-.537,7.95-5.868,7.95-5.868S374.07,315.038,374.648,312.612Z"/><path class="cz" d="M367.64,390.914c.77.055,2.221-.534,2.221-.872s-1.406-1.377-1.631-1.462a4.51,4.51,0,0,0-.759-.14l-.028-1.659s-1.041-.732-1.631-1.209a10.377,10.377,0,0,0-1.237-.844,24.5,24.5,0,0,0-1.828,1.884c-.309.45.309,1.321,1.575,2S367.246,390.886,367.64,390.914Z"/><path class="da" d="M362.606,386.724a1.312,1.312,0,0,0,.647,2c.9.45,3.824,2.39,4.359,2.587a3.394,3.394,0,0,0,2.249-.928c.056-.253,0-.338,0-.338s-1.237.844-1.94.591a12.166,12.166,0,0,1-3.093-2.39A9.972,9.972,0,0,0,362.606,386.724Z"/><path class="db" d="M342.511,361.764s14.562-5.4,15.726-6.083,22.513-16.012,22.513-16.012l-12.826-5.91-13.7,16.977-12.536,7.741Z"/><path class="cy" d="M356.978,354.4l-14.8,6.038.332,1.328s14.562-5.4,15.726-6.083,22.513-16.012,22.513-16.012l-5.143-2.37Z"/><path class="dc" d="M374.638,334.844s-1.37.411-1.37,5.411.274,23.839.274,23.839l-9.476,21.141a15.857,15.857,0,0,0,1.822,1.354,5.686,5.686,0,0,0,1.552.616L380.011,366.8A60.227,60.227,0,0,0,385,351.353c.886-4.91,1.344-12.819,1.344-12.819Z"/><path class="cz" d="M342.866,361.7a37.6,37.6,0,0,0-2.328,3.588c-.484,1.034-1.739,3.641-2.534,3.081s3.892-9.739,3.892-9.739Z"/><path class="da" d="M341.764,358.475c1.452.664.072,3.281-.623,4.455s-2.3,5.891-3.137,5.436a3.833,3.833,0,0,1-1.413-3.784c.431-1.413,2.036-3.065,2.443-3.831S340.088,357.709,341.764,358.475Z"/><path class="cy" d="M381.063,341.236,377.75,365.5l-11.576,21.245a5.67,5.67,0,0,0,1.266.46L380.011,366.8A60.227,60.227,0,0,0,385,351.353c.886-4.91,1.344-12.819,1.344-12.819l-5.5-1.732Z"/><path class="cv" d="M407.1,292.423l2.219.986a22.539,22.539,0,0,1,3.123-2.055c.9-.356,2.081-1.232,1.78-1.89a5.259,5.259,0,0,0-1.507-1.452,25.116,25.116,0,0,0,1.918-2.684.731.731,0,0,0-.219-.74s-2.739,3.014-2.986,3.1a4.682,4.682,0,0,0-1.726.931A40.186,40.186,0,0,0,407.1,292.423Z"/><path class="dd" d="M409.984,293.135s0-.411-.89-1.062a2.323,2.323,0,0,0-1.841-.4l-8.434,10.671-9.294,7.548a4.125,4.125,0,0,1-3.953.672l-.024-.009c-5.206-1.781-9.924-4.4-12.185-2.005s-8.193,28.227-8.193,28.227a50.8,50.8,0,0,0,9.268,5.372c5.21,2.263,11.819,1.948,11.819,1.948s1.659-8.107,3.15-15.637a35.781,35.781,0,0,1,7.565-15.891c2.605-3.139,5.029-6.058,5.334-6.414C403.112,305.219,409.984,293.135,409.984,293.135Z"/><path class="bt" d="M385.589,311.461c-.334,1.058-2.422,1.341-4.664.633s-3.788-2.139-3.454-3.2,2.422-1.34,4.664-.632S385.923,310.4,385.589,311.461Z"/><path class="cv" d="M385.174,310.9c-.309.978-2.131,1.274-4.07.661s-3.262-1.9-2.953-2.879,2.131-1.274,4.071-.661S385.483,309.92,385.174,310.9Z"/><path class="cv" d="M385.68,307.213l-.506,3.685-7.023-2.218s.925-1.553.461-2.533-5.565-5.452.471-9.715,7.584,2.517,8.256,4.448.873,3.917.619,4.355S385.979,306.832,385.68,307.213Z"/><path class="de" d="M386.113,293.981c1.95,1.22-1.984,5.988-1.984,5.988a9.126,9.126,0,0,1,.765,2.51c-.105.505-.963-1.136-1.793-.14s-.555,4.362-1.008,4.783c-.627.582-2.865.179-3.423-.555-.448-.59-4.914-5.744-1.417-9.452S384.322,292.859,386.113,293.981Z"/><path class="cy" d="M390.017,321c-1.343,1.164-7.52,21.266-7.772,22.97a32.53,32.53,0,0,0,4.012.131s1.659-8.107,3.15-15.637a35.739,35.739,0,0,1,4.843-12.13C392.729,318.112,390.786,320.333,390.017,321Z"/><path class="df" d="M525.365,255.156a.5.5,0,0,1-.249-.066l-2.594-1.493a.5.5,0,1,1,.5-.867l2.594,1.493a.5.5,0,0,1-.249.933Zm-5.189-2.986a.5.5,0,0,1-.249-.067l-2.6-1.493a.5.5,0,0,1,.5-.867l2.595,1.494a.5.5,0,0,1-.249.933Zm-5.19-2.987a.5.5,0,0,1-.249-.066l-2.594-1.493a.5.5,0,0,1,.5-.868l2.6,1.494a.5.5,0,0,1-.25.933ZM509.8,246.2a.5.5,0,0,1-.249-.067l-2.6-1.494a.5.5,0,1,1,.5-.866l2.6,1.494a.5.5,0,0,1-.249.933Zm-5.189-2.987a.5.5,0,0,1-.249-.066l-2.595-1.494a.5.5,0,1,1,.5-.867l2.6,1.493a.5.5,0,0,1-.249.934Zm-5.19-2.987a.5.5,0,0,1-.249-.066l-2.6-1.493a.5.5,0,0,1,.5-.867l2.6,1.493a.5.5,0,0,1-.249.933Zm-5.189-2.986a.5.5,0,0,1-.25-.067l-2.594-1.494a.5.5,0,1,1,.5-.866l2.594,1.494a.5.5,0,0,1-.25.933Zm-5.189-2.987a.5.5,0,0,1-.249-.066l-2.6-1.493a.5.5,0,0,1,.5-.868l2.6,1.494a.5.5,0,0,1-.249.933Z"/><path class="dg" d="M395.387,156.371a13.2,13.2,0,0,1-1.951-5.925c-.025-.547-.036-.379-.036-1.065s.011-1.282.036-1.743a5.51,5.51,0,0,1,.97-2.833,2.733,2.733,0,0,1,2.206-1.068,6.651,6.651,0,0,1,3.377,1.089,13.13,13.13,0,0,1,6.827,10.537c.024.574.037.775.037,1.124,0,.52-.013.953-.037,1.3q-.074,1.47-.806,1.866a1.838,1.838,0,0,1-1.83-.237,4.735,4.735,0,0,1-1.344-1.134,5.843,5.843,0,0,1-.8-1.236,1.222,1.222,0,0,1-.814.485,2.6,2.6,0,0,1-1.529-.494,5.5,5.5,0,0,1-2.168-2.385,7.962,7.962,0,0,1-.8-3.611,3.551,3.551,0,0,1,.788-2.706q.784-.691,2.141.091a4.178,4.178,0,0,1,1.1.9,5.476,5.476,0,0,1,.75,1.159v-.315c0-.155.043-.253.128-.294a.325.325,0,0,1,.312.043l.732.423a.862.862,0,0,1,.319.321.848.848,0,0,1,.12.437v4.368a2.931,2.931,0,0,0,.284,1.34,1.98,1.98,0,0,0,.777.848q.568.328.806-.017a1.667,1.667,0,0,0,.238-.956c.024-.406.037-.839.037-1.3,0-.209-.013-.313-.037-.831a8.42,8.42,0,0,0-1.346-4.286,11.321,11.321,0,0,0-3.889-3.651q-2.234-1.288-3.468-.71t-1.455,2.783q-.056.492-.055,1.627a5.42,5.42,0,0,0,.055.97,9.549,9.549,0,0,0,1.472,4.452,10.272,10.272,0,0,0,3.6,3.327,10.909,10.909,0,0,0,1.867.9,3.233,3.233,0,0,0,1.108.22,4.841,4.841,0,0,0,.833-.14c.109-.033.2-.058.256-.072a.391.391,0,0,1,.256.074l1.025.592a.882.882,0,0,1,.311.326.859.859,0,0,1,.128.432.455.455,0,0,1-.109.251q-1.942,1.357-5.675-.8A13.222,13.222,0,0,1,395.387,156.371Zm5.745-.9a2.608,2.608,0,0,0,.376-1.673,5.275,5.275,0,0,0-.376-2.118,2.83,2.83,0,0,0-1.216-1.343q-1.575-.909-1.574,1.633a5.16,5.16,0,0,0,.393,2.065,2.817,2.817,0,0,0,1.181,1.365C400.477,155.726,400.883,155.751,401.132,155.474Z"/><path class="dh" d="M525.365,285.106a.5.5,0,0,1-.249-.066l-2.594-1.493a.5.5,0,1,1,.5-.867l2.594,1.493a.5.5,0,0,1-.249.933Zm-5.189-2.986a.488.488,0,0,1-.249-.067l-2.6-1.494a.5.5,0,0,1,.5-.866l2.595,1.494a.5.5,0,0,1-.249.933Zm-5.19-2.987a.5.5,0,0,1-.249-.066l-2.594-1.493a.5.5,0,1,1,.5-.868l2.6,1.494a.5.5,0,0,1-.25.933Zm-5.188-2.986a.5.5,0,0,1-.249-.067l-2.6-1.494a.5.5,0,1,1,.5-.866l2.6,1.494a.5.5,0,0,1-.249.933Zm-5.189-2.987a.5.5,0,0,1-.249-.066l-2.595-1.493a.5.5,0,1,1,.5-.868l2.6,1.494a.5.5,0,0,1-.249.933Zm-5.19-2.987a.5.5,0,0,1-.249-.066l-2.6-1.493a.5.5,0,0,1,.5-.868l2.6,1.494a.5.5,0,0,1-.249.933Zm-5.189-2.986a.5.5,0,0,1-.25-.067l-2.594-1.494a.5.5,0,1,1,.5-.866l2.594,1.494a.5.5,0,0,1-.25.933Zm-5.189-2.987a.5.5,0,0,1-.249-.066l-2.6-1.494a.5.5,0,0,1,.5-.867l2.6,1.493a.5.5,0,0,1-.249.934Zm-5.189-2.987a.5.5,0,0,1-.249-.066l-2.6-1.493a.5.5,0,1,1,.5-.867l2.6,1.493a.5.5,0,0,1-.249.933Zm-5.19-2.986a.488.488,0,0,1-.249-.067l-2.593-1.493a.5.5,0,1,1,.5-.866l2.593,1.493a.5.5,0,0,1-.249.933Z"/><path class="di" d="M406.2,125.711a9.132,9.132,0,0,1-1.881-2.253c-.312-.521-.3-1.086,0-1.262a2.408,2.408,0,0,0,.961-1.072c.33.092.739-.03.739-.482a1.787,1.787,0,0,0-.477-1.218,5.984,5.984,0,0,0-3.026-5.314c-2.271-1.312-2.945-.062-3.026,1.82-.273-.061-.476.206-.476.668a2.183,2.183,0,0,0,.738,1.335,10.737,10.737,0,0,0,.961,2.181c.3.526.314,1.1,0,1.265a2.478,2.478,0,0,1-1.882.08c-.954-.288-1.662.287-1.662,1.462v2.035a1.372,1.372,0,0,0,.622,1.074l9.444,5.452c.344.2.622.04.622-.355v-2.035A4.846,4.846,0,0,0,406.2,125.711Z"/><path class="dj" d="M541.387,257.061l-.588-.339v.98c0,.812-.573,1.139-1.281.73a2.821,2.821,0,0,1-1.281-2.21v-.98l-5.125-2.959v.98c0,.812-.574,1.14-1.282.731a2.825,2.825,0,0,1-1.281-2.21v-.98l-.587-.339c-.617-.356-1.121-.069-1.121.639v9.679a2.478,2.478,0,0,0,1.121,1.934l11.425,6.6c.616.356,1.121.068,1.121-.639v-9.679A2.481,2.481,0,0,0,541.387,257.061Zm.266,11.426-11.958-6.9v-8.332l11.958,6.9Zm-6.406-11.54-2.135-1.233v1.47l2.135,1.233Zm2.99,1.726L536.1,257.44v1.47l2.136,1.233Zm2.989,1.726-2.135-1.233v1.47l2.135,1.233Zm-8.969-3.218-2.135-1.233v1.47l2.135,1.233Zm2.99,1.726-2.135-1.233v1.471l2.135,1.232Zm2.99,1.726L536.1,259.4v1.471l2.136,1.232Zm2.989,1.726-2.135-1.233V262.6l2.135,1.233Zm-8.969-3.218-2.135-1.233v1.471l2.135,1.233Zm2.99,1.727-2.135-1.233v1.47l2.135,1.233Zm2.99,1.726-2.136-1.233v1.47l2.136,1.233Zm2.989,1.726-2.135-1.233v1.47l2.135,1.233Zm-8.969-3.218-2.135-1.233v1.47l2.135,1.233Zm2.99,1.726-2.135-1.233v1.47l2.135,1.233ZM531.83,253.5c.472.272.854.054.854-.487v-1.96a1.881,1.881,0,0,0-.854-1.474c-.471-.272-.854-.054-.854.487v1.961A1.885,1.885,0,0,0,531.83,253.5Zm7.688,4.438c.472.273.854.055.854-.487v-1.96a1.881,1.881,0,0,0-.854-1.473c-.472-.273-.854-.055-.854.487v1.96A1.881,1.881,0,0,0,539.518,257.942Z"/><path class="dk" d="M533.445,280.519c-3.509-2.026-6.355-.4-6.355,3.624a14.1,14.1,0,0,0,5.89,10.665v3.584l2.752-2.462c2.378.318,4.068-1.349,4.068-4.45A14,14,0,0,0,533.445,280.519Zm-2.512,6.6c-.386.22-1.012-.141-1.4-.806s-.386-1.384,0-1.6,1.012.141,1.4.807S531.318,286.9,530.933,287.116Zm3.211,1.854c-.386.221-1.012-.141-1.4-.806s-.386-1.384,0-1.6,1.011.141,1.4.807S534.53,288.751,534.144,288.97Zm3.211,1.855c-.386.22-1.011-.142-1.4-.807s-.386-1.384,0-1.6,1.011.142,1.4.807S537.741,290.605,537.355,290.825Z"/></g></svg>