<svg xmlns="http://www.w3.org/2000/svg" width="335.995" height="290.944" viewBox="0 0 335.995 290.944"><defs><style>.a{fill:#f8ce84;}.b{fill:#f09e5b;}.c{fill:#ed8945;}.d{fill:#ffad6e;}.e{fill:#ffc59e;}.f,.g{fill:#85583c;}.f{fill-rule:evenodd;}</style></defs><g transform="translate(-390.868 -432.037)"><g transform="translate(390.868 682.526)"><rect class="a" width="335.995" height="6.836" transform="translate(0 33.619)"/><rect class="a" width="335.995" height="6.836"/><rect class="b" width="41.188" height="26.783" transform="translate(147.404 6.836)"/><g transform="translate(3.092 6.836)"><rect class="b" width="41.188" height="26.783"/><rect class="b" width="41.188" height="26.783" transform="translate(288.624)"/></g></g><g transform="translate(404.88 432.037)"><rect class="c" width="100.712" height="12.724" transform="translate(101.494 77.322)"/><g transform="translate(101.494 0)"><rect class="d" width="100.712" height="83.147"/><g transform="translate(37.174 54.641)"><rect class="e" width="26.365" height="28.506"/></g><g transform="translate(37.174)"><rect class="e" width="26.365" height="28.506"/></g><g transform="translate(2.832 70.897)"><g transform="translate(13.208)"><g transform="translate(1.41 1.571)"><path class="f" d="M1461.176,861.937h0Zm-.2-1.874s0-.005-.006,0S1460.979,860.08,1460.974,860.063Zm-3.114,1.236h0Zm1.713,1.149h.218a1.216,1.216,0,0,0,.733-.231l.361-.456.006-.007a1.019,1.019,0,0,0,.187-.27.3.3,0,0,0-.007-.267l-.5-.819-.074-.122.136-.075.236-.13-2.008-.323-.639,1.6.228-.127.152-.085.1.131Zm-2.51,0h2.089l-.661-.892-.289.161-.021.012-.019.006a.346.346,0,0,1-.127.012.26.26,0,0,1-.164-.075.221.221,0,0,1-.063-.152.515.515,0,0,1,.053-.221l.71-1.772.05-.125.152.024,2.165.349c.252.045.362.127.387.223.029.115-.053.2-.159.27l-.012.007-.193.106.428.7a.557.557,0,0,1,.025.5,1.283,1.283,0,0,1-.238.353l-1.659,2.24a.99.99,0,0,1-.932.5h-1.9v-1.867C1456.685,862.519,1456.815,862.458,1457.063,862.448Z" transform="translate(-1451.6 -857.279)"/><path class="g" d="M1444.092,851.589h0Zm-1.75,1.155s0,0,0,.007S1442.357,852.732,1442.342,852.745Zm2.908,1.557h0Zm.56-1.754-.645,1.165.316.119.023.009.016.011a.264.264,0,0,1,.081.084.18.18,0,0,1,.015.157.256.256,0,0,1-.117.128.781.781,0,0,1-.248.081l-2.141.449-.151.032-.057-.122-.823-1.735c-.091-.2-.069-.327.013-.4a.362.362,0,0,1,.353-.032l.013,0,.209.08.464-.683a.776.776,0,0,1,.485-.289,1.827,1.827,0,0,1,.479-.02l2.913,0-1.342.329-1.589-.028h-.01a1.419,1.419,0,0,0-.369.013.415.415,0,0,0-.261.149l-.542.8-.08.119-.148-.057-.256-.1.763,1.609,1.929-.405-.249-.094-.166-.063.077-.14.723-1.3Z" transform="translate(-1440.878 -851.561)"/><path class="f" d="M1454.01,854.192l-1.473-1.948a1.088,1.088,0,0,0-.687-.41l.972-.271,1.573-.056a1.023,1.023,0,0,1,1,.4l1.027,1.359-1.852,1.008c-.289.154-.419.094-.562-.078Z" transform="translate(-1448.068 -851.503)"/><path class="f" d="M1439.4,864.659h0Zm2.005.8c.005,0,.007,0,.007,0C1441.4,865.458,1441.388,865.457,1441.408,865.462Zm.324-2.9h0Zm-2.036.669-.11.159a.814.814,0,0,0-.137.653l.281.5,0,.007a1.007,1.007,0,0,0,.179.273.428.428,0,0,0,.275.13l1.085.049.161.008.007.137.012.238,1.347-1.3-1.3-1.277.014.231.009.154-.182,0Zm1.273-1.835-1.059,1.527,1.241-.031-.017-.293v-.021l0-.017a.235.235,0,0,1,.052-.1.257.257,0,0,1,.159-.082.335.335,0,0,1,.187.031.69.69,0,0,1,.2.151l1.44,1.418.1.1-.1.1-1.452,1.406c-.174.161-.313.2-.423.169a.272.272,0,0,1-.193-.253v-.012l-.01-.194-.928-.042a.807.807,0,0,1-.523-.237,1.279,1.279,0,0,1-.238-.353l-1.434-2.349a.715.715,0,0,1-.034-.934l.965-1.392,1.9.947C1441.089,861.08,1441.084,861.206,1440.969,861.392Z" transform="translate(-1437.778 -857.704)"/></g><path class="g" d="M1443.95,845.659H1433.8a1.21,1.21,0,0,0-1.272,1.121v8.957a1.207,1.207,0,0,0,1.272,1.119h10.146a1.2,1.2,0,0,0,1.266-1.119V846.78a1.2,1.2,0,0,0-1.266-1.121Zm.507,9.935a.642.642,0,0,1-.67.594h-9.819a.638.638,0,0,1-.672-.594v-8.668a.634.634,0,0,1,.672-.594h9.819a.638.638,0,0,1,.67.594Z" transform="translate(-1432.532 -845.659)"/></g><g transform="translate(2.806 1.309)"><path class="g" d="M1400.676,881.375h-6.608a.2.2,0,1,1,0-.393h6.608a.2.2,0,1,1,0,.393Z" transform="translate(-1393.836 -872.796)"/><path class="f" d="M1397.554,852.034v5.853h-1.4V852.03l-.686,0,1.413-1.5,1.4,1.507Z" transform="translate(-1395.031 -850.529)"/><path class="f" d="M1410.314,852.045V857.9h-1.4v-5.857l-.686,0,1.413-1.5,1.4,1.506Z" transform="translate(-1404.361 -850.538)"/></g><path class="g" d="M1394.815,845.659H1384.67a1.21,1.21,0,0,0-1.273,1.121v8.957a1.207,1.207,0,0,0,1.273,1.119h10.146a1.2,1.2,0,0,0,1.265-1.119V846.78a1.2,1.2,0,0,0-1.265-1.121Zm.507,9.935a.642.642,0,0,1-.67.594h-9.819a.639.639,0,0,1-.672-.594v-8.668a.634.634,0,0,1,.672-.594h9.819a.637.637,0,0,1,.67.594Z" transform="translate(-1383.397 -845.659)"/></g></g><rect class="c" width="100.712" height="12.724" transform="translate(0 160.995)"/><rect class="c" width="100.712" height="12.724" transform="translate(101.495 160.995)"/><g transform="translate(0 167.342)"><rect class="d" width="100.712" height="83.147"/><g transform="translate(37.174 54.641)"><rect class="e" width="26.365" height="28.506"/></g><g transform="translate(37.174)"><rect class="e" width="26.365" height="28.506"/></g><g transform="translate(2.832 70.897)"><g transform="translate(13.208)"><g transform="translate(1.41 1.571)"><path class="f" d="M1083.616,1484.455h0Zm-.2-1.874s0-.005-.006,0S1083.419,1482.6,1083.414,1482.581Zm-3.114,1.236h0Zm1.713,1.149h.218a1.217,1.217,0,0,0,.733-.231l.361-.456.006-.007a1.013,1.013,0,0,0,.186-.27.3.3,0,0,0-.007-.267l-.5-.818-.074-.122.136-.075.236-.13-2.008-.323-.64,1.6.227-.127.152-.085.1.131Zm-2.51,0h2.089l-.661-.892-.289.161-.021.012-.019.005a.34.34,0,0,1-.127.012.258.258,0,0,1-.163-.075.221.221,0,0,1-.063-.152.517.517,0,0,1,.053-.221l.71-1.772.05-.125.152.025,2.165.349c.252.045.362.128.387.224.03.115-.053.2-.159.27l-.012.007-.193.106.428.7a.556.556,0,0,1,.025.5,1.282,1.282,0,0,1-.238.353l-1.659,2.24a.99.99,0,0,1-.932.5h-1.9v-1.867C1079.125,1485.037,1079.255,1484.976,1079.5,1484.966Z" transform="translate(-1074.04 -1479.797)"/><path class="g" d="M1066.532,1474.107Zm-1.75,1.156s0,0,0,.007S1064.8,1475.25,1064.782,1475.262Zm2.907,1.557h0Zm.56-1.754-.645,1.165.316.12.023.009.016.01a.267.267,0,0,1,.081.084.18.18,0,0,1,.015.157.254.254,0,0,1-.117.127.778.778,0,0,1-.248.081l-2.141.45-.151.032-.058-.122-.823-1.734c-.091-.2-.069-.327.013-.4a.361.361,0,0,1,.353-.032l.013,0,.209.08.464-.683a.774.774,0,0,1,.485-.289,1.833,1.833,0,0,1,.479-.021l2.913,0-1.341.329-1.589-.028h-.01a1.433,1.433,0,0,0-.368.013.414.414,0,0,0-.261.149l-.542.8-.081.119-.148-.057-.256-.1.763,1.608,1.929-.405-.249-.094-.166-.063.077-.14.722-1.3Z" transform="translate(-1063.318 -1474.079)"/><path class="f" d="M1076.451,1476.71l-1.473-1.949a1.086,1.086,0,0,0-.687-.41l.972-.271,1.573-.056a1.021,1.021,0,0,1,1,.4l1.027,1.359-1.852,1.008c-.289.154-.419.094-.562-.078Z" transform="translate(-1070.508 -1474.021)"/><path class="f" d="M1061.843,1487.177h0Zm2.005.8s.007,0,.007,0C1063.839,1487.975,1063.828,1487.974,1063.848,1487.98Zm.324-2.9h0Zm-2.036.67-.11.159a.811.811,0,0,0-.137.653l.28.5,0,.007a1.012,1.012,0,0,0,.18.273.429.429,0,0,0,.275.13l1.085.049.161.008.007.137.012.239,1.347-1.3-1.3-1.278.014.231.009.155-.182,0Zm1.273-1.836-1.059,1.527,1.241-.031-.017-.293v-.021l0-.017a.235.235,0,0,1,.052-.1.256.256,0,0,1,.159-.082.332.332,0,0,1,.187.031.683.683,0,0,1,.2.151l1.44,1.417.1.1-.1.1-1.452,1.406c-.174.161-.313.2-.423.17a.272.272,0,0,1-.193-.253V1488l-.01-.194-.928-.042a.808.808,0,0,1-.523-.237,1.278,1.278,0,0,1-.238-.353l-1.434-2.349a.715.715,0,0,1-.033-.934l.965-1.391,1.9.947C1063.529,1483.6,1063.524,1483.724,1063.409,1483.91Z" transform="translate(-1060.218 -1480.222)"/></g><path class="g" d="M1066.39,1468.177h-10.146a1.21,1.21,0,0,0-1.272,1.121v8.957a1.207,1.207,0,0,0,1.272,1.119h10.146a1.2,1.2,0,0,0,1.266-1.119V1469.3a1.2,1.2,0,0,0-1.266-1.121Zm.507,9.935a.642.642,0,0,1-.67.594h-9.819a.638.638,0,0,1-.672-.594v-8.668a.634.634,0,0,1,.672-.594h9.819a.638.638,0,0,1,.67.594Z" transform="translate(-1054.972 -1468.177)"/></g><g transform="translate(2.806 1.309)"><path class="g" d="M1023.116,1503.893h-6.607a.2.2,0,1,1,0-.393h6.607a.2.2,0,1,1,0,.393Z" transform="translate(-1016.277 -1495.314)"/><path class="f" d="M1019.994,1474.552v5.853h-1.4v-5.857l-.686,0,1.413-1.5,1.4,1.506Z" transform="translate(-1017.472 -1473.047)"/><path class="f" d="M1032.754,1474.563v5.853h-1.4v-5.857l-.686,0,1.413-1.5,1.4,1.507Z" transform="translate(-1026.801 -1473.055)"/></g><path class="g" d="M1017.255,1468.177h-10.146a1.21,1.21,0,0,0-1.272,1.121v8.957a1.207,1.207,0,0,0,1.272,1.119h10.146a1.2,1.2,0,0,0,1.265-1.119V1469.3a1.2,1.2,0,0,0-1.265-1.121Zm.507,9.935a.642.642,0,0,1-.67.594h-9.82a.638.638,0,0,1-.672-.594v-8.668a.634.634,0,0,1,.672-.594h9.82a.638.638,0,0,1,.67.594Z" transform="translate(-1005.837 -1468.177)"/></g></g><g transform="translate(0 83.673)"><rect class="d" width="100.712" height="83.147"/><g transform="translate(37.174 54.641)"><rect class="e" width="26.365" height="28.506"/></g><g transform="translate(37.174)"><rect class="e" width="26.365" height="28.506"/></g><g transform="translate(2.832 70.897)"><g transform="translate(13.208)"><g transform="translate(1.41 1.571)"><path class="f" d="M1083.616,1173.2h0Zm-.2-1.874s0-.005-.006,0S1083.419,1171.348,1083.414,1171.33Zm-3.114,1.236h0Zm1.713,1.149h.218a1.217,1.217,0,0,0,.733-.231l.361-.456.006-.007a1.02,1.02,0,0,0,.186-.27.3.3,0,0,0-.007-.267l-.5-.818-.074-.121.136-.075.236-.13-2.008-.323-.64,1.6.227-.127.152-.085.1.131Zm-2.51,0h2.089l-.661-.892-.289.161-.021.012-.019.005a.338.338,0,0,1-.127.012.258.258,0,0,1-.163-.075.222.222,0,0,1-.063-.152.518.518,0,0,1,.053-.221l.71-1.772.05-.125.152.025,2.165.349c.252.046.362.128.387.224.03.115-.053.2-.159.27l-.012.007-.193.106.428.7a.556.556,0,0,1,.025.5,1.284,1.284,0,0,1-.238.353l-1.659,2.24a.99.99,0,0,1-.932.5h-1.9v-1.867C1079.125,1173.786,1079.255,1173.725,1079.5,1173.715Z" transform="translate(-1074.04 -1168.546)"/><path class="g" d="M1066.532,1162.856Zm-1.75,1.156s0,0,0,.007S1064.8,1164,1064.782,1164.011Zm2.907,1.557h0Zm.56-1.754-.645,1.165.316.119.023.009.016.01a.266.266,0,0,1,.081.084.18.18,0,0,1,.015.157.255.255,0,0,1-.117.127.778.778,0,0,1-.248.081l-2.141.45-.151.032-.058-.122-.823-1.734c-.091-.2-.069-.327.013-.4a.361.361,0,0,1,.353-.032l.013,0,.209.08.464-.683a.774.774,0,0,1,.485-.289,1.833,1.833,0,0,1,.479-.021l2.913,0-1.341.329-1.589-.028h-.01a1.433,1.433,0,0,0-.368.013.414.414,0,0,0-.261.149l-.542.8-.081.119-.148-.056-.256-.1.763,1.608,1.929-.405-.249-.094-.166-.063.077-.139.722-1.3Z" transform="translate(-1063.318 -1162.828)"/><path class="f" d="M1076.451,1165.459l-1.473-1.948a1.086,1.086,0,0,0-.687-.41l.972-.271,1.573-.056a1.022,1.022,0,0,1,1,.4l1.027,1.359-1.852,1.008c-.289.154-.419.094-.562-.078Z" transform="translate(-1070.508 -1162.77)"/><path class="f" d="M1061.843,1175.926h0Zm2.005.8s.007,0,.007,0C1063.839,1176.725,1063.828,1176.723,1063.848,1176.729Zm.324-2.9h0Zm-2.036.67-.11.159a.811.811,0,0,0-.137.653l.28.5,0,.007a1.008,1.008,0,0,0,.18.273.428.428,0,0,0,.275.13l1.085.049.161.008.007.137.012.239,1.347-1.3-1.3-1.277.014.231.009.154-.182,0Zm1.273-1.836-1.059,1.527,1.241-.031-.017-.293v-.021l0-.017a.235.235,0,0,1,.052-.1.256.256,0,0,1,.159-.082.331.331,0,0,1,.187.031.678.678,0,0,1,.2.151l1.44,1.417.1.1-.1.1-1.452,1.406c-.174.161-.313.2-.423.17a.272.272,0,0,1-.193-.253v-.012l-.01-.194-.928-.042a.807.807,0,0,1-.523-.237,1.274,1.274,0,0,1-.238-.353l-1.434-2.349a.715.715,0,0,1-.033-.934l.965-1.392,1.9.947C1063.529,1172.347,1063.524,1172.473,1063.409,1172.659Z" transform="translate(-1060.218 -1168.971)"/></g><path class="g" d="M1066.39,1156.926h-10.146a1.21,1.21,0,0,0-1.272,1.121V1167a1.207,1.207,0,0,0,1.272,1.119h10.146a1.2,1.2,0,0,0,1.266-1.119v-8.958a1.2,1.2,0,0,0-1.266-1.121Zm.507,9.935a.642.642,0,0,1-.67.594h-9.819a.639.639,0,0,1-.672-.594v-8.669a.634.634,0,0,1,.672-.593h9.819a.638.638,0,0,1,.67.593Z" transform="translate(-1054.972 -1156.926)"/></g><g transform="translate(2.806 1.309)"><path class="g" d="M1023.116,1192.642h-6.607a.2.2,0,1,1,0-.393h6.607a.2.2,0,1,1,0,.393Z" transform="translate(-1016.277 -1184.063)"/><path class="f" d="M1019.994,1163.3v5.853h-1.4V1163.3l-.686,0,1.413-1.5,1.4,1.506Z" transform="translate(-1017.472 -1161.796)"/><path class="f" d="M1032.754,1163.312v5.853h-1.4v-5.857l-.686,0,1.413-1.5,1.4,1.507Z" transform="translate(-1026.801 -1161.804)"/></g><path class="g" d="M1017.255,1156.926h-10.146a1.21,1.21,0,0,0-1.272,1.121V1167a1.207,1.207,0,0,0,1.272,1.119h10.146a1.2,1.2,0,0,0,1.265-1.119v-8.958a1.2,1.2,0,0,0-1.265-1.121Zm.507,9.935a.642.642,0,0,1-.67.594h-9.82a.638.638,0,0,1-.672-.594v-8.669a.634.634,0,0,1,.672-.593h9.82a.638.638,0,0,1,.67.593Z" transform="translate(-1005.837 -1156.926)"/></g></g><g transform="translate(101.495 83.673)"><rect class="d" width="100.712" height="83.147"/><g transform="translate(37.173 54.641)"><rect class="e" width="26.365" height="28.506"/></g><g transform="translate(37.173)"><rect class="e" width="26.365" height="28.506"/></g><g transform="translate(2.832 70.897)"><g transform="translate(13.208)"><g transform="translate(1.41 1.571)"><path class="f" d="M1461.182,1173.2h0Zm-.2-1.874s0-.005-.006,0S1460.985,1171.348,1460.98,1171.33Zm-3.114,1.236h0Zm1.713,1.149h.218a1.216,1.216,0,0,0,.733-.231l.361-.456.006-.007a1.026,1.026,0,0,0,.186-.27.3.3,0,0,0-.007-.267l-.5-.818-.074-.121.136-.075.236-.13-2.008-.323-.639,1.6.227-.127.153-.085.1.131Zm-2.51,0h2.088l-.661-.892-.289.161-.021.012-.019.005a.338.338,0,0,1-.127.012.258.258,0,0,1-.163-.075.223.223,0,0,1-.063-.152.52.52,0,0,1,.053-.221l.71-1.772.05-.125.152.025,2.165.349c.252.046.362.128.387.224.03.115-.053.2-.159.27l-.012.007-.193.106.428.7a.557.557,0,0,1,.025.5,1.289,1.289,0,0,1-.238.353l-1.658,2.24a.99.99,0,0,1-.932.5h-1.9v-1.867C1456.691,1173.786,1456.821,1173.725,1457.069,1173.715Z" transform="translate(-1451.606 -1168.546)"/><path class="g" d="M1444.1,1162.856Zm-1.75,1.156s0,0,0,.007S1442.363,1164,1442.348,1164.011Zm2.908,1.557h0Zm.561-1.754-.645,1.165.316.119.023.009.016.01a.266.266,0,0,1,.081.084.18.18,0,0,1,.015.157.254.254,0,0,1-.117.127.778.778,0,0,1-.248.081l-2.141.45-.151.032-.058-.122-.823-1.734c-.091-.2-.069-.327.013-.4a.361.361,0,0,1,.353-.032l.013,0,.209.08.464-.683a.774.774,0,0,1,.485-.289,1.835,1.835,0,0,1,.479-.021l2.913,0-1.341.329-1.589-.028h-.01a1.435,1.435,0,0,0-.369.013.414.414,0,0,0-.26.149l-.542.8-.08.119-.148-.056-.256-.1.763,1.608,1.929-.405-.249-.094-.166-.063.077-.139.723-1.3Z" transform="translate(-1440.884 -1162.828)"/><path class="f" d="M1454.016,1165.459l-1.473-1.948a1.086,1.086,0,0,0-.687-.41l.972-.271,1.573-.056a1.022,1.022,0,0,1,1,.4l1.027,1.359-1.852,1.008c-.289.154-.419.094-.562-.078Z" transform="translate(-1448.074 -1162.77)"/><path class="f" d="M1439.409,1175.926h0Zm2.005.8s.007,0,.007,0C1441.4,1176.725,1441.394,1176.723,1441.414,1176.729Zm.324-2.9h0Zm-2.036.67-.111.159a.811.811,0,0,0-.137.653l.28.5,0,.007a1.006,1.006,0,0,0,.179.273.428.428,0,0,0,.275.13l1.085.049.161.008.007.137.012.239,1.347-1.3-1.3-1.277.014.231.009.154-.182,0Zm1.273-1.836-1.059,1.527,1.241-.031-.017-.293v-.021l0-.017a.239.239,0,0,1,.052-.1.256.256,0,0,1,.159-.082.331.331,0,0,1,.187.031.681.681,0,0,1,.2.151l1.44,1.417.1.1-.1.1-1.452,1.406c-.174.161-.313.2-.423.17a.272.272,0,0,1-.193-.253v-.012l-.01-.194-.928-.042a.807.807,0,0,1-.523-.237,1.28,1.28,0,0,1-.238-.353l-1.434-2.349a.715.715,0,0,1-.033-.934l.965-1.392,1.9.947C1441.095,1172.347,1441.09,1172.473,1440.975,1172.659Z" transform="translate(-1437.784 -1168.971)"/></g><path class="g" d="M1443.956,1156.926H1433.81a1.21,1.21,0,0,0-1.272,1.121V1167a1.207,1.207,0,0,0,1.272,1.119h10.146a1.2,1.2,0,0,0,1.266-1.119v-8.958a1.2,1.2,0,0,0-1.266-1.121Zm.507,9.935a.642.642,0,0,1-.67.594h-9.819a.639.639,0,0,1-.672-.594v-8.669a.634.634,0,0,1,.672-.593h9.819a.637.637,0,0,1,.67.593Z" transform="translate(-1432.538 -1156.926)"/></g><g transform="translate(2.806 1.309)"><path class="g" d="M1400.682,1192.642h-6.607a.2.2,0,1,1,0-.393h6.607a.2.2,0,1,1,0,.393Z" transform="translate(-1393.843 -1184.063)"/><path class="f" d="M1397.56,1163.3v5.853h-1.4V1163.3l-.686,0,1.413-1.5,1.4,1.506Z" transform="translate(-1395.038 -1161.796)"/><path class="f" d="M1410.32,1163.312v5.853h-1.4v-5.857l-.686,0,1.413-1.5,1.4,1.507Z" transform="translate(-1404.367 -1161.804)"/></g><path class="g" d="M1394.821,1156.926h-10.146a1.21,1.21,0,0,0-1.273,1.121V1167a1.207,1.207,0,0,0,1.273,1.119h10.146a1.2,1.2,0,0,0,1.265-1.119v-8.958a1.2,1.2,0,0,0-1.265-1.121Zm.507,9.935a.642.642,0,0,1-.67.594h-9.82a.638.638,0,0,1-.672-.594v-8.669a.634.634,0,0,1,.672-.593h9.82a.637.637,0,0,1,.67.593Z" transform="translate(-1383.403 -1156.926)"/></g></g><rect class="c" width="100.712" height="12.724" transform="translate(203.179 160.995)"/><g transform="translate(203.179 83.673)"><rect class="d" width="100.712" height="83.147"/><g transform="translate(37.174 54.641)"><rect class="e" width="26.365" height="28.506"/></g><g transform="translate(37.174)"><rect class="e" width="26.365" height="28.506"/></g><g transform="translate(2.832 70.897)"><g transform="translate(13.208)"><g transform="translate(1.41 1.571)"><path class="f" d="M1839.45,1173.2Zm-.2-1.874s0-.005-.006,0S1839.253,1171.348,1839.249,1171.33Zm-3.114,1.236h0Zm1.713,1.149h.218a1.217,1.217,0,0,0,.733-.231l.361-.456.006-.007a1.026,1.026,0,0,0,.186-.27.3.3,0,0,0-.007-.267l-.5-.818-.074-.121.136-.075.236-.13-2.008-.323-.639,1.6.227-.127.152-.085.1.131Zm-2.51,0h2.089l-.661-.892-.289.161-.021.012-.019.005a.339.339,0,0,1-.127.012.257.257,0,0,1-.163-.075.222.222,0,0,1-.064-.152.52.52,0,0,1,.053-.221l.71-1.772.05-.125.152.025,2.165.349c.252.046.362.128.387.224.029.115-.053.2-.159.27l-.012.007-.192.106.428.7a.556.556,0,0,1,.025.5,1.281,1.281,0,0,1-.238.353l-1.658,2.24a.989.989,0,0,1-.932.5h-1.9v-1.867C1834.959,1173.786,1835.089,1173.725,1835.337,1173.715Z" transform="translate(-1829.874 -1168.546)"/><path class="g" d="M1822.366,1162.856h0Zm-1.75,1.156s0,0,0,.007S1820.631,1164,1820.616,1164.011Zm2.907,1.557h0Zm.561-1.754-.645,1.165.316.119.023.009.016.01a.264.264,0,0,1,.081.084.179.179,0,0,1,.014.157.255.255,0,0,1-.117.127.779.779,0,0,1-.248.081l-2.142.45-.151.032-.058-.122-.823-1.734c-.091-.2-.069-.327.013-.4a.361.361,0,0,1,.353-.032l.013,0,.209.08.464-.683a.774.774,0,0,1,.485-.289,1.834,1.834,0,0,1,.479-.021l2.913,0-1.341.329-1.589-.028h-.01a1.435,1.435,0,0,0-.369.013.415.415,0,0,0-.261.149l-.542.8-.08.119-.148-.056-.256-.1.763,1.608,1.93-.405-.249-.094-.166-.063.077-.139.722-1.3Z" transform="translate(-1819.151 -1162.828)"/><path class="f" d="M1832.284,1165.459l-1.473-1.948a1.086,1.086,0,0,0-.687-.41l.972-.271,1.573-.056a1.021,1.021,0,0,1,1,.4l1.027,1.359-1.852,1.008c-.289.154-.419.094-.562-.078Z" transform="translate(-1826.342 -1162.77)"/><path class="f" d="M1817.676,1175.926h0Zm2.005.8c.005,0,.007,0,.007,0C1819.672,1176.725,1819.662,1176.723,1819.682,1176.729Zm.324-2.9h0Zm-2.036.67-.111.159a.813.813,0,0,0-.137.653l.281.5,0,.007a1.01,1.01,0,0,0,.18.273.427.427,0,0,0,.275.13l1.085.049.161.008.007.137.012.239,1.347-1.3-1.3-1.277.014.231.009.154-.182,0Zm1.273-1.836-1.059,1.527,1.241-.031-.017-.293v-.021l0-.017a.236.236,0,0,1,.052-.1.256.256,0,0,1,.159-.082.33.33,0,0,1,.187.031.68.68,0,0,1,.2.151l1.44,1.417.1.1-.1.1-1.452,1.406c-.174.161-.313.2-.423.17a.272.272,0,0,1-.193-.253v-.012l-.01-.194-.928-.042a.805.805,0,0,1-.523-.237,1.267,1.267,0,0,1-.238-.353l-1.435-2.349a.715.715,0,0,1-.033-.934l.965-1.392,1.9.947C1819.363,1172.347,1819.358,1172.473,1819.242,1172.659Z" transform="translate(-1816.051 -1168.971)"/></g><path class="g" d="M1822.224,1156.926h-10.146a1.21,1.21,0,0,0-1.272,1.121V1167a1.207,1.207,0,0,0,1.272,1.119h10.146a1.2,1.2,0,0,0,1.265-1.119v-8.958a1.2,1.2,0,0,0-1.265-1.121Zm.507,9.935a.642.642,0,0,1-.67.594h-9.819a.639.639,0,0,1-.672-.594v-8.669a.634.634,0,0,1,.672-.593h9.819a.637.637,0,0,1,.67.593Z" transform="translate(-1810.806 -1156.926)"/></g><g transform="translate(2.806 1.309)"><path class="g" d="M1778.949,1192.642h-6.608a.2.2,0,1,1,0-.393h6.608a.2.2,0,1,1,0,.393Z" transform="translate(-1772.11 -1184.063)"/><path class="f" d="M1775.828,1163.3v5.853h-1.4V1163.3l-.686,0,1.413-1.5,1.4,1.506Z" transform="translate(-1773.305 -1161.796)"/><path class="f" d="M1788.588,1163.312v5.853h-1.4v-5.857l-.686,0,1.413-1.5,1.4,1.507Z" transform="translate(-1782.635 -1161.804)"/></g><path class="g" d="M1773.089,1156.926h-10.146a1.21,1.21,0,0,0-1.273,1.121V1167a1.207,1.207,0,0,0,1.273,1.119h10.146a1.2,1.2,0,0,0,1.265-1.119v-8.958a1.2,1.2,0,0,0-1.265-1.121Zm.507,9.935a.642.642,0,0,1-.67.594h-9.819a.639.639,0,0,1-.672-.594v-8.669a.634.634,0,0,1,.672-.593h9.819a.637.637,0,0,1,.67.593Z" transform="translate(-1761.671 -1156.926)"/></g></g><g transform="translate(101.495 167.342)"><rect class="d" width="100.712" height="83.147"/><g transform="translate(37.173 54.641)"><rect class="e" width="26.365" height="28.506"/></g><g transform="translate(37.173)"><rect class="e" width="26.365" height="28.506"/></g><g transform="translate(2.832 70.897)"><g transform="translate(13.208)"><g transform="translate(1.41 1.571)"><path class="f" d="M1461.182,1484.455h0Zm-.2-1.874s0-.005-.006,0S1460.985,1482.6,1460.98,1482.581Zm-3.114,1.236h0Zm1.713,1.149h.218a1.215,1.215,0,0,0,.733-.231l.361-.456.006-.007a1.019,1.019,0,0,0,.186-.27.3.3,0,0,0-.007-.267l-.5-.818-.074-.122.136-.075.236-.13-2.008-.323-.639,1.6.227-.127.153-.085.1.131Zm-2.51,0h2.088l-.661-.892-.289.161-.021.012-.019.005a.341.341,0,0,1-.127.012.258.258,0,0,1-.163-.075.222.222,0,0,1-.063-.152.519.519,0,0,1,.053-.221l.71-1.772.05-.125.152.025,2.165.349c.252.045.362.128.387.224.03.115-.053.2-.159.27l-.012.007-.193.106.428.7a.557.557,0,0,1,.025.5,1.287,1.287,0,0,1-.238.353l-1.658,2.24a.99.99,0,0,1-.932.5h-1.9v-1.867C1456.691,1485.037,1456.821,1484.976,1457.069,1484.966Z" transform="translate(-1451.606 -1479.797)"/><path class="g" d="M1444.1,1474.107Zm-1.75,1.156s0,0,0,.007S1442.363,1475.25,1442.348,1475.262Zm2.908,1.557h0Zm.561-1.754-.645,1.165.316.12.023.009.016.01a.267.267,0,0,1,.081.084.18.18,0,0,1,.015.157.253.253,0,0,1-.117.127.778.778,0,0,1-.248.081l-2.141.45-.151.032-.058-.122-.823-1.734c-.091-.2-.069-.327.013-.4a.361.361,0,0,1,.353-.032l.013,0,.209.08.464-.683a.774.774,0,0,1,.485-.289,1.835,1.835,0,0,1,.479-.021l2.913,0-1.341.329-1.589-.028h-.01a1.435,1.435,0,0,0-.369.013.413.413,0,0,0-.26.149l-.542.8-.08.119-.148-.057-.256-.1.763,1.608,1.929-.405-.249-.094-.166-.063.077-.14.723-1.3Z" transform="translate(-1440.884 -1474.079)"/><path class="f" d="M1454.016,1476.71l-1.473-1.949a1.086,1.086,0,0,0-.687-.41l.972-.271,1.573-.056a1.021,1.021,0,0,1,1,.4l1.027,1.359-1.852,1.008c-.289.154-.419.094-.562-.078Z" transform="translate(-1448.074 -1474.021)"/><path class="f" d="M1439.409,1487.177h0Zm2.005.8s.007,0,.007,0C1441.4,1487.975,1441.394,1487.974,1441.414,1487.98Zm.324-2.9h0Zm-2.036.67-.111.159a.811.811,0,0,0-.137.653l.28.5,0,.007a1.011,1.011,0,0,0,.179.273.428.428,0,0,0,.275.13l1.085.049.161.008.007.137.012.239,1.347-1.3-1.3-1.278.014.231.009.155-.182,0Zm1.273-1.836-1.059,1.527,1.241-.031-.017-.293v-.021l0-.017a.239.239,0,0,1,.052-.1.256.256,0,0,1,.159-.082.332.332,0,0,1,.187.031.686.686,0,0,1,.2.151l1.44,1.417.1.1-.1.1-1.452,1.406c-.174.161-.313.2-.423.17a.272.272,0,0,1-.193-.253V1488l-.01-.194-.928-.042a.808.808,0,0,1-.523-.237,1.284,1.284,0,0,1-.238-.353l-1.434-2.349a.715.715,0,0,1-.033-.934l.965-1.391,1.9.947C1441.095,1483.6,1441.09,1483.724,1440.975,1483.91Z" transform="translate(-1437.784 -1480.222)"/></g><path class="g" d="M1443.956,1468.177H1433.81a1.21,1.21,0,0,0-1.272,1.121v8.957a1.207,1.207,0,0,0,1.272,1.119h10.146a1.2,1.2,0,0,0,1.266-1.119V1469.3a1.2,1.2,0,0,0-1.266-1.121Zm.507,9.935a.642.642,0,0,1-.67.594h-9.819a.638.638,0,0,1-.672-.594v-8.668a.634.634,0,0,1,.672-.594h9.819a.637.637,0,0,1,.67.594Z" transform="translate(-1432.538 -1468.177)"/></g><g transform="translate(2.806 1.309)"><path class="g" d="M1400.682,1503.893h-6.607a.2.2,0,1,1,0-.393h6.607a.2.2,0,1,1,0,.393Z" transform="translate(-1393.843 -1495.314)"/><path class="f" d="M1397.56,1474.552v5.853h-1.4v-5.857l-.686,0,1.413-1.5,1.4,1.506Z" transform="translate(-1395.038 -1473.047)"/><path class="f" d="M1410.32,1474.563v5.853h-1.4v-5.857l-.686,0,1.413-1.5,1.4,1.507Z" transform="translate(-1404.367 -1473.055)"/></g><path class="g" d="M1394.821,1468.177h-10.146a1.21,1.21,0,0,0-1.273,1.121v8.957a1.207,1.207,0,0,0,1.273,1.119h10.146a1.2,1.2,0,0,0,1.265-1.119V1469.3a1.2,1.2,0,0,0-1.265-1.121Zm.507,9.935a.642.642,0,0,1-.67.594h-9.82a.638.638,0,0,1-.672-.594v-8.668a.634.634,0,0,1,.672-.594h9.82a.637.637,0,0,1,.67.594Z" transform="translate(-1383.403 -1468.177)"/></g></g><g transform="translate(203.179 167.342)"><rect class="d" width="100.712" height="83.147"/><g transform="translate(37.174 54.641)"><rect class="e" width="26.365" height="28.506"/></g><g transform="translate(37.174)"><rect class="e" width="26.365" height="28.506"/></g><g transform="translate(2.832 70.897)"><g transform="translate(13.208)"><g transform="translate(1.41 1.571)"><path class="f" d="M1839.45,1484.455Zm-.2-1.874s0-.005-.006,0S1839.253,1482.6,1839.249,1482.581Zm-3.114,1.236h0Zm1.713,1.149h.218a1.216,1.216,0,0,0,.733-.231l.361-.456.006-.007a1.019,1.019,0,0,0,.186-.27.3.3,0,0,0-.007-.267l-.5-.818-.074-.122.136-.075.236-.13-2.008-.323-.639,1.6.227-.127.152-.085.1.131Zm-2.51,0h2.089l-.661-.892-.289.161-.021.012-.019.005a.341.341,0,0,1-.127.012.258.258,0,0,1-.163-.075.221.221,0,0,1-.064-.152.52.52,0,0,1,.053-.221l.71-1.772.05-.125.152.025,2.165.349c.252.045.362.128.387.224.029.115-.053.2-.159.27l-.012.007-.192.106.428.7a.556.556,0,0,1,.025.5,1.28,1.28,0,0,1-.238.353l-1.658,2.24a.99.99,0,0,1-.932.5h-1.9v-1.867C1834.959,1485.037,1835.089,1484.976,1835.337,1484.966Z" transform="translate(-1829.874 -1479.797)"/><path class="g" d="M1822.366,1474.107h0Zm-1.75,1.156s0,0,0,.007S1820.631,1475.25,1820.616,1475.262Zm2.907,1.557h0Zm.561-1.754-.645,1.165.316.12.023.009.016.01a.266.266,0,0,1,.081.084.18.18,0,0,1,.014.157.254.254,0,0,1-.117.127.779.779,0,0,1-.248.081l-2.142.45-.151.032-.058-.122-.823-1.734c-.091-.2-.069-.327.013-.4a.361.361,0,0,1,.353-.032l.013,0,.209.08.464-.683a.774.774,0,0,1,.485-.289,1.834,1.834,0,0,1,.479-.021l2.913,0-1.341.329-1.589-.028h-.01a1.435,1.435,0,0,0-.369.013.414.414,0,0,0-.261.149l-.542.8-.08.119-.148-.057-.256-.1.763,1.608,1.93-.405-.249-.094-.166-.063.077-.14.722-1.3Z" transform="translate(-1819.151 -1474.079)"/><path class="f" d="M1832.284,1476.71l-1.473-1.949a1.087,1.087,0,0,0-.687-.41l.972-.271,1.573-.056a1.021,1.021,0,0,1,1,.4l1.027,1.359-1.852,1.008c-.289.154-.419.094-.562-.078Z" transform="translate(-1826.342 -1474.021)"/><path class="f" d="M1817.676,1487.177h0Zm2.005.8c.005,0,.007,0,.007,0C1819.672,1487.975,1819.662,1487.974,1819.682,1487.98Zm.324-2.9h0Zm-2.036.67-.111.159a.813.813,0,0,0-.137.653l.281.5,0,.007a1.015,1.015,0,0,0,.18.273.427.427,0,0,0,.275.13l1.085.049.161.008.007.137.012.239,1.347-1.3-1.3-1.278.014.231.009.155-.182,0Zm1.273-1.836-1.059,1.527,1.241-.031-.017-.293v-.021l0-.017a.236.236,0,0,1,.052-.1.256.256,0,0,1,.159-.082.331.331,0,0,1,.187.031.685.685,0,0,1,.2.151l1.44,1.417.1.1-.1.1-1.452,1.406c-.174.161-.313.2-.423.17a.272.272,0,0,1-.193-.253V1488l-.01-.194-.928-.042a.806.806,0,0,1-.523-.237,1.271,1.271,0,0,1-.238-.353l-1.435-2.349a.715.715,0,0,1-.033-.934l.965-1.391,1.9.947C1819.363,1483.6,1819.358,1483.724,1819.242,1483.91Z" transform="translate(-1816.051 -1480.222)"/></g><path class="g" d="M1822.224,1468.177h-10.146a1.21,1.21,0,0,0-1.272,1.121v8.957a1.207,1.207,0,0,0,1.272,1.119h10.146a1.2,1.2,0,0,0,1.265-1.119V1469.3a1.2,1.2,0,0,0-1.265-1.121Zm.507,9.935a.642.642,0,0,1-.67.594h-9.819a.639.639,0,0,1-.672-.594v-8.668a.634.634,0,0,1,.672-.594h9.819a.637.637,0,0,1,.67.594Z" transform="translate(-1810.806 -1468.177)"/></g><g transform="translate(2.806 1.309)"><path class="g" d="M1778.949,1503.893h-6.608a.2.2,0,1,1,0-.393h6.608a.2.2,0,1,1,0,.393Z" transform="translate(-1772.11 -1495.314)"/><path class="f" d="M1775.828,1474.552v5.853h-1.4v-5.857l-.686,0,1.413-1.5,1.4,1.506Z" transform="translate(-1773.305 -1473.047)"/><path class="f" d="M1788.588,1474.563v5.853h-1.4v-5.857l-.686,0,1.413-1.5,1.4,1.507Z" transform="translate(-1782.635 -1473.055)"/></g><path class="g" d="M1773.089,1468.177h-10.146a1.21,1.21,0,0,0-1.273,1.121v8.957a1.207,1.207,0,0,0,1.273,1.119h10.146a1.2,1.2,0,0,0,1.265-1.119V1469.3a1.2,1.2,0,0,0-1.265-1.121Zm.507,9.935a.642.642,0,0,1-.67.594h-9.819a.638.638,0,0,1-.672-.594v-8.668a.634.634,0,0,1,.672-.594h9.819a.637.637,0,0,1,.67.594Z" transform="translate(-1761.671 -1468.177)"/></g></g></g></g></svg>