<svg xmlns="http://www.w3.org/2000/svg" width="455.357" height="335.231" viewBox="0 0 455.357 335.231"><defs><style>.a,.b{fill:#e6a56c;}.b{opacity:0.25;}.ab,.an,.b,.d,.i,.k,.y{mix-blend-mode:multiply;isolation:isolate;}.c{fill:#961939;}.d{fill:#a8b7ff;opacity:0.4;}.e{fill:#1a1635;}.f{fill:#292551;}.g{fill:#262b6b;}.h,.i{fill:#454e9d;}.i{opacity:0.39;}.j,.k{fill:#bd2047;}.k{opacity:0.19;}.l{fill:#4f0d1e;}.m{fill:#c2783a;}.an,.n{fill:#f39749;}.o{fill:#fff;}.p{fill:#f3bc8c;}.q{fill:#ce8865;}.ai,.al,.r{fill:none;stroke-miterlimit:10;}.r{stroke:#ce8865;}.s{fill:#cf234e;}.t{fill:#1f1b3d;}.u{fill:#3c3575;}.v{fill:#50479c;}.ab,.w,.y{fill:#cf7623;}.x{fill:#38326e;}.y{opacity:0.41;}.z{fill:#1f2357;}.aa{fill:#e0832b;}.ab{opacity:0.2;}.ac{fill:#fa9230;}.ad{fill:#a81c3f;}.ae{fill:#e0ae81;}.af{fill:#d99356;}.ag{fill:#ba906b;}.ah{fill:#3c8957;}.ai{stroke:#47a167;}.ai,.al{stroke-width:0.927px;}.aj{fill:#47a167;}.ak{fill:#459d64;}.al{stroke:#40b56a;}.am{fill:#40b56a;}.an{opacity:0.34;}</style></defs><g transform="translate(-249 -121.174)"><g transform="translate(361.904 149.818)"><g transform="translate(20.836 48.75)"><path class="a" d="M456.968,237.6c.341-3.145-1.271-3.734-1.271-3.734s-31.836-7.05-34.527-8.013-25.059-26.107-25.059-26.107-8.543-10.42-15.943-8.478c-6.43,1.686-9.107,6.548-10.135,11.239a13.924,13.924,0,0,0,5.907,14.532c10.681,7.133,32.073,21.2,37.173,22.915,11.352,3.809,42.318,1.907,42.318,1.907A9.964,9.964,0,0,0,456.968,237.6Z" transform="translate(-369.713 -191.029)"/><path class="b" d="M418.753,236.66c-2.249-4.554-5.055-11.555-4.987-17.7-7.453-7.743-17.656-19.211-17.656-19.211s-8.543-10.42-15.943-8.478c-6.43,1.686-9.107,6.549-10.135,11.239a13.924,13.924,0,0,0,5.907,14.532c10.681,7.133,32.073,21.2,37.173,22.915a42.85,42.85,0,0,0,8.534,1.633A40.172,40.172,0,0,1,418.753,236.66Z" transform="translate(-369.713 -191.029)"/><path class="c" d="M411.64,218.985c.356-.379.722-.742,1.08-1.117-7.326-7.685-16.61-18.12-16.61-18.12s-8.543-10.42-15.943-8.478c-6.43,1.686-9.107,6.548-10.135,11.239a13.924,13.924,0,0,0,5.907,14.532c6.092,4.068,15.667,10.391,23.717,15.392C402.7,227.22,407.553,223.355,411.64,218.985Z" transform="translate(-369.713 -191.029)"/></g><ellipse class="d" cx="41.876" cy="9.804" rx="41.876" ry="9.804" transform="translate(0 281.993)"/><g transform="translate(23.292 127.605)"><g transform="translate(18.212 145.447)"><path class="e" d="M389.942,393.784c.078-.3,10.976-.3,10.976-.3a63.866,63.866,0,0,0,10.109,6.828c5.747,2.963,12.508,2.573,13.98,6.485s-.592,4.014-.592,4.014-31.318.475-35.22-1C389.2,409.809,386.9,405.638,389.942,393.784Z" transform="translate(-388.367 -393.482)"/><path class="f" d="M396.806,393.5c1.8-.014,3.2-.014,3.2-.014a63.866,63.866,0,0,0,10.109,6.828c5.7,2.94,12.4,2.583,13.94,6.4C411.619,411.277,400.578,404.018,396.806,393.5Z" transform="translate(-387.456 -393.482)"/></g><path class="g" d="M371.929,284.842s11.185,43.892,13.015,53.546.479,24.347.829,32.329c.768,17.5,5.083,36.749,5.083,36.749-.435,4.535,16.418,6.8,16.853,2.268,0,0-1.318-4.462-1.935-30.614-.308-13.058,1.173-28.993,2.134-46.6s-5.1-62.024-5.1-62.024-8.414-11.264-19.68-7.544S371.929,284.842,371.929,284.842Z" transform="translate(-371.929 -262.203)"/></g><g transform="translate(5.192 132.028)"><g transform="translate(0 142.161)"><path class="e" d="M358.888,394.508s2.819,3.7,11.713,2.114c0,0,2.819,8.1,6.782,10.128s14.532,5.9,15.059,9.424-6.341,4.492-14.267,3.874-19.815-6.782-22.017-9.071S358.888,394.508,358.888,394.508Z" transform="translate(-355.592 -394.508)"/><path class="f" d="M385.813,415.078c-12.764.767-23.32-7.682-23.869-18.724a18.353,18.353,0,0,0,7.972.069s2.819,8.1,6.782,10.128c2.629,1.344,8.154,3.5,11.737,5.833-.025.117-.052.237-.075.358A2.829,2.829,0,0,1,385.813,415.078Z" transform="translate(-354.907 -394.309)"/></g><g transform="translate(0.783)"><path class="h" d="M362.971,286.786c.02,1.025,1.565,43.895-.838,57.807s-6.372,19.46-5.773,57.848l.583,8.316c-.8,4.013,14.947,7.153,15.747,3.139a109.112,109.112,0,0,1,2.841-32.913c4.336-17.814,19.924-66.4,21.531-95.223C398.627,257.682,362.468,261.429,362.971,286.786Z" transform="translate(-356.299 -266.195)"/><path class="i" d="M395.94,291.5c.209-1.983.369-3.9.472-5.738,1.565-28.077-34.594-24.33-34.091,1.027.005.261.11,3.235.222,7.743C374.367,296.827,385.592,296.541,395.94,291.5Z" transform="translate(-355.65 -266.195)"/></g></g><g transform="translate(4.364 42.969)"><path class="j" d="M379.576,185.844s-9.787-.923-19.389,10.71c-3.561,4.312-6.744,14.067-4.7,24.39,1,5.047,3.024,13.6,4.834,21.018A65.717,65.717,0,0,1,361,269.89c-1.234,6.446-2.781,20.193-2.385,22.407,1.289,7.216,51.747,6.417,51.232-3.376s-4.838-34.432-4.839-34.438c-.53-3.019-2.872-42.131-5.491-49.99C396.01,193.969,393.406,185.207,379.576,185.844Z" transform="translate(-354.845 -185.811)"/><path class="k" d="M391.783,250.715c4.219.189,8.628.474,12.979.35-.075-.848-.162-1.88-.259-3.074a85.767,85.767,0,0,1-6.354-7.34c-6.2-7.747-13.121-14.888-19.426-22.547-6.217-7.553-12.195-15.049-18.895-22.171-3.409,4.518-6.316,13.945-4.342,23.919.862,4.354,2.487,11.315,4.079,17.91a49.634,49.634,0,0,0,10.529,7.49A52.148,52.148,0,0,0,391.783,250.715Z" transform="translate(-354.845 -184.719)"/></g><path class="l" d="M410.214,156.716c-2.417-1-3.939,1.59-5.453,2.923a12.134,12.134,0,0,1-2.9,1.876c3.312-.2,6.077-.6,7.309-1.312,1.69-.981,2.041-2.045,1.856-2.979A3.3,3.3,0,0,0,410.214,156.716Z" transform="translate(-345.407 -146.007)"/><g transform="translate(92.154 58.328)"><rect class="m" width="62.044" height="53.55"/><rect class="n" width="46.625" height="53.55" transform="translate(15.419)"/><rect class="o" width="12.741" height="10.433" transform="translate(33.792)"/></g><g transform="translate(17.784)"><path class="o" d="M392.013,193.428a6.251,6.251,0,0,1-5.217,8.853,10.608,10.608,0,0,1-6.246-1.877c-3.318-2.092-9.663-6.3-8.614-10.982.459-2.047,2.7-3.143,4.761-3.561C383.1,184.56,389.306,187.258,392.013,193.428Z" transform="translate(-366.433 -142.871)"/><path class="e" d="M376.586,187.041a56.125,56.125,0,0,1-7.406-12.087c-3.556-7.648-2.135-18.628,7.791-23.646s19.5-.838,22.4,7.245S395.7,177.683,376.586,187.041Z" transform="translate(-366.909 -146.801)"/><path class="p" d="M377.088,174.575c0,.322-2.909,11.449-3.024,14.357-.294,7.49,14.768,14.161,15.488,8,.22-1.886.609-11.1.609-11.1Z" transform="translate(-366.191 -144.055)"/><path class="q" d="M376.7,175.273s1.092,15.767,9.2,16.924c4.479.639,4.318-10.541,4.318-10.541S390.94,170.706,376.7,175.273Z" transform="translate(-365.906 -144.1)"/><g transform="translate(8.385 6.7)"><path class="p" d="M382.16,153.319s9.352-1.891,14.188,4.863,2.831,11.22,2.965,13.192,2.036,18.379-5,19.53c-7.816,1.277-14.812-4.971-17.022-11.85a16.435,16.435,0,0,1-.968-5.394S369.6,157.083,382.16,153.319Z" transform="translate(-374.526 -153.075)"/></g><g transform="translate(19.653 19.147)"><path class="e" d="M388.629,169.676c0,.663-.351,1.2-.786,1.2s-.785-.536-.785-1.2.352-1.2.785-1.2S388.629,169.014,388.629,169.676Z" transform="translate(-384.442 -163.86)"/><path class="e" d="M394.988,168.882c0,.661-.351,1.2-.785,1.2s-.786-.536-.786-1.2.352-1.2.786-1.2S394.988,168.219,394.988,168.882Z" transform="translate(-383.756 -163.946)"/><path class="e" d="M388.938,166.33c-.327.065-.667.088-.968.133a4,4,0,0,0-.906.189,4.387,4.387,0,0,0-.871.425c-.151.08-.278.2-.432.287-.143.105-.276.226-.432.33l-.043.03a.378.378,0,0,1-.546-.487,3.989,3.989,0,0,1,.745-1.034,3.794,3.794,0,0,1,1.1-.756,3.33,3.33,0,0,1,1.344-.278,2.063,2.063,0,0,1,1.3.473.379.379,0,0,1-.168.663Z" transform="translate(-384.697 -164.217)"/><path class="e" d="M392.555,165.419a1.125,1.125,0,0,1,.63-.924,1.894,1.894,0,0,1,1.05-.175,2.153,2.153,0,0,1,1.593.973.386.386,0,0,1-.46.568l-.042-.016a3.232,3.232,0,0,0-1.171-.233,1.852,1.852,0,0,0-.451.068c-.134.029-.253.022-.489.084l-.163.043a.4.4,0,0,1-.485-.284A.429.429,0,0,1,392.555,165.419Z" transform="translate(-383.849 -164.31)"/></g><path class="e" d="M397.036,156.36a17.562,17.562,0,0,0-1.783-2.968l-.062.014c-1.349.368-1.445-.824-2.631-1.523-3.607-2.124-9.376-3.05-13.4-1.778-7.252,4.336-8.261,15.314-2.666,23.938a25.925,25.925,0,0,1,.66,2.573c.07.622,1.657.069.829-3.867s2.874-2.653,3.843-5.839c.645-2.118-.782-5.042,1.662-6.3,2.22-1.143,3.687-.942,5.905-.483a31.606,31.606,0,0,0,9.808.828A21.926,21.926,0,0,0,397.036,156.36Z" transform="translate(-366.316 -146.758)"/><g transform="translate(7.413 24.143)"><path class="p" d="M377.132,174.342c0-.151-1.406-5.523-1.406-5.523s-2.31,1.154-2.059,3.415a4.485,4.485,0,0,0,4.067,4.016Z" transform="translate(-373.649 -168.819)"/><path class="q" d="M375.363,170.511l1.071,3.849S373.724,172.954,375.363,170.511Z" transform="translate(-373.521 -168.636)"/></g><path class="j" d="M379.45,163.864c4.821-1.1,9.691-1.99,14.585-2.694,1.848-.266,3.7-.5,5.553-.71a16.457,16.457,0,0,0-32.629,2.634,15.719,15.719,0,0,0,.684,4.567A87.682,87.682,0,0,1,379.45,163.864Z" transform="translate(-366.958 -147.028)"/><path class="c" d="M383.958,161.792s4.57-9.072,9.694-9.764l16.15,2.884a4,4,0,0,1,2.909,2.067c.537,1.074.537,2.458-1.61,3.7C406.809,163.177,383.958,161.792,383.958,161.792Z" transform="translate(-365.123 -146.488)"/><path class="r" d="M391.661,170.776c-.173.548.335,1.11.89,1.261a5.682,5.682,0,0,0,1.717,0,1.764,1.764,0,0,1,1.556.562,1.421,1.421,0,0,1-.505,1.875,3.569,3.569,0,0,1-2.077.45" transform="translate(-364.296 -144.465)"/><path class="r" d="M385.806,177.536a9.685,9.685,0,0,0,6.217,2.1c2.133-.014,4.155-.461,5.469-2.184" transform="translate(-364.924 -143.744)"/><path class="r" d="M385.022,178.326a2.182,2.182,0,0,0,1.451-1.735" transform="translate(-365.008 -143.837)"/></g><g transform="translate(5.895 54.984)"><path class="p" d="M437.77,245.285s-30.971-10.2-33.553-11.424c-2.034-.966-15.276-17.374-20.8-24.293a56.974,56.974,0,0,0-4.621,4.346c-2.562,2.6-5.273,5-7.928,7.506-1.077,1.015-2.127,2.056-3.165,3.108,10.111,8.85,23.148,20.778,27.092,22.558,10.913,4.926,41.916,6.128,41.916,6.128a9.954,9.954,0,0,0,1.954-4.087C439.316,246.032,437.77,245.285,437.77,245.285Z" transform="translate(-354.989 -195.262)"/><path class="s" d="M380.173,234.763c1.291-1.171,2.625-2.246,3.858-3.479,2.213-2.214,4.439-4.415,6.741-6.537q1.685-1.556,3.431-3.034c-5.573-7.349-11.071-14.939-11.071-14.939s-7.459-11.222-15.016-10.03c-6.567,1.037-9.715,5.606-11.208,10.171a13.922,13.922,0,0,0,4.426,15.049c4.561,3.757,11.23,9.2,17.581,14.2C379.506,235.49,380.066,234.859,380.173,234.763Z" transform="translate(-356.227 -196.656)"/><path class="p" d="M445.458,238.552a9.359,9.359,0,0,1,2.979-1.59,2.5,2.5,0,0,1,2.887,1.192c.664,1.629-1.207,3.109-2.823,3.8s-3.6,1.81-3.345,3.55c.213,1.436,1.855,2.119,3.263,2.475a51.639,51.639,0,0,0,16.434,1.17,21.318,21.318,0,0,1-13.588,5.356c-4.923.218-9.813-.733-14.649-1.681-2.661-.521-5.488-1.126-7.42-3.03-2.995-2.95-2.425-7.881,1.8-7.975C436.057,241.707,441.12,241.431,445.458,238.552Z" transform="translate(-348.555 -192.314)"/></g></g><g transform="translate(547.032 121.174)"><path class="f" d="M6.725,0H135.274A6.725,6.725,0,0,1,142,6.725V281.413a0,0,0,0,1,0,0H0a0,0,0,0,1,0,0V6.725A6.725,6.725,0,0,1,6.725,0Z" transform="translate(9.417)"/><path class="t" d="M535.667,392.888V128.92H659.015V392.888Z" transform="translate(-516.093 -120.338)"/><g transform="translate(15.828 6.278)"><path class="u" d="M532.286,401.975l92.807-10.853V137.151s-36.184-3.391-92.807-10.31Z" transform="translate(-532.286 -126.841)"/><path class="v" d="M532.286,237.064V145.983l26.43,20.447,66.378,51.353v83.91Z" transform="translate(-532.286 -124.775)"/><g transform="translate(66.087 115.547)"><path class="w" d="M591.936,263.094l18.259-.173V231.5l-18.259-.37Z" transform="translate(-591.936 -231.133)"/><path class="n" d="M596.317,241.524a4.56,4.56,0,0,0,4.525,4.538,4.418,4.418,0,0,0,4.473-4.418,4.562,4.562,0,0,0-4.473-4.537A4.417,4.417,0,0,0,596.317,241.524Z" transform="translate(-591.463 -230.488)"/><path class="x" d="M597.864,250.108c0-.871.946-1.575,2.113-1.572s2.1.708,2.1,1.577a1.581,1.581,0,0,1-1.121,1.383v1.972c0,.405-.44.736-.983.737s-.985-.326-.985-.732V251.5A1.586,1.586,0,0,1,597.864,250.108Z" transform="translate(-591.296 -229.255)"/></g></g><rect class="f" width="157.325" height="8.309" transform="translate(0 274.765)"/></g><g transform="translate(475.508 167.459)"><ellipse class="d" cx="38.829" cy="9.804" rx="38.829" ry="9.804" transform="translate(75.297 269.339)"/><path class="q" d="M483.376,265.038c-.421-.716-.712-1.739-.09-2.288a2.018,2.018,0,0,1,1.821-.14l14.561,3.606a2.049,2.049,0,0,1,1.515.921,1.357,1.357,0,0,1-.438,1.491,3.564,3.564,0,0,1-1.5.675C493.519,270.792,486.682,270.665,483.376,265.038Z" transform="translate(-450.262 -152.21)"/><g transform="translate(30.898 49.483)"><path class="w" d="M568.885,215.1c-4.538-6.042-17.337-.235-17.337-.235s-25.81,3.621-32.871,3.674c-.69,4.064-1.764,8.112-2.418,12.111-.133.81-.249,1.622-.376,2.433,8.031,1.081,29.069.29,40.314,1.2,5.634.458,11.163.809,13.642-4.27C571.919,225.755,572.829,220.349,568.885,215.1Z" transform="translate(-477.603 -207.101)"/><path class="y" d="M550.093,214.865s-1.286.181-3.356.46c-3.1,3.264-6.194,6.5-9.444,9.635-2.7,2.6-5.824,5.443-7.931,8.756,8.754.085,18.763.033,25.38.571,5.634.458,11.163.809,13.642-4.27,2.08-4.261,2.989-9.667-.955-14.916C562.892,209.058,550.093,214.865,550.093,214.865Z" transform="translate(-476.148 -207.101)"/><g transform="translate(48.144 83.391)"><g transform="translate(0 131.681)"><path class="p" d="M557.012,402.008c-.071-.275-9.937-.274-9.937-.274s2.083,2.769-7.595,6.375c-5.485,2.043-12.882,2.135-14.215,5.677s.536,3.634.536,3.634,28.353.431,31.886-.905C557.688,416.515,559.762,412.739,557.012,402.008Z" transform="translate(-524.786 -401.734)"/><path class="e" d="M550.486,410.708c-3.141.988-13.557,1.767-15.713-1.849-4.287,1.406-8.439,1.743-9.508,4.586-1.333,3.542.536,3.634.536,3.634s28.353.429,31.886-.905c0,0,1.639-3.016.049-11.27C556.8,407.071,555.062,409.267,550.486,410.708Z" transform="translate(-524.786 -401.392)"/></g><path class="z" d="M573.528,303.378s-10.061,40.183-11.717,48.924-.379,19.216-.7,26.443c-.695,15.842-4.721,35.65-4.721,35.65.393,4.106-11.413,4.467-11.806.361,0,0,.522-5.74-.174-29.748-.342-11.82-5.74-20.944-6.611-36.882s7.767-57.733,7.767-57.733,7.617-10.2,17.818-6.83S573.528,303.378,573.528,303.378Z" transform="translate(-523.388 -282.88)"/></g><g transform="translate(79.559 81.452)"><g transform="translate(1.725 134.649)"><path class="p" d="M585.1,402.663s-2.55,3.348-10.6,1.913c0,0,2.177,4.665-6.139,9.169-3.543,1.919-13.155,5.342-13.634,8.531s5.74,4.066,12.916,3.509,17.939-6.14,19.933-8.213S585.1,402.663,585.1,402.663Z" transform="translate(-554.698 -402.663)"/><path class="e" d="M586.757,407.554c.372,1.377-1.807,3.983-2.651,4.917a15.342,15.342,0,0,1-5.295,3.682c-4.209,1.832-10.12,3.269-14.71,2.476a4.878,4.878,0,0,1-1.993-.7c-.111-.079-1.245-1.2-.973-1.34-3.207,1.6-6.152,3.426-6.411,5.157-.479,3.19,5.74,4.066,12.916,3.509s17.939-6.139,19.933-8.213C588.691,415.881,587.775,411.326,586.757,407.554Z" transform="translate(-554.698 -402.135)"/></g><path class="h" d="M587.2,298.821c4.958,20.355-8.872,26.095-4.939,59.23,1.507,12.692,5.769,17.617,5.227,52.373l-.527,7.528c.725,3.634-12,3.757-12.721.124,0,0-.181-10.952-4.107-27.08-1.8-7.385-7.152-19.655-11.028-34.331-4.589-17.372-5.126-43.264-5.915-57.408C551.773,273.836,581.766,276.511,587.2,298.821Z" transform="translate(-553.141 -281.13)"/><path class="i" d="M553.825,312.2a109.8,109.8,0,0,0,11.05.849,130.686,130.686,0,0,0,22.062-1.423c.364-.054.73-.117,1.095-.175a34.26,34.26,0,0,0-.831-12.63c-5.434-22.31-35.428-24.985-34.011.435C553.394,302.905,553.581,307.338,553.825,312.2Z" transform="translate(-553.141 -281.13)"/></g><path class="aa" d="M544.725,277.745c-1.567,8.7-3.789,18.957-6.084,30.042,5.58,2.082,11.182,4.059,17.208,4.4a117.71,117.71,0,0,0,14.926-.085c6.047-.43,16.384-.545,22.348-3.451-1.313-9.159-4.269-16.726-4.555-18.219-1.751-9.138-5.916-21.3-3.8-30.364,4.175-17.839,6.053-24.538,4.175-32.641-3.605-15.562-19.707-19.8-19.707-19.8C555.581,207,542.445,229.6,538.98,240c-2.587,7.761,7.464,15.047,7.933,20.515C547.169,263.507,545.248,274.762,544.725,277.745Z" transform="translate(-475.156 -207.612)"/><path class="ab" d="M575.744,260.277a62.015,62.015,0,0,0,11.391-15.808,88.168,88.168,0,0,0,1.777-10.165c-4.139,3.592-8.367,7.082-12.716,10.429a179.177,179.177,0,0,1-19.47,13.5,105.164,105.164,0,0,1-10.782,4.877c-.54,4.39-1.467,9.816-1.807,11.754-.044.244-.093.5-.138.747C555.856,273.922,566.865,269.07,575.744,260.277Z" transform="translate(-474.569 -204.732)"/><path class="p" d="M497.583,257.568c-1.057-.259-2.535-1.15-2.965-.151-.669,1.552,1.194,3.01,2.734,3.7s3.334,1.807,3.053,3.473c-.23,1.375-2.047,2.419-3.407,2.733-4.075.945-10.1-1.028-14.29-1.2-1.11-.045-1.582.616-1.3,1.6a20.487,20.487,0,0,0,12.955,5.4c4.725.3,9.442-.521,14.1-1.341,2.568-.451,7.159-1.256,9.052-3.049,2.933-2.779,2.4-7.12-1.615-6.509C507.092,263.568,498.64,257.827,497.583,257.568Z" transform="translate(-481.332 -202.287)"/><path class="ac" d="M512.294,265.515s33.024-7.594,35.6-8.756c2.027-.915,17.031-16.911,22.62-23.638,8.965-10.769,16.724-10.557,19.6-7.161,3.254,3.848,4.627,11.407-8.227,20.4-10.153,8.543-23.255,20.071-27.184,21.754-10.87,4.654-41.505,5.246-41.505,5.246a9.822,9.822,0,0,1-1.853-4.073C510.754,266.222,512.294,265.515,512.294,265.515Z" transform="translate(-478.108 -205.855)"/></g><path class="o" d="M555.174,228.086s5.909,1.662,4.432,7.934c-1.038,4.406,17.727-17.746,15.88-24.45,0,0-5.54-6.415-11.633-4.443,0,0-15.245,6.408-15.6,23.82-.006.285.564.594.739.369C550.3,229.625,551.3,226.331,555.174,228.086Z" transform="translate(-443.212 -158.223)"/><g transform="translate(107.623 1.356)"><path class="ad" d="M590.912,172.588c2.324,4.778,1.537,10.285,1.067,15.523s-.414,10.962,3.161,15.059c1.432,1.641,3.509,3.348,2.969,5.4-.478,1.816-2.843,2.73-4.917,2.779-4.8.112-9.1-2.9-11.4-6.635s-2.967-8.109-3.436-12.383-.8-8.635-2.538-12.617c-1.59-3.641-9.554-13.812-1.085-15.349C581.159,163.2,588.438,167.5,590.912,172.588Z" transform="translate(-548.392 -164.174)"/><g transform="translate(0.64 9.132)"><g transform="translate(2.731 30.102)"><path class="ae" d="M571.158,214.969s-8.487,15.84-16.53,12.692c-3.848-2.8,4.635-14.14,4.635-14.14.465-1.4.4-9.487-.764-12.137,1.44-2.22,10.153-2.676,12.659.311C570.025,206.035,571.158,214.969,571.158,214.969Z" transform="translate(-553.626 -199.587)"/><path class="q" d="M567.054,206.365a19.084,19.084,0,0,1-6.063,2.8c-.64.191-1.3.361-1.961.51a27.144,27.144,0,0,0-1.006-8.289c1.44-2.22,10.153-2.676,12.659.311-.027.1-.05.207-.074.314A14.662,14.662,0,0,1,567.054,206.365Z" transform="translate(-553.152 -199.587)"/></g><path class="p" d="M574.384,179.624c-3.181-4.113-1.42-6.834-7.022-7.043-.185-.008-.381,0-.574,0s-.387-.033-.572-.04c-5.6-.209-7.726-.582-11.384,3.16-4.734,4.838-3.464,14.678-3.613,17.815-.422,8.935,1.384,14.344,7.481,14.927,3.38.606,7.624-.876,12.723-3.812,3.778-2.864,5.9-5.345,6.362-9.969C578.1,191.53,576.372,182.194,574.384,179.624Z" transform="translate(-551.161 -172.417)"/><g transform="translate(0.462 12.108)"><path class="e" d="M559.073,189.019c0,.7.371,1.267.83,1.267s.831-.567.831-1.267-.372-1.267-.831-1.267S559.073,188.319,559.073,189.019Z" transform="translate(-550.77 -182.87)"/><ellipse class="e" cx="0.83" cy="1.267" rx="0.83" ry="1.267" transform="translate(0.853 3.952)"/><path class="e" d="M559.562,185.712c.346.069.706.093,1.025.141a4.243,4.243,0,0,1,.957.2,4.689,4.689,0,0,1,.922.451c.158.083.294.208.458.3.15.112.29.239.455.35l.047.031a.4.4,0,0,0,.577-.515,4.233,4.233,0,0,0-.787-1.094,3.987,3.987,0,0,0-1.166-.8,3.514,3.514,0,0,0-1.42-.3,2.195,2.195,0,0,0-1.375.5.4.4,0,0,0,.177.7Z" transform="translate(-550.766 -183.222)"/><path class="e" d="M555.1,184.518a1.19,1.19,0,0,0-.666-.977,2,2,0,0,0-1.11-.185,2.282,2.282,0,0,0-1.685,1.028.409.409,0,0,0,.486.6l.044-.017a3.455,3.455,0,0,1,1.239-.247,2.046,2.046,0,0,1,.476.072c.142.031.267.024.516.09l.172.045a.422.422,0,0,0,.514-.3A.48.48,0,0,0,555.1,184.518Z" transform="translate(-551.579 -183.345)"/><g transform="translate(0.636 7.246)"><path class="af" d="M554.921,194.9c.071,0,.141,0,.211-.01l-.07-.792a2.352,2.352,0,0,1-1.816-.754,1.117,1.117,0,0,1-.3-.748,3.988,3.988,0,0,0,2.933-2.519l-.773-.188a3.24,3.24,0,0,1-2.57,1.975l-.264.039-.065.258a1.871,1.871,0,0,0,.432,1.7A3.141,3.141,0,0,0,554.921,194.9Z" transform="translate(-552.153 -189.885)"/></g><g transform="translate(8.705 12.405)"><path class="af" d="M562.013,197.475l.556-.566a1.732,1.732,0,0,0-.4-.274,7.174,7.174,0,0,1-1.047-.716,5.77,5.77,0,0,1-.741-.934c-.109-.158-.213-.31-.316-.443l-.63.486c.094.123.189.261.29.408a6.453,6.453,0,0,0,.849,1.06,7.539,7.539,0,0,0,1.184.821C561.879,197.389,561.972,197.444,562.013,197.475Z" transform="translate(-559.436 -194.542)"/></g><g transform="translate(0.465 13.351)"><path class="af" d="M556.191,197.785a19.737,19.737,0,0,0,5.231-.992l.435-.125-.218-.766-.439.125c-2.7.779-6.775,1.953-8.545-.632l-.657.45A4.739,4.739,0,0,0,556.191,197.785Z" transform="translate(-551.998 -195.396)"/></g></g></g><g transform="translate(0 2.704)"><path class="j" d="M576.262,173.512c.234.974-2.388,2.894-3.073,3.542-1.687,1.6-4.9,3.332-6.459,3.387-4.48.156-6.048-.505-8.96-.626-3.448-.142-6.182.5-6.14,4.253-1.367-3.341-1.645-9.076.7-12.112,3.786-4.9,14.231-6.829,19.69-4.09A8.522,8.522,0,0,1,576.262,173.512Z" transform="translate(-550.583 -166.615)"/><path class="j" d="M574.667,191.832a9.047,9.047,0,0,1-4.885-6.1c-.347-1.859-1.349-5.49-.842-7.308.7-2.507,3.829-3.2,4.749-5.727,2.046-1.228,4.4.937,5.766,2.3a13.421,13.421,0,0,1,3.767,8.141c.527,4.691.157,10.412-2.967,14-1.1,1.26-4.528,4.01-7.182,4.289C573.4,201.495,577.508,190.729,574.667,191.832Z" transform="translate(-548.618 -165.997)"/><g transform="translate(24.681 25.2)"><path class="p" d="M573.477,189.894a3.494,3.494,0,0,1,1.69-.534c1.464,0,3.066.67,3.066,2.622a4.185,4.185,0,0,1-3.594,4.107,2.382,2.382,0,0,1-1.778-.24A41.361,41.361,0,0,1,573.477,189.894Z" transform="translate(-572.86 -189.36)"/><g transform="translate(1.839 1.477)"><path class="ag" d="M574.829,190.708a1.34,1.34,0,0,1,.151-.016c.835,0,1.749.382,1.749,1.5a2.387,2.387,0,0,1-2.051,2.344,1.566,1.566,0,0,1-.158.022C575.5,192.193,575.5,192.037,574.829,190.708Z" transform="translate(-574.52 -190.693)"/></g></g><path class="j" d="M568.969,178.1c-3.152,8.22,5.63,20.493,5.63,20.493l.031-9.824Z" transform="translate(-548.673 -165.375)"/></g><g transform="translate(18.241 12.828)"><path class="j" d="M574.758,208.656c1.177-2.573.147-5.356-.572-6.785a28.018,28.018,0,0,0-2.122-3.38c-.51-.73-1.037-1.487-1.5-2.257a19.925,19.925,0,0,1,.034-20.052l-.714-.43a20.778,20.778,0,0,0-.035,20.911c.475.794,1.01,1.562,1.528,2.3a27.24,27.24,0,0,1,2.062,3.278,7.146,7.146,0,0,1,.558,6.064Z" transform="translate(-567.048 -175.752)"/></g></g><path class="q" d="M499.462,188.487c-2.184-3.309-4.417-6.673-7.5-9.174s-7.188-4.046-11.046-3.13c-2.957.7-5.728,3.387-5.291,6.395.326,2.248,1.806,4.95,4.058,5.248,9.837,1.3,9.19,8.779,18.239,12.38a3.552,3.552,0,0,0,1.754.369c1.934.12,4.216-2.556,4.166-4.685C503.792,193.519,500.725,190.4,499.462,188.487Z" transform="translate(-451.055 -161.55)"/><g transform="translate(0 4.926)"><path class="ah" d="M489.887,183.577a136.193,136.193,0,0,0-8.977,12.407c-5.872-5.625-15.161-11.775-27.465-19.738,3.582-2.606,7.867-5.492,12.835-8.85C477.49,173.727,485.446,178.685,489.887,183.577Z" transform="translate(-453.444 -167.396)"/><path class="ai" d="M456.1,176.076c2.83-2.123,6.069-4.425,9.71-6.99,9.67,5.6,16.82,10.159,21.263,14.558-2.729,3.363-5.1,6.467-7.1,9.4C474.576,188.112,466.53,182.749,456.1,176.076Z" transform="translate(-453.157 -167.214)"/><path class="aj" d="M475.792,178.145a4.6,4.6,0,0,1-3.446,4.9,4.836,4.836,0,0,1-5.582-2.75c-.808-2.055.777-4.037,3.505-4.624S475.455,176.108,475.792,178.145Z" transform="translate(-452.029 -166.521)"/></g><g transform="translate(7.318)"><path class="ak" d="M493.027,185.044a136.107,136.107,0,0,0-12.068,9.43c-4.081-7.033-11.3-15.519-20.911-26.582,4.164-1.51,9.082-3.093,14.786-4.941C483.851,172.142,490.118,179.112,493.027,185.044Z" transform="translate(-460.049 -162.95)"/><path class="al" d="M462.6,168.55c3.308-1.255,7.059-2.568,11.268-4.023,7.737,8.066,13.344,14.426,16.391,19.886-3.554,2.473-6.693,4.8-9.426,7.063C477.01,185.239,470.767,177.854,462.6,168.55Z" transform="translate(-459.774 -162.78)"/><path class="am" d="M481.822,177.336a4.6,4.6,0,0,1-4.669,3.749,4.835,4.835,0,0,1-4.6-4.189c-.2-2.2,1.867-3.664,4.651-3.471S482.064,175.284,481.822,177.336Z" transform="translate(-458.701 -161.821)"/></g><path class="p" d="M484.994,180.378c-.761-.171-1.941.071-2.23.8a1.832,1.832,0,0,0,.554,2.124c2.152,1.968,5.216,1.662,7.387,5.909.525,1.028,1.061,7.5,7.847,10.41.448.192,6.362.725,5.054-3.6-2.008-6.648-4.986-10.041-7.34-11.633-1.59-1.076-3.625-1.421-5.239-2.1A34.371,34.371,0,0,0,484.994,180.378Z" transform="translate(-450.295 -161.075)"/><path class="w" d="M518.245,234.837c.255-.41.5-.824.76-1.232,2.3-3.654,5.081-7.2,7.459-10.925a2.5,2.5,0,0,1-.429-.273c-2.1-1.881-23.63-28.183-23.63-28.183s-1.271-1.122-3.839.657a9.843,9.843,0,0,0-2.974,3.344s12.956,27.768,21.616,35.819A8.763,8.763,0,0,0,518.245,234.837Z" transform="translate(-448.895 -159.612)"/></g><g transform="translate(249 318.385)"><ellipse class="d" cx="47.087" cy="6.371" rx="47.087" ry="6.371" transform="translate(0 115.778)"/><g transform="translate(7.795 61.473)"><rect class="m" width="78.952" height="62.06"/><rect class="n" width="53.963" height="62.06" transform="translate(24.989)"/><rect class="o" width="14.766" height="12.091" transform="translate(48.538)"/></g><g transform="translate(7.795 0)"><rect class="m" width="78.952" height="62.06" transform="translate(78.952 62.06) rotate(180)"/><rect class="n" width="53.963" height="62.06" transform="translate(53.963 62.06) rotate(180)"/><path class="an" d="M268.762,346.085c-5.644-4.228-9.442-9.824-12.726-15.881v27.681h47.886C291.4,356.831,279.148,353.863,268.762,346.085Z" transform="translate(-256.036 -295.825)"/><rect class="o" width="14.766" height="12.091" transform="translate(30.414 12.091) rotate(180)"/></g></g></g></svg>