<svg xmlns="http://www.w3.org/2000/svg" xmlns:xlink="http://www.w3.org/1999/xlink" width="450.901" height="261.208" viewBox="0 0 450.901 261.208"><defs><style>.a{fill:none;}.b{fill:#f2be79;}.c{fill:#ef9a6f;}.d{fill:#4396ca;}.e{fill:#ffcb2f;}.f{fill:#61b3db;}.g{fill:#025482;}.h{fill:#fff;}.i{fill:#fcd26d;}.j{fill:#efc036;}.k{fill:#f4efe9;}.l{clip-path:url(#a);}.m{fill:#2d80aa;}.n{fill:#062c3f;}.o{clip-path:url(#b);}.p{fill:#abedff;}.q{fill:#cff6ff;}</style><clipPath id="a"><path class="a" d="M334.27,252.29a5.42,5.42,0,0,0-5.017-3.368H191.4L180.344,276H343.953Z" transform="translate(-180.344 -248.922)"/></clipPath><clipPath id="b"><path class="a" d="M148.752,462.157s-7.986-54.3,7.186-91.827,35.131-54.294,35.131-54.294-5.588-59.089,9.583-60.686,15.172-3.194,15.172,23.954,8.783,87.035.8,87.035-22.357,21.56-23.954,47.909a219.824,219.824,0,0,0,2.4,47.909Z" transform="translate(-146.652 -254.597)"/></clipPath></defs><g transform="translate(-145.337 -240.269)"><g transform="translate(150.187 293.12)"><path class="b" d="M148.752,462.157s-7.986-54.3,7.186-91.827,35.131-54.294,35.131-54.294-5.588-59.089,9.583-60.686,15.172-3.194,15.172,23.954,8.783,87.035.8,87.035-22.357,21.56-23.954,47.909a219.824,219.824,0,0,0,2.4,47.909Z" transform="translate(-146.652 -254.597)"/></g><g transform="translate(199.964 298.58)"><path class="c" d="M173,263.557a6.469,6.469,0,1,1-5.378-7.4A6.469,6.469,0,0,1,173,263.557Z" transform="translate(-160.146 -256.077)"/></g><g transform="translate(210.005 240.269)"><path class="d" d="M446.234,436.179H180.471a17.363,17.363,0,0,1-17.6-17.108V257.381a17.364,17.364,0,0,1,17.6-17.112H446.234a17.364,17.364,0,0,1,17.6,17.112v161.69A17.363,17.363,0,0,1,446.234,436.179Z" transform="translate(-162.868 -240.269)"/></g><g transform="translate(223.952 252.479)"><path class="e" d="M415.426,415.074H182.562c-8.786,0-15.913-6.706-15.913-14.98V258.555c0-8.27,7.126-14.976,15.913-14.976H415.426c8.786,0,15.913,6.706,15.913,14.976V400.094C431.339,408.368,424.212,415.074,415.426,415.074Z" transform="translate(-166.649 -243.579)"/></g><g transform="translate(288.327 295.072)"><rect class="f" width="135.94" height="95.218" rx="1.583"/></g><g transform="translate(316.336 323.076)"><rect class="g" width="79.923" height="38.881" rx="1.903"/></g><g transform="translate(338.095 336.452)"><path class="h" d="M197.593,279V266.344h6.422a3.779,3.779,0,0,1,2.922,1.011,3.337,3.337,0,0,1,.918,2.309,2.916,2.916,0,0,1-.535,1.712,2.725,2.725,0,0,1-1.59,1.051,2.818,2.818,0,0,1,2.457,2.947,3.979,3.979,0,0,1-.867,2.519c-.575.734-1.811,1.107-3.7,1.107Zm3.578-7.805h1.8a1.08,1.08,0,0,0,1.236-1.077c0-.7-.435-1.055-1.3-1.055h-1.734Zm0,4.987h1.889a1.369,1.369,0,0,0,1.037-.35,1.107,1.107,0,0,0,.328-.782,1.185,1.185,0,0,0-.321-.8,1.506,1.506,0,0,0-1.173-.365h-1.76Z" transform="translate(-197.593 -266.344)"/><path class="h" d="M211.513,266.344v8.381a3.982,3.982,0,0,1-1.413,3.427,6.058,6.058,0,0,1-3.685,1.04,6.655,6.655,0,0,1-3.844-1,3.681,3.681,0,0,1-1.45-3.261v-8.587h3.951v8.13a1.917,1.917,0,0,0,.384,1.328,1.6,1.6,0,0,0,1.225.417,2.007,2.007,0,0,0,1.151-.3,1.158,1.158,0,0,0,.535-.682,7.89,7.89,0,0,0,.088-1.483v-7.407Z" transform="translate(-188.105 -266.344)"/><path class="h" d="M216.349,266.344l-3.962,7.3V279h-3.773v-5.36l-4.257-7.3h4.249l2.217,4.172,2.128-4.172Z" transform="translate(-179.407 -266.344)"/></g><g transform="translate(274.468 272.187)"><path class="i" d="M333.86,251.286a3.806,3.806,0,0,0-3.523-2.365H194.446a4.532,4.532,0,0,0-4.194,2.818L180.344,276H343.953Z" transform="translate(-180.344 -248.922)"/><g transform="translate(0 27.079)"><path class="j" d="M185.593,265.031h-.1a5.142,5.142,0,0,1-5.146-5.142v-3.626h10.391v3.626A5.142,5.142,0,0,1,185.593,265.031Z" transform="translate(-180.344 -256.263)"/></g><g transform="translate(21.166 27.079)"><path class="j" d="M191.811,265.031H191.7a5.4,5.4,0,0,1-5.618-5.142v-3.626h11.346v3.626A5.4,5.4,0,0,1,191.811,265.031Z" transform="translate(-186.082 -256.263)"/></g><g transform="translate(42.667 27.079)"><path class="j" d="M197.879,265.031h-.118c-3.231,0-5.85-2.3-5.85-5.142v-3.626h11.822v3.626C203.733,262.729,201.114,265.031,197.879,265.031Z" transform="translate(-191.911 -256.263)"/></g><g transform="translate(64.644 27.079)"><path class="j" d="M203.933,265.031h-.118c-3.287,0-5.946-2.3-5.946-5.142v-3.626h12.01v3.626C209.879,262.729,207.22,265.031,203.933,265.031Z" transform="translate(-197.869 -256.263)"/></g><g transform="translate(86.906 27.079)"><path class="j" d="M209.85,265.031h-.118c-3.22,0-5.828-2.3-5.828-5.142v-3.626h11.774v3.626C215.678,262.729,213.07,265.031,209.85,265.031Z" transform="translate(-203.904 -256.263)"/></g><g transform="translate(108.691 27.079)"><path class="j" d="M215.756,265.031h-.118c-3.217,0-5.828-2.3-5.828-5.142v-3.626h11.774v3.626C221.584,262.729,218.976,265.031,215.756,265.031Z" transform="translate(-209.81 -256.263)"/></g><g transform="translate(130.86 27.079)"><path class="j" d="M221.645,265.031h-.114a5.448,5.448,0,0,1-5.71-5.142v-3.626h11.535v3.626A5.448,5.448,0,0,1,221.645,265.031Z" transform="translate(-215.82 -256.263)"/></g><g transform="translate(152.978 27.079)"><path class="j" d="M227.209,265.031H227.1a5.216,5.216,0,0,1-5.286-5.142v-3.626h10.679v3.626A5.214,5.214,0,0,1,227.209,265.031Z" transform="translate(-221.816 -256.263)"/></g><g transform="translate(10.391 27.079)"><path class="k" d="M188.6,265.031h-.107a5.242,5.242,0,0,1-5.334-5.142v-3.626h10.775v3.626A5.24,5.24,0,0,1,188.6,265.031Z" transform="translate(-183.161 -256.263)"/></g><g transform="translate(32.512 27.079)"><path class="k" d="M194.285,265.031h-.1a5.085,5.085,0,0,1-5.028-5.142v-3.626h10.155v3.626A5.085,5.085,0,0,1,194.285,265.031Z" transform="translate(-189.158 -256.263)"/></g><g transform="translate(54.464 27.079)"><path class="k" d="M200.288,265.031h-.1a5.109,5.109,0,0,1-5.076-5.142v-3.626H205.36v3.626A5.108,5.108,0,0,1,200.288,265.031Z" transform="translate(-195.109 -256.263)"/></g><g transform="translate(76.681 27.079)"><path class="k" d="M206.307,265.031h-.1a5.108,5.108,0,0,1-5.072-5.142v-3.626h10.247v3.626A5.106,5.106,0,0,1,206.307,265.031Z" transform="translate(-201.132 -256.263)"/></g><g transform="translate(98.658 27.079)"><path class="k" d="M212.144,265.031h-.1a5.05,5.05,0,0,1-4.954-5.142v-3.626H217.1v3.626A5.053,5.053,0,0,1,212.144,265.031Z" transform="translate(-207.09 -256.263)"/></g><g transform="translate(120.443 27.079)"><path class="k" d="M218.293,265.031h-.107a5.166,5.166,0,0,1-5.19-5.142v-3.626h10.487v3.626A5.166,5.166,0,0,1,218.293,265.031Z" transform="translate(-212.996 -256.263)"/></g><g transform="translate(142.373 27.079)"><path class="k" d="M224.334,265.031h-.107a5.214,5.214,0,0,1-5.286-5.142v-3.626H229.62v3.626A5.216,5.216,0,0,1,224.334,265.031Z" transform="translate(-218.941 -256.263)"/></g><g class="l"><g transform="translate(76.656 -3.433)"><rect class="h" width="10.297" height="43.858"/></g><g transform="translate(53.064 -5.721)"><path class="h" d="M204.918,292.125l-10.189-1.493,5.954-43.261,9.63,1.049Z" transform="translate(-194.73 -247.371)"/></g><g transform="translate(30.424 -7.819)"><path class="h" d="M198.564,291.824l-9.972-2.564L200.31,246.8l8.1,2.574Z" transform="translate(-188.592 -246.802)"/></g><g transform="translate(94.581 -5.912)"><path class="h" d="M211.594,292.264l10.188-1.493-7.122-43.452-8.676,1.43Z" transform="translate(-205.985 -247.319)"/></g><g transform="translate(131.574 -7.679)"><path class="h" d="M230.192,291.562l9.668-3.544L224.765,246.84l-8.752,3.292Z" transform="translate(-216.014 -246.84)"/></g><g transform="translate(8.084 -7.679)"><path class="h" d="M192.2,291.562l-9.668-3.544L197.63,246.84l8.752,3.292Z" transform="translate(-182.536 -246.84)"/></g><g transform="translate(112.125 -7.628)"><path class="h" d="M221.663,291.685l9.973-2.564-11.743-42.266-9.152,2.354Z" transform="translate(-210.741 -246.854)"/></g></g></g><g transform="translate(325.055 370.661)"><g transform="translate(17.898 26.905)"><path class="h" d="M225.074,292.525H203.683a4.776,4.776,0,0,1-4.773-4.77v-.07a4.776,4.776,0,0,1,4.773-4.773h21.391a1.247,1.247,0,0,1,0,2.494H203.683a2.281,2.281,0,0,0-2.28,2.28v.07a2.28,2.28,0,0,0,2.28,2.276h21.391a1.247,1.247,0,0,1,0,2.494Z" transform="translate(-198.91 -282.912)"/></g><g transform="translate(13.062 7.101)"><path class="h" d="M205.028,299.823a.937.937,0,0,1-.9-.668L197.6,277.543h36.47l-4.128,21.52a.935.935,0,1,1-1.837-.354l3.7-19.3H200.118l5.806,19.2a.943.943,0,0,1-.627,1.169A.971.971,0,0,1,205.028,299.823Z" transform="translate(-197.599 -277.543)"/></g><g transform="translate(5.695 0.623)"><path class="h" d="M204.226,284.134a.939.939,0,0,1-.882-.62l-2.088-5.854h-4.718a.937.937,0,0,1,0-1.874h6.038l2.53,7.1a.939.939,0,0,1-.882,1.25Z" transform="translate(-195.602 -275.787)"/></g><path class="h" d="M200.683,278.739h-5.065a1.56,1.56,0,1,1,0-3.121h5.065a1.56,1.56,0,0,1,0,3.121Z" transform="translate(-194.058 -275.618)"/><g transform="translate(17.806 37.311)"><circle class="h" cx="4.288" cy="4.288" r="4.288"/></g><g transform="translate(37.973 37.311)"><circle class="h" cx="4.288" cy="4.288" r="4.288"/></g><g transform="translate(20.093 39.598)"><circle class="d" cx="2.001" cy="2.001" r="2.001"/></g><g transform="translate(40.468 39.598)"><circle class="d" cx="2.001" cy="2.001" r="2.001"/></g><g transform="translate(20.536 7.865)"><path class="h" d="M203.885,298.749a.94.94,0,0,1-.922-.775l-3.323-19.126a.934.934,0,1,1,1.841-.321l3.327,19.126a.939.939,0,0,1-.76,1.084A1.251,1.251,0,0,1,203.885,298.749Z" transform="translate(-199.625 -277.75)"/></g><g transform="translate(27.291 7.659)"><path class="h" d="M203.639,298.482a.935.935,0,0,1-.933-.871l-1.247-18.919a.935.935,0,0,1,1.866-.125l1.247,18.919a.932.932,0,0,1-.871,1Z" transform="translate(-201.457 -277.694)"/></g><g transform="translate(38.31 7.867)"><path class="h" d="M205.381,298.748a1,1,0,0,1-.148-.011.935.935,0,0,1-.778-1.07l3.014-19.126a.935.935,0,0,1,1.848.291L206.3,297.958A.937.937,0,0,1,205.381,298.748Z" transform="translate(-204.444 -277.751)"/></g><g transform="translate(33.319 7.66)"><path class="h" d="M204.029,298.482h-.048a.939.939,0,0,1-.889-.981l.937-18.919a.936.936,0,0,1,1.87.092l-.937,18.919A.935.935,0,0,1,204.029,298.482Z" transform="translate(-203.091 -277.695)"/></g><g transform="translate(15.441 13.689)"><path class="h" d="M229.118,281.2H199.181a.935.935,0,1,1,0-1.87h29.937a.935.935,0,0,1,0,1.87Z" transform="translate(-198.244 -279.329)"/></g><g transform="translate(17.934 20.339)"><path class="h" d="M226.261,283h-26.4a.935.935,0,1,1,0-1.87h26.4a.935.935,0,1,1,0,1.87Z" transform="translate(-198.92 -281.132)"/></g></g><g transform="translate(496.129 318.429)"><path class="m" d="M247.024,298.7a3.136,3.136,0,0,1-3.294,2.947h0a3.136,3.136,0,0,1-3.294-2.947v-34.3a3.134,3.134,0,0,1,3.294-2.947h0a3.134,3.134,0,0,1,3.294,2.947Z" transform="translate(-240.436 -261.458)"/></g><g transform="translate(480.62 374.065)"><path class="b" d="M283.98,403.156s-31.94-.8-43.117-14.375,0-21.557,11.177-15.168,36.157,9.871,42.32-.4c7.186-11.977,6.846-25.548,6.389-42.317s-11.018-30.742-18.2-31.14c-14.371-.8-44.478,3.191-43.678-5.592.867-9.543,22.317-9.827,28.831-8.676a5.7,5.7,0,0,0,5.983-2.866c1.431-2.582,8.027-4.921,14.29-4.028a35.9,35.9,0,0,1,7.37,1.594,3.119,3.119,0,0,0,3.261-1.191c.97-1.321,5.773-3.371,11.726-2,10.38,2.4,18.528,1.671,25.552,24.353,10.38,33.538,6.274,51.365-7.186,68.669-5.588,7.189,23.242-.395,23.154,1.2-.841,15.09-.8,32.737-.8,32.737Z" transform="translate(-236.232 -276.541)"/></g><g transform="translate(410.484 397.277)"><rect class="g" width="121.876" height="73.459" rx="1.471"/></g><g transform="translate(410.484 439.85)"><rect class="n" width="121.876" height="15.026"/></g><g transform="translate(484.958 472.839)"><circle class="c" cx="5.083" cy="5.083" r="5.083"/></g><g transform="translate(485.756 383.408)"><path class="c" d="M247.728,284.954a5.083,5.083,0,1,1-4.224-5.817A5.084,5.084,0,0,1,247.728,284.954Z" transform="translate(-237.624 -279.074)"/></g><g transform="translate(150.187 293.12)"><g class="o"><g transform="translate(-28.242 123.32)"><path class="p" d="M159.755,288.029l66.273,23.954,5.589,72.661L139,377.458Z" transform="translate(-138.995 -288.029)"/></g></g></g><g transform="translate(145.337 414.239)"><rect class="q" width="15.061" height="58.363" transform="translate(0 14.396) rotate(-72.908)"/></g></g></svg>