<svg xmlns="http://www.w3.org/2000/svg" xmlns:xlink="http://www.w3.org/1999/xlink" width="302.249" height="306.5" viewBox="0 0 302.249 306.5"><defs><style>.a{fill:none;}.b{fill:url(#a);}.c{fill:url(#b);}.d{fill:url(#c);}.e{opacity:0.5;}.ai,.an,.e,.f,.i,.v,.w,.z{mix-blend-mode:multiply;isolation:isolate;}.ai,.f{opacity:0.3;}.f{fill:url(#d);}.g{clip-path:url(#e);}.h{fill:url(#f);}.i{opacity:0.4;fill:url(#g);}.j{fill:#fff;}.k{fill:url(#h);}.l{fill:url(#i);}.m{opacity:0.7;}.n{fill:#f4f7fa;}.o{fill:url(#j);}.p{fill:url(#k);}.q{fill:url(#l);}.r{fill:url(#m);}.s{fill:url(#n);}.t{fill:#fec045;}.u{fill:url(#o);}.v{opacity:0.15;fill:url(#p);}.w{opacity:0.42;}.x{fill:url(#q);}.y{fill:url(#r);}.z{opacity:0.26;fill:url(#s);}.aa{opacity:0.53;}.ab{fill:url(#t);}.ac{fill:url(#u);}.ad{fill:url(#v);}.ae{fill:url(#w);}.af{fill:url(#x);}.ag{fill:url(#y);}.ah{fill:url(#z);}.ai{fill:url(#aa);}.aj{fill:url(#ab);}.ak{fill:url(#ac);}.al{fill:url(#ad);}.am{fill:url(#ae);}.an{opacity:0.2;}.ao{fill:url(#af);}.ap{fill:url(#ag);}.aq{fill:url(#ah);}</style><linearGradient id="a" x1="0.148" y1="1.185" x2="0.902" y2="-0.284" gradientUnits="objectBoundingBox"><stop offset="0" stop-color="#fcb148"/><stop offset="0.052" stop-color="#fdb946"/><stop offset="0.142" stop-color="#fec144"/><stop offset="0.318" stop-color="#ffc444"/><stop offset="0.485" stop-color="#fdb946"/><stop offset="0.775" stop-color="#f99c4c"/><stop offset="0.866" stop-color="#f8924f"/><stop offset="1" stop-color="#f8924f"/></linearGradient><linearGradient id="b" x1="-0.345" y1="2.146" x2="0.409" y2="0.677" xlink:href="#a"/><linearGradient id="c" x1="0.782" y1="0.182" x2="-0.614" y2="1.755" xlink:href="#a"/><linearGradient id="d" x1="0" y1="0.5" x2="1" y2="0.5" xlink:href="#a"/><clipPath id="e"><path class="a" d="M743.493,567.483C642.206,567.483,630.745,654,630.745,654H601.7v7.862L658.8,740.4l69.779-91.171H701.1l38.893-45.59s44.7,7.987,60.124,13.168c19.937,7.35,35.615,24.03,35.615,24.03S820.158,567.483,743.493,567.483Z" transform="translate(-601.695 -567.483)"/></clipPath><linearGradient id="f" x1="0.049" y1="1.416" x2="0.62" y2="0.368" gradientUnits="objectBoundingBox"><stop offset="0" stop-color="#aa80f9"/><stop offset="0.996" stop-color="#6165d7"/></linearGradient><linearGradient id="g" x1="0.401" y1="0.958" x2="0.726" y2="0.09" xlink:href="#f"/><linearGradient id="h" x1="0.569" y1="0.796" x2="-0.591" y2="0.644" gradientUnits="objectBoundingBox"><stop offset="0" stop-color="#311944"/><stop offset="1" stop-color="#893976"/></linearGradient><linearGradient id="i" x1="-0.486" y1="0.687" x2="1.103" y2="0.772" gradientUnits="objectBoundingBox"><stop offset="0.004" stop-color="#e38ddd"/><stop offset="1" stop-color="#9571f6"/></linearGradient><linearGradient id="j" x1="-5.54" y1="0.465" x2="-1.323" y2="2.839" gradientUnits="objectBoundingBox"><stop offset="0" stop-color="#f57e53"/><stop offset="0.005" stop-color="#f58152"/><stop offset="0.042" stop-color="#f8994d"/><stop offset="0.084" stop-color="#fbac49"/><stop offset="0.133" stop-color="#fdb946"/><stop offset="0.196" stop-color="#fec144"/><stop offset="0.318" stop-color="#ffc444"/><stop offset="0.455" stop-color="#fdb946"/><stop offset="0.694" stop-color="#f99c4c"/><stop offset="0.996" stop-color="#f36f56"/></linearGradient><linearGradient id="k" x1="-4.691" y1="1.705" x2="-3.677" y2="1.705" gradientUnits="objectBoundingBox"><stop offset="0" stop-color="#ff9085"/><stop offset="1" stop-color="#fb6fbb"/></linearGradient><linearGradient id="l" x1="-4.94" y1="32.921" x2="-3.941" y2="32.921" xlink:href="#k"/><linearGradient id="m" x1="-4.97" y1="30.483" x2="-3.97" y2="30.483" xlink:href="#k"/><linearGradient id="n" x1="-5" y1="28.393" x2="-4" y2="28.393" xlink:href="#k"/><linearGradient id="o" x1="-8.352" y1="2.033" x2="-7.331" y2="2.033" xlink:href="#k"/><linearGradient id="p" x1="-0.524" y1="0.961" x2="1.08" y2="1.164" gradientUnits="objectBoundingBox"><stop offset="0" stop-color="#fb6fbb"/><stop offset="1" stop-color="#ff9085"/></linearGradient><linearGradient id="q" x1="-2.487" y1="2.792" x2="-1.477" y2="2.792" xlink:href="#p"/><linearGradient id="r" x1="-2.027" y1="2.926" x2="-1.021" y2="2.926" xlink:href="#p"/><linearGradient id="s" x1="-4.091" y1="1.468" x2="-3.083" y2="1.468" xlink:href="#k"/><linearGradient id="t" x1="-4.556" y1="2.045" x2="-4.999" y2="-0.02" gradientUnits="objectBoundingBox"><stop offset="0" stop-color="#444b8c"/><stop offset="0.996" stop-color="#26264f"/></linearGradient><linearGradient id="u" x1="-1.889" y1="0.453" x2="-5.969" y2="4.039" xlink:href="#k"/><linearGradient id="v" x1="-16.731" y1="0.433" x2="-15.734" y2="0.433" xlink:href="#t"/><linearGradient id="w" x1="-38.601" y1="1.685" x2="-39.183" y2="-0.456" gradientUnits="objectBoundingBox"><stop offset="0" stop-color="#ffc444"/><stop offset="0.996" stop-color="#f36f56"/></linearGradient><linearGradient id="x" x1="-26.34" y1="0.401" x2="-25.345" y2="0.401" xlink:href="#t"/><linearGradient id="y" x1="-56.745" y1="1.378" x2="-56.807" y2="-0.595" xlink:href="#w"/><linearGradient id="z" x1="-5.372" y1="1.147" x2="-5.013" y2="0.317" gradientUnits="objectBoundingBox"><stop offset="0" stop-color="#40447e"/><stop offset="0.996" stop-color="#3c3b6b"/></linearGradient><linearGradient id="aa" x1="-6.853" y1="1.146" x2="-6.411" y2="0.317" xlink:href="#z"/><linearGradient id="ab" x1="-5.397" y1="0.31" x2="-4.372" y2="0.558" xlink:href="#z"/><linearGradient id="ac" x1="-1.259" y1="0.181" x2="-3.417" y2="1.884" xlink:href="#k"/><linearGradient id="ad" x1="-9.397" y1="-0.654" x2="-10.105" y2="1.204" xlink:href="#w"/><linearGradient id="ae" x1="-29.253" y1="-13.533" x2="-30.24" y2="-15.367" xlink:href="#w"/><linearGradient id="af" x1="-3.26" y1="0.019" x2="-5.728" y2="3.984" xlink:href="#k"/><linearGradient id="ag" x1="-31.955" y1="2.363" x2="-32.338" y2="0.848" xlink:href="#w"/><linearGradient id="ah" x1="-14.354" y1="1.973" x2="-14.654" y2="0.837" xlink:href="#w"/></defs><g transform="translate(-562.051 -567.483)"><g transform="translate(566.523 567.483)"><path class="b" d="M1189.042,1038.708c0,56.307-45.628,104.038-103.843,106.7-60.46,2.764-111.212-43.8-111.212-104.1S1024.74,933.21,1085.2,934.515C1143.414,935.771,1189.042,982.4,1189.042,1038.708Z" transform="translate(-931.995 -893.092)"/><path class="c" d="M1248.972,1038.709c0,56.307-45.628,104.038-103.843,106.7-60.46,2.764-111.212-43.8-111.212-104.1s50.752-108.093,111.212-106.788C1203.344,935.772,1248.972,982.4,1248.972,1038.709Z" transform="translate(-985.165 -893.093)"/><path class="d" d="M1293.09,1088.334c0,53.054-43.04,97.944-97.843,100.339-56.789,2.482-104.359-41.312-104.359-97.9s47.57-101.529,104.359-100.418C1250.05,991.429,1293.09,1035.28,1293.09,1088.334Z" transform="translate(-1035.71 -942.641)"/><g class="e" transform="translate(48.752 46.1)"><path class="f" d="M1098.272,1031.691c-3.575-11.653-3.411-29.352,14.023-55.5-44.975,12.956-78.376,53.74-78.376,102.527,0,60.3,50.752,106.868,111.212,104.1a109.556,109.556,0,0,0,59.382-20.7c-.517-16.082-4.016-33.686-13.855-49.924C1163.6,1067.549,1109.489,1068.252,1098.272,1031.691Z" transform="translate(-1033.918 -976.191)"/></g><g transform="translate(0 0)"><g class="g"><g transform="translate(3.303 2.398)"><path class="h" d="M859.572,674.978v.329a143.135,143.135,0,0,0-11.678-12.549c-.06-.14-.162-.279-.222-.419a72.533,72.533,0,0,0-19.31-26.007c-.561-.526-1.21-.991-1.81-1.488-.307-.242-.616-.493-.927-.736l-.455-.37c-.16-.123-.325-.234-.484-.354q-.965-.7-1.934-1.406l-.484-.353-.509-.329c-.337-.222-.674-.444-1.01-.662-1.329-.917-2.763-1.71-4.161-2.549-.712-.407-1.459-.781-2.184-1.167-.358-.193-.725-.391-1.092-.58s-.755-.358-1.127-.534a72.987,72.987,0,0,0-19.233-6.112l-2.521-.395c-.842-.111-1.7-.181-2.534-.275l-1.269-.136-1.274-.066-1.274-.074c-.423-.021-.842-.062-1.269-.053-.846,0-1.692-.012-2.543-.016-.207,0-.432-.012-.626,0l-.565.029-1.131.058-1.122.053c-.1,0-.168,0-.3.012l-1.153.082-1.541.1-1.153.082-.194.012-.069,0s-.4,0,.272.012l-2.491.349c-.41.062-.824.1-1.235.185l-1.222.234-1.222.23-.609.115c-.2.037-.4.095-.6.14-.8.193-1.6.382-2.392.58-.4.082-.79.214-1.179.325l-1.166.349-1.166.333-1.14.4c-.76.271-1.52.51-2.258.8s-1.472.592-2.2.892a63.805,63.805,0,0,0-15.468,9.265l-.838.666-.794.711c-.527.469-1.071.917-1.572,1.4-.021.016-.039.041-.06.058-.976.962-1.964,1.866-2.841,2.861-.233.243-.462.489-.686.736l-.345.362-.319.386c-.427.5-.851,1.007-1.274,1.5-.1.123-.216.242-.32.37l-.289.386c-.2.259-.393.518-.587.769-.38.518-.794.995-1.135,1.529A56.223,56.223,0,0,0,720.7,657.2a53.348,53.348,0,0,0-2.914,10.827c-.056.407-.112.806-.169,1.2s-.129.773-.147,1.155c-.065.765-.13,1.492-.194,2.187-.043.707-.043,1.385-.073,2.022-.013.321-.034.633-.039.933.013.308.022.608.026.9.008.58.017,1.126.026,1.636a1.969,1.969,0,0,0,.03.316c.013.095.026.189.039.28.017.181.043.156.061.321.013.14.03.205.043.205h28.419L728.544,697.4l-40.145,41.8-57.417-60.035h30.189a4.254,4.254,0,0,0,.138-.88c.117-.834.242-1.648.38-2.639.078-.493.147-.954.229-1.484.043-.259.082-.506.125-.777s.078-.555.134-.789c.212-.995.432-2.043.665-3.161.125-.555.246-1.122.376-1.706s.3-1.176.466-1.784c.328-1.213.647-2.487,1.045-3.8q.635-1.955,1.317-4.061c.22-.707.509-1.4.777-2.121s.552-1.435.837-2.175a101.967,101.967,0,0,1,9.821-18.649,103.6,103.6,0,0,1,16.129-18.736c.781-.76,1.645-1.455,2.478-2.183.423-.358.842-.719,1.265-1.081l.643-.543.656-.518c.885-.686,1.779-1.381,2.668-2.076l.674-.518.7-.493c.471-.333.937-.662,1.408-.991,1.843-1.344,3.825-2.557,5.793-3.806.993-.608,2.02-1.176,3.043-1.763.505-.288,1.019-.575,1.533-.871l1.58-.814a105.5,105.5,0,0,1,27.319-9.7c1.2-.226,2.418-.456,3.626-.682s2.439-.362,3.657-.538l1.83-.247,1.843-.173,1.839-.169c.613-.053,1.222-.119,1.839-.14,1.226-.053,2.456-.193,3.687-.247.3-.012.613-.123.919-.123h.924l1.835.1,1.835.057c.613,0,1.226.078,1.835.107l3.648.21c.829.012.285.021.5.025l.095.012.194.021.38.049.768.09,1.528.181.769.09.38.045.471.062,1.934.271,1.934.279.958.144c.315.049.6.115.9.172,1.179.239,2.357.481,3.536.715.587.111,1.166.271,1.744.415l1.74.44,1.727.44,1.705.514c1.131.349,2.266.678,3.376,1.056,1.11.395,2.21.789,3.311,1.184a96.132,96.132,0,0,1,23.554,12.85c.432.316.859.637,1.286.954s.829.662,1.239,1c.82.666,1.645,1.307,2.435,1.989,1.558,1.393,3.113,2.729,4.533,4.176.363.354.717.711,1.079,1.06l.531.526.51.547q1.016,1.1,2.007,2.179l.5.542.475.559c.307.374.622.744.928,1.114.613.744,1.256,1.451,1.809,2.22a90,90,0,0,1,7.974,12.122c1.071,1.953,2.025,3.9,2.867,5.816a82.726,82.726,0,0,1,5.327,16.409c.117.625.242,1.237.358,1.842s.246,1.188.319,1.776c.164,1.171.328,2.294.479,3.375.13,1.085.2,2.129.294,3.12.039.493.091.974.121,1.451s.121.929.142,1.381C859.42,673.326,859.572,674.185,859.572,674.978Z" transform="translate(-630.982 -588.743)"/><path class="i" d="M1678.336,852.707v.329a143.127,143.127,0,0,0-11.678-12.549c-.06-.14-.162-.279-.222-.419a72.531,72.531,0,0,0-19.31-26.007c-.561-.526-1.21-.991-1.81-1.488-.307-.242-.616-.493-.927-.736l-.455-.37c-.16-.123-.324-.234-.484-.354q-.965-.7-1.934-1.406l-.484-.353-.509-.329c-.337-.222-.673-.444-1.01-.662-1.33-.917-2.763-1.71-4.162-2.548-.712-.407-1.459-.781-2.184-1.167-.359-.193-.726-.391-1.093-.58s-.755-.358-1.127-.534a72.985,72.985,0,0,0-19.232-6.112l-2.521-.395c-.842-.111-1.7-.181-2.534-.275l-1.269-.136-1.274-.066-1.274-.074c-.423-.021-.842-.062-1.269-.053-.846,0-1.692-.012-2.543-.016-.207,0-.432-.012-.626,0l-.566.029-1.131.058-1.123.053c-.1,0-.168,0-.3.012l-1.153.082-1.541.1-1.153.082-.194.012-.069,0s-.4,0,.272.012l-2.491.349c-.41.062-.824.1-1.235.185l-1.221.234-1.222.23-.609.115c-.2.037-.4.095-.6.14-.8.193-1.6.382-2.391.58-.4.082-.79.214-1.179.325l-1.166.349-1.166.333-1.14.4c-.76.271-1.52.51-2.258.8s-1.472.592-2.2.892a63.8,63.8,0,0,0-15.468,9.265l-.838.666-.794.711c-.527.469-1.071.917-1.572,1.4-.021.016-.039.041-.06.058,12.757-15.041,33.423-24.811,56.744-24.811,23.9,0,45,10.256,57.668,25.921,1.071,1.953,2.025,3.9,2.867,5.816a82.721,82.721,0,0,1,5.327,16.409c.117.625.242,1.237.358,1.842s.246,1.188.319,1.776c.164,1.171.328,2.294.479,3.375.13,1.085.2,2.129.293,3.12.039.493.091.974.121,1.451s.121.929.142,1.381C1678.185,851.055,1678.336,851.914,1678.336,852.707Z" transform="translate(-1449.746 -766.472)"/></g></g></g><g transform="translate(109.515 71.144)"><path class="j" d="M1619.476,1198.243h0a5.583,5.583,0,0,1,4.929,5.478v9.442a138.812,138.812,0,0,1,16.363,2.839q6.041,1.42,12,3.38a5.52,5.52,0,0,1,3.76,5.666l-1.16,11.839a4.438,4.438,0,0,1-6.336,3.682,68.328,68.328,0,0,0-8.051-3,73,73,0,0,0-15.186-2.838l-1.392-.115v27.039c14.21,3.975,24.646,9.324,31.39,16.051q10.068,10.042,10.055,25.055,0,16.248-11.12,26.048-11.195,9.865-31.458,11.076v10.421a4.74,4.74,0,0,1-4.933,4.815l-.087,0a5.238,5.238,0,0,1-4.95-5.225v-10.28l-2.2-.1a144.29,144.29,0,0,1-18.224-1.943,118.582,118.582,0,0,1-12.594-2.9,5.427,5.427,0,0,1-3.951-5.611l1.364-15.219a4.812,4.812,0,0,1,6.728-3.97,98.906,98.906,0,0,0,11.076,3.636,97.094,97.094,0,0,0,17.708,2.958l.088-30.078q-20.46-5.062-30.561-15-10.111-9.979-10.123-25.518,0-16.069,10.974-24.785c7.27-5.774,17.6-8.647,30.938-8.639V1202.8A4.458,4.458,0,0,1,1619.476,1198.243Zm-4.946,36.094q-6.323.46-9.856,3.475a10.134,10.134,0,0,0-3.536,8.117,10.9,10.9,0,0,0,3.271,8.066q3.265,3.233,10.121,5.163Zm8.742,54.464v27.582q6.874.014,10.55-3.279t3.672-9.285a12.684,12.684,0,0,0-3.412-9.078Q1630.662,1291.127,1623.272,1288.8Z" transform="translate(-1572.618 -1198.22)"/></g></g><g transform="translate(562.051 743.386)"><path class="k" d="M740.112,2236.9c.207,2.734-1.532,5.1-3.873,5.252l-161.557,10.91c-3,.2-6.53-2.428-6.693-5.543l-5.933-113.287c-.158-3.018,3.122-5.624,6.084-5.56l159.54.562c2.32.049,4.377,2.262,4.578,4.918Z" transform="translate(-562.051 -2128.476)"/><path class="l" d="M759.468,2235.575c.209,2.749-1.539,5.125-3.893,5.28l-163.395,10.725a5.538,5.538,0,0,1-5.79-5.334l-6-113.866a5.02,5.02,0,0,1,5.132-5.4l161.4.379c2.333.049,4.4,2.273,4.605,4.944Z" transform="translate(-578.32 -2126.982)"/><g class="m" transform="translate(26.812 71.854)"><path class="n" d="M831.376,2795.965l-28.146.89a2.579,2.579,0,0,1-2.6-2.178l-.854-6.788a2.037,2.037,0,0,1,2.04-2.306l28.186-.652a2.512,2.512,0,0,1,2.493,2.146l.826,6.621A1.986,1.986,0,0,1,831.376,2795.965Z" transform="translate(-799.755 -2782.573)"/><path class="n" d="M1162.52,2788.307l-26.6.841a2.467,2.467,0,0,1-2.465-2.119l-.822-6.6a1.954,1.954,0,0,1,1.922-2.24l26.642-.616a2.406,2.406,0,0,1,2.363,2.088l.8,6.44A1.908,1.908,0,0,1,1162.52,2788.307Z" transform="translate(-1095.068 -2776.046)"/><path class="n" d="M1475.6,2781.058l-25.187.8a2.364,2.364,0,0,1-2.337-2.062l-.792-6.417a1.878,1.878,0,0,1,1.814-2.177l25.221-.583a2.31,2.31,0,0,1,2.243,2.034l.768,6.268A1.836,1.836,0,0,1,1475.6,2781.058Z" transform="translate(-1374.233 -2769.869)"/><path class="n" d="M1772.059,2774.188l-23.879.755a2.27,2.27,0,0,1-2.219-2.01l-.764-6.246a1.808,1.808,0,0,1,1.714-2.118l23.912-.553a2.221,2.221,0,0,1,2.132,1.982l.741,6.105A1.77,1.77,0,0,1,1772.059,2774.188Z" transform="translate(-1638.542 -2764.015)"/></g><g transform="translate(24.495 35.191)"><path class="o" d="M798.15,2461.916l-13.414.261A4.8,4.8,0,0,1,780,2457.6l-.773-13.943a4.294,4.294,0,0,1,4.213-4.649l13.385-.041a4.789,4.789,0,0,1,4.626,4.55l.8,13.724A4.29,4.29,0,0,1,798.15,2461.916Z" transform="translate(-779.216 -2438.971)"/><path class="p" d="M807.821,2471.018l-11.521.213a4.419,4.419,0,0,1-4.367-4.219l-.666-11.966a3.956,3.956,0,0,1,3.882-4.293l11.5-.046a4.413,4.413,0,0,1,4.276,4.2l.688,11.8A3.953,3.953,0,0,1,807.821,2471.018Zm-12.639-19.673a3.407,3.407,0,0,0-3.342,3.7l.667,11.961a3.806,3.806,0,0,0,3.759,3.633l11.52-.209a3.4,3.4,0,0,0,3.266-3.711l-.688-11.8a3.8,3.8,0,0,0-3.684-3.618Z" transform="translate(-789.901 -2449.383)"/><g transform="translate(1.718 6.694)"><path class="n" d="M794.595,2501.073l19.093-.154Z" transform="translate(-794.579 -2500.626)"/><path class="q" d="M813.577,2498.907l-19.094.158-.033-.594,19.093-.15Z" transform="translate(-794.45 -2498.321)"/><g transform="translate(0.25 4.435)"><path class="n" d="M796.815,2540.458l19.1-.215Z" transform="translate(-796.799 -2539.949)"/><path class="r" d="M815.8,2538.228l-19.1.219-.033-.6,19.1-.21Z" transform="translate(-796.669 -2537.641)"/></g><g transform="translate(0.501 8.876)"><path class="n" d="M799.037,2579.889l19.11-.276Z" transform="translate(-799.021 -2579.319)"/><path class="s" d="M818.035,2577.6l-19.11.28-.033-.6,19.109-.271Z" transform="translate(-798.891 -2577.009)"/></g></g><g transform="translate(5.867 3.469)"><path class="t" d="M842.324,2487.824l-5.341.089a2.668,2.668,0,0,1-2.624-2.542l-.586-10.417a2.386,2.386,0,0,1,2.33-2.589l5.333-.031a2.675,2.675,0,0,1,2.6,2.542l.6,10.34A2.4,2.4,0,0,1,842.324,2487.824Z" transform="translate(-833.482 -2472.041)"/><path class="u" d="M840.093,2485.8l-5.341.091a2.969,2.969,0,0,1-2.926-2.835l-.586-10.419a2.656,2.656,0,0,1,2.6-2.886l5.333-.03a2.977,2.977,0,0,1,2.893,2.834l.6,10.338A2.669,2.669,0,0,1,840.093,2485.8Zm-6.222-15.458a2.108,2.108,0,0,0-2.062,2.292l.587,10.414a2.357,2.357,0,0,0,2.322,2.25l5.341-.089a2.118,2.118,0,0,0,2.039-2.307l-.6-10.342a2.363,2.363,0,0,0-2.3-2.25Z" transform="translate(-831.235 -2469.726)"/></g></g><path class="v" d="M675.871,2795.563c-13.884,2.4-22.895,2.934-33.354-.118-14.539-4.242-24.719-13.307-30.4-19.338l2.424,46.044a5.538,5.538,0,0,0,5.79,5.334l163.395-10.724c2.354-.155,4.1-2.531,3.893-5.28l-1.263-16.589c-23.73-14.671-41.945-15.926-54.536-14.118C716.376,2782.993,708.052,2790.009,675.871,2795.563Z" transform="translate(-606.471 -2702.889)"/><g class="w" transform="translate(27.76 93.851)"><path class="x" d="M848.443,2997.083l-38.482,2.108a1.4,1.4,0,0,1-1.439-1.349l-.357-6.446a1.384,1.384,0,0,1,1.28-1.486l38.449-1.853a1.361,1.361,0,0,1,1.367,1.317l.382,6.257A1.332,1.332,0,0,1,848.443,2997.083Z" transform="translate(-808.163 -2984.781)"/><path class="y" d="M1394.4,2967.69l-47.818,2.619a1.348,1.348,0,0,1-1.359-1.307l-.4-6.231a1.307,1.307,0,0,1,1.183-1.435l47.782-2.3a1.3,1.3,0,0,1,1.274,1.266l.423,6A1.242,1.242,0,0,1,1394.4,2967.69Z" transform="translate(-1284.295 -2959.032)"/></g><path class="z" d="M1778.208,2284.13a12.057,12.057,0,0,1-11.928,13.151,13.8,13.8,0,0,1-13.756-12.728,12.059,12.059,0,0,1,11.888-13.1A13.794,13.794,0,0,1,1778.208,2284.13Z" transform="translate(-1618.215 -2255.151)"/><g class="aa" transform="translate(51.653 35.9)"><path class="n" d="M1023.934,2520.317a2.283,2.283,0,0,1-3.179.064,2.168,2.168,0,0,1-.188-3.122,2.286,2.286,0,0,1,3.18-.033A2.17,2.17,0,0,1,1023.934,2520.317Z" transform="translate(-1019.99 -2508.552)"/><g transform="translate(4.999)"><path class="n" d="M1105.726,2465.508a.835.835,0,0,1-.666-1.382,12.571,12.571,0,0,0-1.073-17.476.791.791,0,1,1,1.088-1.143c5.653,5.424,6.195,14.125,1.215,19.733A.8.8,0,0,1,1105.726,2465.508Z" transform="translate(-1099.265 -2445.256)"/><path class="n" d="M1085.909,2481.344a.849.849,0,0,1-.6-.22.832.832,0,0,1-.072-1.176,9.212,9.212,0,0,0-.789-12.912.8.8,0,1,1,1.1-1.161,10.891,10.891,0,0,1,.931,15.2A.81.81,0,0,1,1085.909,2481.344Z" transform="translate(-1081.924 -2463.33)"/><path class="n" d="M1065.784,2497.433a.872.872,0,0,1-.612-.226.833.833,0,0,1-.072-1.184,5.858,5.858,0,0,0-.5-8.279.83.83,0,0,1-.072-1.181.851.851,0,0,1,1.194,0,7.85,7.85,0,0,1,2.524,5.265,7.172,7.172,0,0,1-1.878,5.339A.82.82,0,0,1,1065.784,2497.433Z" transform="translate(-1064.311 -2481.688)"/></g></g></g><g transform="translate(760.386 684.299)"><path class="ab" d="M2660.9,1834.869a19.385,19.385,0,0,0-5.956-12.73c-6.719-6.564-16.205-6.309-19.241-6.228-10.773.289-13.205,5.635-20.721,3.646-6.364-1.685-6.854-6.109-12.331-6.408-5.726-.313-11.732,4.164-14.136,9.251-4.635,9.807,2.6,25.092,12.919,29.7,10.725,4.793,16.525-5.626,36.188-2.55,7.171,1.122,11.374,3.286,16.021.66C2658.737,1847.338,2661.161,1840.522,2660.9,1834.869Z" transform="translate(-2557.008 -1789.447)"/><path class="ac" d="M2335.952,1660.289c-5.745,9.494-5.772,20.517-.379,27.025,2.6,3.142,8.412,7.574,15.193,7.68,3.231.051,4.833-.91,5.976.156,2.9,2.7-.68,15.178-7.492,17.764-8.86,3.364-25.833-8.991-28.471-24.782-2.509-15.015,9.026-26.655,10.485-28.082Z" transform="translate(-2320.423 -1653.629)"/><path class="ad" d="M2530.6,3221.236a2.138,2.138,0,0,1,.562,1.49.929.929,0,0,1-.363.73,14.42,14.42,0,0,1-3.359,1.869c-2.456,1-3.282.9-3.382.493s1.169-1.512,2.256-2.476A18.836,18.836,0,0,1,2530.6,3221.236Z" transform="translate(-2501.082 -3038.722)"/><path class="ae" d="M2564.729,3187.516a33.161,33.161,0,0,0-.751,5.058,1.977,1.977,0,0,1-2.373-.02s.741-3.381.4-4.788Z" transform="translate(-2534.401 -3008.806)"/><path class="af" d="M2778.92,3234.59a2.137,2.137,0,0,1,.762,1.4.93.93,0,0,1-.259.773,14.446,14.446,0,0,1-3.068,2.315c-2.294,1.329-3.126,1.348-3.281.956s.948-1.659,1.891-2.764A18.849,18.849,0,0,1,2778.92,3234.59Z" transform="translate(-2722.004 -3050.571)"/><path class="ag" d="M2810.886,3204.329a33.178,33.178,0,0,0-.752,5.058,1.977,1.977,0,0,1-2.373-.02s.741-3.381.4-4.789Z" transform="translate(-2752.792 -3023.722)"/><path class="ah" d="M2508.022,2474.882c-.333,11.135-.278,23.083.345,35.745.779,15.815,2.333,30.479,4.306,43.836a10.654,10.654,0,0,0,5.2.174c.352-1.572.9-3.965,1.618-6.875,1.3-5.27,1.608-5.97,2.016-7.781,1.691-7.511-.427-9.656.668-17.41.24-1.7.335-1.549,2.682-9.725,2.926-10.193,4.4-15.287,5.1-19.192,1.873-10.479,2.81-15.718-.1-18.977C2526.058,2470.42,2517.131,2471,2508.022,2474.882Z" transform="translate(-2486.683 -2373.749)"/><path class="ai" d="M2550.563,2548.126c1.248-3.447-.876-5.223-.814-11.185.053-5.142,1.653-5.771,2.178-11.549.481-5.3-.678-6.816-.94-11.705-.494-9.217,3.171-12.276,3.934-19.332.525-4.858-.294-11.938-6.695-21.217,7.3-2.178,13.879-1.948,17,1.549,2.908,3.258,1.972,8.5.1,18.977-.7,3.9-2.176,9-5.1,19.192-2.347,8.176-2.442,8.024-2.682,9.725-1.1,7.754,1.023,9.9-.668,17.41-.408,1.811-.717,2.511-2.016,7.781-.717,2.91-1.266,5.3-1.618,6.875a10.642,10.642,0,0,1-5.2-.175q-.181-1.224-.357-2.462A9,9,0,0,0,2550.563,2548.126Z" transform="translate(-2522.049 -2373.759)"/><path class="aj" d="M2615.668,2487.028c4.365,12.172,8.612,25.695,12.363,40.484,3.648,14.38,6.313,27.927,8.263,40.4a7.088,7.088,0,0,0,5.852.088,66.479,66.479,0,0,0,3.955-14.054,47.538,47.538,0,0,0,.818-12.717c-.586-6.786-2.444-7.873-3.255-14.584-.606-5.016.239-6,.5-13.253.408-11.25.619-17.047-2.16-21.073C2636.037,2483.672,2618.563,2486.523,2615.668,2487.028Z" transform="translate(-2582.366 -2386.573)"/><path class="ak" d="M2456.261,1764.6c1.313-7.412.242-7.047,1.473-15.607,1.612-11.207,3.624-13.063,4.583-20.935a57.643,57.643,0,0,0-1.333-20.571,34.071,34.071,0,0,1,21.807-3.971,81.668,81.668,0,0,0,9.667,1.022c6.782.009,12.665-4.323,15.322-7.42,5.5-6.414,5.664-17.437.081-27.027l4.692-.16c1.013,1.037,14.322,15.017,10,28.257-2.448,7.507-10.075,13.278-10.6,13.67-4.889,3.625-7.816,3.414-12.735,8.386-1.387,1.4-3.285,3.573-4.478,4-4.529,7.917-4.471,12.736-3,15.823,1.488,3.112,4.271,4.166,7.227,10.293,2.933,6.078,1.688,8.137,4.338,10.809,4.753,4.792,12.01,1.447,13.572,4.729,1.535,3.224-3.933,9.671-9.479,12.891a26.279,26.279,0,0,1-11.6,3.209c-5.411.462-6.293-.7-15.37-1.467-6.8-.575-10.64-.9-15.762-.177-7.092,1-9.344,2.986-11.039,1.56C2451.4,1780.037,2454.372,1775.264,2456.261,1764.6Z" transform="translate(-2437.898 -1662.394)"/><g transform="translate(35.556 30.717)"><path class="al" d="M2644.116,1906.439a6.257,6.257,0,0,0,.179,4.928,4.277,4.277,0,0,0,2.773,1.762c.68.2,1.36.436,2.055.581.17.035.938.077.971.33.09.671-4.5,3.656-9.223,2.665-2.775-.582-5.394-2.2-5.211-3.091.2-1,3.358-.535,4.6-2.467a4.324,4.324,0,0,0,.074-4.174C2641.264,1906.208,2643.189,1907.206,2644.116,1906.439Z" transform="translate(-2635.652 -1902.945)"/><g transform="translate(2.826)"><path class="am" d="M2665.794,1882.1a4.1,4.1,0,0,1-4.286.2c-1.956-1.169.077-6.38,1.864-6.8a2.612,2.612,0,0,1,2.132.716c.356.338.409.6,1,1.142.547.5.761.51.87.785.136.343.059.978-1.021,2.261a1.144,1.144,0,0,1,1.382.164.855.855,0,0,1,.136.43C2667.891,1881.715,2667.075,1882.216,2665.794,1882.1Z" transform="translate(-2660.709 -1875.459)"/></g></g><g class="an" transform="translate(39.059 22.651)"><path class="ao" d="M2681.067,1889.779c-3.931-7.926-13.9-8.7-14.345-15.014-.327-4.618,4.933-5.243,7.023-11.9,3.142-10-6.286-16.434-2.948-23.306,2.28-4.694,7.232-2.835,18.742-8.859,5.372-2.812,13.9-7.275,18.8-16.2a30.692,30.692,0,0,0,3.457-10.559,20.55,20.55,0,0,1,.506,13.14c-2.448,7.507-10.075,13.278-10.6,13.67-4.889,3.625-7.816,3.414-12.735,8.386-1.387,1.4-3.285,3.573-4.478,4-4.529,7.917-4.471,12.736-3,15.823,1.488,3.112,4.271,4.166,7.227,10.293,2.933,6.078,1.688,8.137,4.338,10.809,4.753,4.792,12.01,1.447,13.572,4.729,1.535,3.224-3.933,9.672-9.479,12.891a26.281,26.281,0,0,1-11.6,3.209,23.556,23.556,0,0,1-3.435.072C2683.1,1895.941,2682.35,1892.368,2681.067,1889.779Z" transform="translate(-2666.708 -1803.945)"/></g><path class="ap" d="M2956.695,1612.739c-.132,0-1.218-2.448.031-3.6s5.214-3.134,5.675-3.717-.791,3.614-2.622,4.684a3.3,3.3,0,0,0-1.843,2.59Z" transform="translate(-2884.427 -1605.115)"/><path class="aq" d="M2404.106,1609.746a2.594,2.594,0,0,0-.491-2.622c-1.086-1.111-3.663-1.364-4.032-3.411s-1.434,1.9-.219,3,2.941,2.946,2.941,2.946Z" transform="translate(-2389.958 -1603.133)"/></g></g></svg>