<svg xmlns="http://www.w3.org/2000/svg" xmlns:xlink="http://www.w3.org/1999/xlink" width="296.024" height="328.225" viewBox="0 0 296.024 328.225"><defs><style>.a{fill:url(#a);}.b,.d,.k,.r{fill:#fff;}.c{fill:url(#b);}.d,.e{opacity:0.6;}.f{fill:url(#c);}.g{fill:url(#d);}.h{fill:url(#e);}.i{fill:url(#f);}.j{fill:url(#g);}.k{opacity:0.2;mix-blend-mode:soft-light;isolation:isolate;}.l{opacity:0.63;}.l,.n{fill:url(#h);}.m{fill:url(#k);}.o{opacity:0.7;}.p{fill:url(#w);}.q{fill:url(#x);}.r{opacity:0.78;}.s{fill:url(#y);}.t{fill:url(#ai);}.u{fill:url(#aj);}.v{fill:url(#ak);}.w{fill:url(#al);}.x{fill:url(#am);}.y{fill:url(#an);}.z{fill:url(#ao);}.aa{fill:url(#ap);}.ab{fill:url(#aq);}.ac{fill:url(#ar);}.ad{fill:url(#as);}.ae{fill:url(#at);}.af{fill:url(#au);}.ag{fill:url(#av);}.ah{fill:url(#aw);}.ai{fill:url(#ax);}.aj{fill:url(#ay);}.ak{fill:url(#az);}.al{fill:url(#ba);}.am{fill:url(#bb);}</style><linearGradient id="a" x1="-0.046" y1="1.064" x2="0.97" y2="0.047" gradientUnits="objectBoundingBox"><stop offset="0" stop-color="#2b3582"/><stop offset="1" stop-color="#150e42"/></linearGradient><linearGradient id="b" x1="-0.486" y1="2.495" x2="0.541" y2="1.423" gradientUnits="objectBoundingBox"><stop offset="0" stop-color="#a737d5"/><stop offset="1" stop-color="#ef497a"/></linearGradient><linearGradient id="c" x1="1.215" y1="-0.856" x2="-1.802" y2="2.804" xlink:href="#a"/><linearGradient id="d" x1="0.173" y1="18.56" x2="-0.905" y2="24.699" xlink:href="#a"/><linearGradient id="e" x1="0.231" y1="18.129" x2="-0.214" y2="23.99" xlink:href="#a"/><linearGradient id="f" x1="-0.054" y1="-0.235" x2="0.882" y2="1.051" gradientUnits="objectBoundingBox"><stop offset="0" stop-color="#53d8ff"/><stop offset="1" stop-color="#3840f7"/></linearGradient><linearGradient id="g" x1="0.422" y1="1.496" x2="0.527" y2="0.088" xlink:href="#a"/><linearGradient id="h" x1="0" y1="0.5" x2="1" y2="0.5" xlink:href="#a"/><linearGradient id="k" x1="0.809" y1="-0.076" x2="-1.424" y2="4.082" gradientUnits="objectBoundingBox"><stop offset="0" stop-color="#cb236d"/><stop offset="1" stop-color="#4c246d"/></linearGradient><linearGradient id="w" x1="-0.184" y1="1.294" x2="0.486" y2="0.516" gradientUnits="objectBoundingBox"><stop offset="0" stop-color="#fdf53f"/><stop offset="1" stop-color="#d93c65"/></linearGradient><linearGradient id="x" x1="0.878" y1="-0.071" x2="-1.173" y2="3.028" xlink:href="#w"/><linearGradient id="y" x1="1.304" y1="-0.302" x2="-1.589" y2="2.559" xlink:href="#w"/><linearGradient id="ai" x1="43.97" y1="-0.484" x2="41.135" y2="6.012" xlink:href="#a"/><linearGradient id="aj" x1="170.869" y1="0.5" x2="171.869" y2="0.5" gradientUnits="objectBoundingBox"><stop offset="0" stop-color="#f9b776"/><stop offset="1" stop-color="#f47960"/></linearGradient><linearGradient id="ak" x1="5.051" y1="-0.387" x2="0.363" y2="0.525" xlink:href="#k"/><linearGradient id="al" x1="109.586" y1="-2.223" x2="102.568" y2="5.384" xlink:href="#a"/><linearGradient id="am" x1="197.899" y1="0.5" x2="198.899" y2="0.5" xlink:href="#aj"/><linearGradient id="an" x1="3.778" y1="-0.446" x2="0.476" y2="0.449" xlink:href="#k"/><linearGradient id="ao" x1="0.642" y1="-0.046" x2="-0.311" y2="1.52" xlink:href="#f"/><linearGradient id="ap" x1="-23.78" y1="-0.492" x2="-23.435" y2="0.348" xlink:href="#aj"/><linearGradient id="aq" x1="4.139" y1="-0.073" x2="-0.383" y2="0.658" xlink:href="#aj"/><linearGradient id="ar" x1="-178.534" y1="1.716" x2="-180.41" y2="-0.451" xlink:href="#aj"/><linearGradient id="as" x1="1.379" y1="-0.786" x2="-1.014" y2="3.22" xlink:href="#f"/><linearGradient id="at" x1="26.429" y1="0.5" x2="27.429" y2="0.5" xlink:href="#aj"/><linearGradient id="au" x1="25.053" y1="-0.062" x2="25.566" y2="2.428" xlink:href="#b"/><linearGradient id="av" x1="130.301" y1="-3.497" x2="129.728" y2="1.805" xlink:href="#b"/><linearGradient id="aw" x1="0.977" y1="-0.741" x2="0.413" y2="0.769" xlink:href="#b"/><linearGradient id="ax" x1="84.832" y1="0.5" x2="85.832" y2="0.5" xlink:href="#aj"/><linearGradient id="ay" x1="66.846" y1="0.5" x2="67.846" y2="0.5" xlink:href="#aj"/><linearGradient id="az" x1="-20.043" y1="8.565" x2="-21.45" y2="9.903" xlink:href="#aj"/><linearGradient id="ba" x1="0.9" y1="0.158" x2="-0.137" y2="1.312" xlink:href="#k"/><linearGradient id="bb" x1="-57.645" y1="26.99" x2="-54.661" y2="24.524" xlink:href="#aj"/></defs><g transform="translate(-498.259 -455)"><g transform="translate(539.592 455)"><path class="a" d="M875.442,761.409l170.163,2.9a17.632,17.632,0,0,1,17.321,17.032l8.357,246.919a13,13,0,0,1-12.98,13.441l-195.089.222a12.341,12.341,0,0,1-12.354-12.552l4.23-248.294A20.013,20.013,0,0,1,875.442,761.409Z" transform="translate(-850.859 -725.488)"/><path class="b" d="M938.261,2764.093h-.012l-21.818-.654a13.391,13.391,0,0,1-12.937-13.56l.561-32.948a.4.4,0,0,1,.4-.39.4.4,0,0,1,.389.4l-.561,32.948a12.594,12.594,0,0,0,12.169,12.754l21.818.654a.4.4,0,0,1-.012.792Z" transform="translate(-897.323 -2451.437)"/><path class="b" d="M910.176,2590.081h-.007a.4.4,0,0,1-.389-.4l.091-5.336a.39.39,0,0,1,.4-.389.4.4,0,0,1,.389.4l-.091,5.335A.4.4,0,0,1,910.176,2590.081Z" transform="translate(-902.873 -2334.39)"/><g transform="translate(15.545 33.862)"><path class="c" d="M993.067,743.936c23.184,3.547,102.924,14.655,169.077,10.709a5.375,5.375,0,0,1,5.7,5.168l8.948,248.029a6.186,6.186,0,0,1-5.921,6.405c-27.814,1.171-142.355,5.578-183.1.607a4.9,4.9,0,0,1-4.3-4.924l2.9-260.309A5.813,5.813,0,0,1,993.067,743.936Z" transform="translate(-983.472 -743.868)"/><path class="d" d="M1016.085,799.153c22.31,3.414,99.049,14.1,162.71,10.306a5.173,5.173,0,0,1,5.487,4.973l8.611,238.689a5.953,5.953,0,0,1-5.7,6.164c-26.767,1.127-136.994,5.368-176.2.584a4.716,4.716,0,0,1-4.14-4.739l2.794-250.507A5.594,5.594,0,0,1,1016.085,799.153Z" transform="translate(-1004.111 -792.614)"/><g class="e" transform="translate(26.956 30.716)"><path class="b" d="M1359.059,1012.951a1.467,1.467,0,0,0,1.507-1.555l-.013-.269a1.737,1.737,0,0,0-1.661-1.622l-144.576-3.6c-.871-.022-1.149.526-.618,1.217l1.649,2.145a3.732,3.732,0,0,0,2.55,1.283Z" transform="translate(-1213.427 -1005.901)"/></g><g class="e" transform="translate(26.794 40.247)"><path class="b" d="M1212.93,1087.209c-.871-.022-1.149.526-.618,1.217l1.649,2.145a3.732,3.732,0,0,0,2.55,1.283l141.163,2.405a1.467,1.467,0,0,0,1.507-1.556l-.013-.269a1.737,1.737,0,0,0-1.661-1.622Z" transform="translate(-1212.042 -1087.209)"/></g><path class="b" d="M1220.367,1631.712h-.052l-19.154.11a5.193,5.193,0,0,1-5.367-4.338l-1.93-16.043a3.536,3.536,0,0,1,.8-2.673,4.247,4.247,0,0,1,2.939-1.507h0c1.614-.135,3.836-.359,6.281-.6,5.323-.536,11.357-1.143,14.905-1.242l.078,0a5.387,5.387,0,0,1,5.387,3.7c1.056,3.68,1.075,10.666,1,18.111A4.78,4.78,0,0,1,1220.367,1631.712Zm-22.638-22.893a2.677,2.677,0,0,0-1.859.937,1.985,1.985,0,0,0-.455,1.5l1.93,16.043a3.637,3.637,0,0,0,3.806,2.962l19.154-.11h.038a3.218,3.218,0,0,0,3.344-2.938c.075-7.324.059-14.186-.94-17.665a3.868,3.868,0,0,0-3.919-2.571c-3.492.1-9.758.728-14.793,1.234-2.455.247-4.686.472-6.307.608Z" transform="translate(-1169.179 -1504.419)"/><path class="d" d="M1226.47,1636.85c4.019-.337,12.749-1.359,16.9-1.474a3.708,3.708,0,0,1,3.75,2.507c.846,2.947.83,8.848.775,14.295a3.186,3.186,0,0,1-3.323,2.966l-15.306.088a3.537,3.537,0,0,1-3.665-2.917l-1.542-12.82A2.486,2.486,0,0,1,1226.47,1636.85Z" transform="translate(-1195.838 -1530.87)"/><g class="e" transform="translate(66.542 110.361)"><path class="b" d="M1552.341,1685.332a1.128,1.128,0,0,0-1.157,1.512l1.816,6.48a2.174,2.174,0,0,0,2.012,1.5l96.4-1.479a1.548,1.548,0,0,0,1.525-1.607l-.148-3.975a1.679,1.679,0,0,0-1.643-1.6Z" transform="translate(-1551.128 -1685.332)"/></g><path class="b" d="M1229.924,1264.866h-.053l-19.154.11a5.193,5.193,0,0,1-5.367-4.338l-1.931-16.043a3.537,3.537,0,0,1,.8-2.673,4.249,4.249,0,0,1,2.94-1.507h0c1.614-.135,3.836-.359,6.281-.6,5.323-.536,11.357-1.144,14.906-1.242l.078,0a5.388,5.388,0,0,1,5.387,3.7c1.056,3.68,1.076,10.667,1,18.111A4.78,4.78,0,0,1,1229.924,1264.866Zm-22.638-22.893a2.678,2.678,0,0,0-1.859.937,1.985,1.985,0,0,0-.455,1.5l1.93,16.043a3.637,3.637,0,0,0,3.806,2.962l19.154-.11h.038a3.218,3.218,0,0,0,3.344-2.938c.075-7.324.059-14.186-.94-17.665a3.868,3.868,0,0,0-3.919-2.57c-3.492.1-9.758.728-14.792,1.234-2.455.248-4.686.472-6.307.608Z" transform="translate(-1177.616 -1180.576)"/><path class="d" d="M1236.027,1270c4.019-.337,12.749-1.359,16.9-1.474a3.708,3.708,0,0,1,3.75,2.507c.846,2.947.83,8.848.775,14.294a3.187,3.187,0,0,1-3.323,2.966l-15.307.088a3.536,3.536,0,0,1-3.665-2.917l-1.542-12.82A2.486,2.486,0,0,1,1236.027,1270Z" transform="translate(-1204.275 -1207.026)"/><g class="e" transform="translate(67.663 67.358)"><path class="b" d="M1561.9,1318.485a1.128,1.128,0,0,0-1.157,1.512l1.816,6.48a2.174,2.174,0,0,0,2.011,1.5l96.4-1.479a1.548,1.548,0,0,0,1.526-1.608l-.148-3.975a1.68,1.68,0,0,0-1.643-1.6Z" transform="translate(-1560.686 -1318.485)"/></g><path class="b" d="M1225.739,1981.857h-.053l-19.154.11a5.192,5.192,0,0,1-5.366-4.338l-1.931-16.042a3.539,3.539,0,0,1,.795-2.674,4.246,4.246,0,0,1,2.94-1.507h0c1.614-.135,3.836-.359,6.281-.6,5.323-.536,11.357-1.144,14.905-1.242l.078,0a5.387,5.387,0,0,1,5.387,3.7c1.056,3.679,1.076,10.667,1,18.11A4.78,4.78,0,0,1,1225.739,1981.857Zm-22.638-22.893a2.678,2.678,0,0,0-1.859.937,1.988,1.988,0,0,0-.455,1.5l1.931,16.042a3.637,3.637,0,0,0,3.806,2.962l19.154-.11h.038a3.218,3.218,0,0,0,3.344-2.938c.075-7.324.059-14.186-.939-17.664a3.891,3.891,0,0,0-3.92-2.571c-3.492.1-9.758.728-14.793,1.234-2.455.248-4.686.472-6.306.608Z" transform="translate(-1173.921 -1813.519)"/><path class="d" d="M1231.84,1987c4.019-.337,12.749-1.358,16.9-1.474a3.708,3.708,0,0,1,3.75,2.507c.846,2.947.83,8.848.775,14.294a3.186,3.186,0,0,1-3.323,2.966l-15.306.088a3.537,3.537,0,0,1-3.665-2.917l-1.542-12.82A2.486,2.486,0,0,1,1231.84,1987Z" transform="translate(-1200.579 -1839.972)"/><g class="e" transform="translate(67.172 151.407)"><path class="b" d="M1557.713,2035.479a1.128,1.128,0,0,0-1.157,1.512l1.816,6.48a2.174,2.174,0,0,0,2.012,1.5l96.4-1.478a1.548,1.548,0,0,0,1.525-1.608l-.148-3.975a1.679,1.679,0,0,0-1.643-1.6Z" transform="translate(-1556.499 -2035.479)"/></g><path class="b" d="M1215.607,2318.333h-.051l-19.154.109a5.191,5.191,0,0,1-5.366-4.338l-1.93-16.042a3.538,3.538,0,0,1,.795-2.673,4.252,4.252,0,0,1,2.94-1.508h0c1.612-.135,3.832-.358,6.274-.6,5.062-.51,11.362-1.144,14.912-1.242a5.463,5.463,0,0,1,5.465,3.7c1.056,3.68,1.075,10.667,1,18.11A4.782,4.782,0,0,1,1215.607,2318.333Zm-22.636-22.895a2.681,2.681,0,0,0-1.859.938,1.988,1.988,0,0,0-.454,1.5l1.93,16.042a3.637,3.637,0,0,0,3.806,2.962l19.154-.109a3.289,3.289,0,0,0,3.382-2.939c.075-7.324.059-14.186-.94-17.664a3.914,3.914,0,0,0-3.92-2.571c-3.493.1-9.762.728-14.8,1.234-2.452.247-4.681.471-6.3.607Z" transform="translate(-1164.978 -2110.552)"/><path class="d" d="M1221.711,2323.458c4.019-.336,12.749-1.358,16.9-1.474a3.708,3.708,0,0,1,3.75,2.506c.846,2.947.83,8.848.775,14.294a3.186,3.186,0,0,1-3.323,2.966l-15.306.088a3.536,3.536,0,0,1-3.665-2.917l-1.542-12.819A2.486,2.486,0,0,1,1221.711,2323.458Z" transform="translate(-1191.637 -2136.991)"/><g class="e" transform="translate(65.985 190.848)"><path class="b" d="M1547.583,2371.938a1.128,1.128,0,0,0-1.156,1.512l1.816,6.48a2.175,2.175,0,0,0,2.011,1.5l96.4-1.479a1.548,1.548,0,0,0,1.525-1.607l-.148-3.975a1.679,1.679,0,0,0-1.643-1.6Z" transform="translate(-1546.37 -2371.938)"/></g><path class="b" d="M1202.369,2665.356h-.052l-19.154.11a5.193,5.193,0,0,1-5.366-4.338l-1.93-16.043a3.535,3.535,0,0,1,.795-2.673,4.247,4.247,0,0,1,2.94-1.508h0c1.614-.135,3.836-.359,6.281-.6,5.323-.536,11.357-1.143,14.906-1.242a5.448,5.448,0,0,1,5.466,3.7c1.056,3.68,1.076,10.667,1,18.111A4.78,4.78,0,0,1,1202.369,2665.356Zm-22.638-22.893a2.678,2.678,0,0,0-1.859.937,1.986,1.986,0,0,0-.455,1.5l1.93,16.043a3.638,3.638,0,0,0,3.806,2.962l19.154-.11h.038a3.217,3.217,0,0,0,3.344-2.937c.075-7.324.059-14.186-.939-17.665a3.939,3.939,0,0,0-3.919-2.571c-3.492.1-9.758.728-14.793,1.234-2.455.247-4.686.472-6.306.608Z" transform="translate(-1153.291 -2416.898)"/><path class="d" d="M1208.47,2670.474c4.019-.337,12.75-1.359,16.9-1.474a3.709,3.709,0,0,1,3.75,2.507c.846,2.947.83,8.848.775,14.295a3.186,3.186,0,0,1-3.323,2.966l-15.307.088a3.537,3.537,0,0,1-3.665-2.918l-1.542-12.82A2.486,2.486,0,0,1,1208.47,2670.474Z" transform="translate(-1179.948 -2443.328)"/><g class="e" transform="translate(64.433 231.526)"><path class="b" d="M1534.343,2718.955a1.129,1.129,0,0,0-1.157,1.512l1.816,6.48a2.175,2.175,0,0,0,2.011,1.5l96.4-1.479a1.547,1.547,0,0,0,1.525-1.607l-.148-3.975a1.679,1.679,0,0,0-1.643-1.6Z" transform="translate(-1533.13 -2718.955)"/></g></g><path class="f" d="M1725.514,458.913c-6.073-4.381-11.419-4.387-15.2-3.341a7.505,7.505,0,0,0-5.464,7.8l1.321,17.737,19.278,2.042S1737.425,467.5,1725.514,458.913Zm-8.734,14.143a4.815,4.815,0,1,1,4.9-4.732A4.815,4.815,0,0,1,1716.78,473.056Z" transform="translate(-1604.723 -455)"/><path class="b" d="M1721.887,490.181a.956.956,0,0,1-.61-.822l-.21-2.825a.956.956,0,0,1,1.907-.141l.21,2.825a.957.957,0,0,1-1.3.963Zm-.412-5.536a.956.956,0,0,1-.61-.822l-.16-2.145a7.656,7.656,0,0,1,5.565-7.938,14.929,14.929,0,0,1,7.3-.176.957.957,0,0,1-.416,1.868,13.028,13.028,0,0,0-6.373.152,5.738,5.738,0,0,0-4.168,5.953l.16,2.145a.957.957,0,0,1-1.3.963Z" transform="translate(-1618.72 -471.063)"/><path class="g" d="M1489.819,664.247l.152-8.9a5.434,5.434,0,0,1,5.712-5.334l61.352,3.149a5.285,5.285,0,0,1,5.009,5.052l.367,8.564Z" transform="translate(-1414.918 -627.143)"/><path class="b" d="M1663.887,674.3h-.007l-2.64-.045a.4.4,0,0,1,.006-.792h.007l2.64.045a.4.4,0,0,1-.006.792Z" transform="translate(-1565.901 -647.85)"/><path class="b" d="M1511.094,676.827a.956.956,0,0,1-.612-.909l.061-3.6a5.539,5.539,0,0,1,5.632-5.444l9.706.166a.957.957,0,0,1-.033,1.913l-9.705-.166a3.629,3.629,0,0,0-3.687,3.563l-.062,3.6a.956.956,0,0,1-1.3.876Z" transform="translate(-1433.159 -642.036)"/><path class="h" d="M1279.5,740.925l107.348,1.826a7.936,7.936,0,0,1,7.706,6.714l.082.526a6.815,6.815,0,0,1-6.85,7.862l-110.133-1.877a4.431,4.431,0,0,1-4.346-4.718l.321-4.925A5.786,5.786,0,0,1,1279.5,740.925Z" transform="translate(-1223.774 -707.407)"/></g><g transform="translate(663.593 625.499)"><g transform="translate(0)"><path class="i" d="M1910.822,1917.345c-.688,24.573-2.92,109.334-1.854,139.371.113,3.182,2.994,5.736,6.588,5.84,17.776.515,82.944,1.82,112.021.74,6.056-.225,10.872-4.568,11-9.933.6-25.793,1.938-98.337-1.231-131.569-.38-3.982-3.909-7.153-8.4-7.551-19.359-1.715-84.808-5.906-109.928-4.462C1914.485,1910.042,1910.935,1913.327,1910.822,1917.345Z" transform="translate(-1908.684 -1909.484)"/><path class="j" d="M1970.468,2011.088c-.957,5.743-3.975,24.85-3.017,31.916.14,1.033,3.315,1.868,7.339,1.928,16.567.249,73.089.8,97.388.3,4.376-.09,7.809-1,8.046-2.121,1.231-5.859,4.767-23.651,3.848-30.637-.146-1.115-3.514-2.025-7.846-2.124-17.923-.413-77.984-1.394-98.633-1.105C1973.717,2009.3,1970.634,2010.094,1970.468,2011.088Z" transform="translate(-1960.398 -1997.502)"/><path class="k" d="M2122.062,2045.871a4.767,4.767,0,0,0-3.35-1.452l-93.1-1.479a4.766,4.766,0,0,0-4.821,4.321l-1.934,20.655c-.158,1.691,2.624,3.115,6.171,3.158l91.53,1.109c3.542.043,6.47-1.308,6.5-3l.345-19.917A4.767,4.767,0,0,0,2122.062,2045.871Z" transform="translate(-2005.937 -2027.296)"/><g transform="translate(10.948 61.3)"><rect class="l" width="21.388" height="13.467" rx="6.733"/><rect class="l" width="21.388" height="13.467" rx="6.733" transform="translate(30.102)"/><rect class="l" width="21.388" height="13.467" rx="6.733" transform="translate(59.016)"/><path class="m" d="M2775.361,2445.842a6.76,6.76,0,0,1-6.76,6.76h-7.828a6.76,6.76,0,0,1-6.76-6.76h0a6.76,6.76,0,0,1,6.76-6.76h7.828a6.76,6.76,0,0,1,6.76,6.76Z" transform="translate(-2665.868 -2438.301)"/></g><g transform="translate(10.948 82.293)"><rect class="l" width="21.388" height="13.467" rx="6.733"/><rect class="l" width="21.388" height="13.467" rx="6.733" transform="translate(30.102)"/><rect class="l" width="21.388" height="13.467" rx="6.733" transform="translate(59.016)"/><rect class="n" width="21.388" height="13.467" rx="6.733" transform="translate(88.722)"/></g><g transform="translate(10.948 101.7)"><rect class="l" width="21.388" height="13.467" rx="6.733"/><rect class="l" width="21.388" height="13.467" rx="6.733" transform="translate(30.102)"/><rect class="l" width="21.388" height="13.467" rx="6.733" transform="translate(59.016)"/></g><g transform="translate(10.948 121.901)"><rect class="l" width="21.388" height="13.467" rx="6.733"/><rect class="l" width="21.388" height="13.467" rx="6.733" transform="translate(30.102)"/><rect class="l" width="21.388" height="13.467" rx="6.733" transform="translate(59.016)"/></g><rect class="n" width="17.428" height="32.875" rx="8.714" transform="translate(100.858 102.493)"/></g><g class="o" transform="translate(97.689 20.108)"><path class="b" d="M2766.071,2082.407a1.386,1.386,0,0,1-1.386,1.386h-4.357a1.386,1.386,0,0,1-1.386-1.386h0a1.386,1.386,0,0,1,1.386-1.386h4.357a1.386,1.386,0,0,1,1.386,1.386Z" transform="translate(-2756.961 -2081.021)"/><path class="b" d="M2766.071,2251.35a1.386,1.386,0,0,1-1.386,1.386h-4.357a1.386,1.386,0,0,1-1.386-1.386h0a1.386,1.386,0,0,1,1.386-1.386h4.357a1.386,1.386,0,0,1,1.386,1.386Z" transform="translate(-2756.961 -2230.16)"/><path class="b" d="M2744.819,2123.931a1.387,1.387,0,0,1-1.386,1.386h0a1.387,1.387,0,0,1-1.386-1.386v-4.357a1.386,1.386,0,0,1,1.386-1.386h0a1.386,1.386,0,0,1,1.386,1.386Z" transform="translate(-2742.047 -2113.831)"/><path class="b" d="M2744.819,2191.508a1.386,1.386,0,0,1-1.386,1.386h0a1.386,1.386,0,0,1-1.386-1.386v-4.357a1.387,1.387,0,0,1,1.386-1.386h0a1.387,1.387,0,0,1,1.386,1.386Z" transform="translate(-2742.047 -2173.486)"/><path class="b" d="M2825.912,2123.931a1.387,1.387,0,0,1-1.386,1.386h0a1.387,1.387,0,0,1-1.386-1.386v-4.357a1.386,1.386,0,0,1,1.386-1.386h0a1.386,1.386,0,0,1,1.386,1.386Z" transform="translate(-2813.634 -2113.831)"/><path class="b" d="M2825.912,2191.508a1.386,1.386,0,0,1-1.386,1.386h0a1.386,1.386,0,0,1-1.386-1.386v-4.357a1.387,1.387,0,0,1,1.386-1.386h0a1.387,1.387,0,0,1,1.386,1.386Z" transform="translate(-2813.634 -2173.486)"/></g></g><g transform="translate(621.968 499.141)"><g transform="translate(0 31.647)"><circle class="p" cx="14.169" cy="14.169" r="14.169" transform="translate(0 20.038) rotate(-45)"/><circle class="q" cx="13.698" cy="13.698" r="13.698" transform="translate(0.666 20.038) rotate(-45)"/><path class="b" d="M1625.189,1168.964a.391.391,0,0,1-.178-.043.4.4,0,0,1-.175-.532,12.985,12.985,0,0,1,11.648-7.172,13.134,13.134,0,0,1,2.352.212.4.4,0,0,1-.142.779,12.361,12.361,0,0,0-2.21-.2,12.2,12.2,0,0,0-10.941,6.737A.4.4,0,0,1,1625.189,1168.964Z" transform="translate(-1616.446 -1154.22)"/><circle class="r" cx="11.593" cy="11.593" r="11.593" transform="matrix(0.23, -0.973, 0.973, 0.23, 6.389, 28.956)"/><g transform="translate(15.23 12.131)"><path class="s" d="M1687.48,1221.838v-1.261a10.286,10.286,0,0,1-3.539-.767.73.73,0,0,1-.4-.862l.32-1.175a.736.736,0,0,1,1-.481,8.542,8.542,0,0,0,3.268.688c1.266,0,2.211-.429,2.211-1.31,0-.794-.73-1.266-2.49-1.738-2.512-.687-4.315-1.782-4.315-3.993,0-2,1.46-3.52,3.993-3.928v-1.261a.735.735,0,0,1,.735-.735H1689a.735.735,0,0,1,.735.735v1.132a9.382,9.382,0,0,1,2.8.5.731.731,0,0,1,.457.883l-.295,1.086a.733.733,0,0,1-.967.5,7.648,7.648,0,0,0-2.751-.5c-1.5,0-1.932.623-1.932,1.181,0,.687.9,1.159,2.855,1.76,2.79.837,3.949,2,3.949,4.078,0,1.911-1.417,3.628-4.164,4.057v1.411a.735.735,0,0,1-.735.735h-.741A.735.735,0,0,1,1687.48,1221.838Z" transform="translate(-1683.511 -1205.014)"/></g></g><g transform="translate(25.487 0)"><circle class="p" cx="24.665" cy="24.665" r="24.665" transform="translate(0 34.882) rotate(-45)"/><circle class="q" cx="23.845" cy="23.845" r="23.845" transform="translate(1.16 34.882) rotate(-45)"/><path class="b" d="M1897.864,950.87a.4.4,0,0,1-.353-.574,22.314,22.314,0,0,1,20.016-12.324,22.585,22.585,0,0,1,4.042.364.4.4,0,1,1-.142.779,21.831,21.831,0,0,0-3.9-.35,21.525,21.525,0,0,0-19.309,11.889A.4.4,0,0,1,1897.864,950.87Z" transform="translate(-1882.645 -925.498)"/><circle class="r" cx="20.182" cy="20.182" r="20.182" transform="translate(6.86 35.402) rotate(-45)"/><g transform="translate(26.512 21.118)"><path class="s" d="M2004.093,1041v-2.2a17.907,17.907,0,0,1-6.161-1.336,1.27,1.27,0,0,1-.7-1.5l.558-2.045a1.28,1.28,0,0,1,1.738-.838,14.866,14.866,0,0,0,5.688,1.2c2.2,0,3.849-.748,3.849-2.28,0-1.382-1.271-2.2-4.334-3.027-4.372-1.2-7.511-3.1-7.511-6.95,0-3.475,2.541-6.128,6.95-6.838v-2.2a1.279,1.279,0,0,1,1.279-1.279h1.29a1.279,1.279,0,0,1,1.28,1.279v1.972a16.327,16.327,0,0,1,4.883.877,1.273,1.273,0,0,1,.8,1.537l-.513,1.891a1.275,1.275,0,0,1-1.684.862,13.324,13.324,0,0,0-4.79-.869c-2.616,0-3.363,1.083-3.363,2.055,0,1.2,1.57,2.018,4.97,3.064,4.858,1.458,6.875,3.475,6.875,7.1,0,3.326-2.466,6.315-7.249,7.063V1041a1.28,1.28,0,0,1-1.28,1.279h-1.29A1.279,1.279,0,0,1,2004.093,1041Z" transform="translate(-1997.184 -1011.71)"/></g></g><g transform="translate(41.487 54.08)"><circle class="p" cx="25.38" cy="25.38" r="25.38" transform="translate(0 35.893) rotate(-45)"/><circle class="q" cx="24.536" cy="24.536" r="24.536" transform="translate(1.194 35.893) rotate(-45)"/><path class="b" d="M2038.116,1415.745a.4.4,0,0,1-.353-.574,22.95,22.95,0,0,1,20.586-12.675,23.257,23.257,0,0,1,4.157.374.4.4,0,0,1-.142.779,22.437,22.437,0,0,0-4.015-.361,22.161,22.161,0,0,0-19.879,12.24A.4.4,0,0,1,2038.116,1415.745Z" transform="translate(-2022.456 -1389.648)"/><circle class="r" cx="20.767" cy="20.767" r="20.767" transform="translate(7.059 36.428) rotate(-45)"/><g transform="translate(27.281 21.73)"><path class="s" d="M2147.338,1508.411v-2.259a18.421,18.421,0,0,1-6.339-1.374,1.307,1.307,0,0,1-.723-1.544l.574-2.1a1.318,1.318,0,0,1,1.788-.862,15.3,15.3,0,0,0,5.854,1.233c2.269,0,3.961-.769,3.961-2.346,0-1.422-1.308-2.268-4.46-3.114-4.5-1.231-7.729-3.191-7.729-7.152,0-3.576,2.615-6.306,7.152-7.036v-2.26a1.316,1.316,0,0,1,1.316-1.317h1.328a1.316,1.316,0,0,1,1.316,1.317v2.029a16.794,16.794,0,0,1,5.025.9,1.311,1.311,0,0,1,.819,1.581l-.528,1.947a1.313,1.313,0,0,1-1.733.886,13.707,13.707,0,0,0-4.928-.895c-2.691,0-3.46,1.115-3.46,2.115,0,1.231,1.615,2.076,5.114,3.153,5,1.5,7.074,3.576,7.074,7.306,0,3.422-2.537,6.5-7.459,7.267v2.528a1.316,1.316,0,0,1-1.316,1.317h-1.328A1.316,1.316,0,0,1,2147.338,1508.411Z" transform="translate(-2140.229 -1478.275)"/></g></g><g transform="translate(87.593 33.055)"><circle class="p" cx="18.596" cy="18.596" r="18.596" transform="translate(1.35 38.183) rotate(-82.027)"/><circle class="q" cx="17.978" cy="17.978" r="17.978" transform="translate(0 34.472) rotate(-73.488)"/><path class="b" d="M2362.01,1169.133a.4.4,0,0,1-.353-.574,16.92,16.92,0,0,1,15.178-9.345,17.117,17.117,0,0,1,3.065.276.4.4,0,0,1-.142.779,16.344,16.344,0,0,0-2.923-.263,16.132,16.132,0,0,0-14.471,8.909A.4.4,0,0,1,2362.01,1169.133Z" transform="translate(-2354.488 -1153.86)"/><circle class="r" cx="15.216" cy="15.216" r="15.216" transform="translate(1.219 22.737) rotate(-45)"/><g transform="translate(16.036 11.969)"><path class="s" d="M2442.833,1237.718v-1.656a13.5,13.5,0,0,1-4.645-1.007.957.957,0,0,1-.529-1.131l.42-1.542a.965.965,0,0,1,1.31-.631,11.211,11.211,0,0,0,4.289.9c1.662,0,2.9-.563,2.9-1.719,0-1.042-.958-1.662-3.268-2.282-3.3-.9-5.663-2.338-5.663-5.24,0-2.62,1.916-4.62,5.24-5.155V1216.6a.964.964,0,0,1,.965-.964h.972a.965.965,0,0,1,.965.964v1.486a12.309,12.309,0,0,1,3.682.661.959.959,0,0,1,.6,1.159l-.386,1.426a.962.962,0,0,1-1.27.65,10.039,10.039,0,0,0-3.611-.656c-1.972,0-2.536.817-2.536,1.55,0,.9,1.183,1.521,3.747,2.31,3.663,1.1,5.184,2.62,5.184,5.353,0,2.507-1.86,4.761-5.466,5.325v1.853a.964.964,0,0,1-.964.964h-.973A.965.965,0,0,1,2442.833,1237.718Z" transform="translate(-2437.624 -1215.638)"/></g></g></g><g transform="translate(498.259 577.259)"><path class="t" d="M864.694,3152.774s-.715,4.048-1.066,8.054a2.76,2.76,0,0,0,2.641,2.991c5.336.222,16.749.655,20.844.472a.9.9,0,0,0,.79-1.23,2.009,2.009,0,0,0-1.029-1.083l-18.852-8.665Z" transform="translate(-820.789 -2958.791)"/><path class="u" d="M867.8,3126.854l.574,4.842s3.3,1.537,5.558-.194l-1.368-5.4Z" transform="translate(-824.483 -2935.25)"/><path class="v" d="M758.729,2356c-.248,1.264-1.332,63.092,5.277,90.8a.941.941,0,0,1-.552,1.094,16.367,16.367,0,0,1-5.382,1.094,1.619,1.619,0,0,1-1.607-1.163c-1.889-6.428-10.941-38.637-12.122-69.4-1.319-34.38,0-1.171,0-1.171l.774-21.251Z" transform="translate(-714.978 -2255.416)"/><path class="w" d="M670.668,3170.787s-1.138,2.043-2.24,7.473a1.684,1.684,0,0,0,1.482,2.017c1.762.173,4.474.4,6.647.381a1.679,1.679,0,0,0,1.662-1.873,14.162,14.162,0,0,0-3.306-7.768Z" transform="translate(-648.449 -2974.693)"/><path class="x" d="M679.268,3115.522l1.342,7.321s1.327.987,3.952.271l-.641-7.877Z" transform="translate(-658.05 -2925.656)"/><path class="y" d="M632.667,2346.437c-5.405,32.621,1.172,80.625,3.391,90.02a1.465,1.465,0,0,0,1.183,1.113,9.839,9.839,0,0,0,4.228-.168,1.343,1.343,0,0,0,.965-1.237c.3-7.6-.238-54.228,4.8-72.657a4.186,4.186,0,0,1,1.615-2.309l9.775-6.949.749-11.233Z" transform="translate(-615.074 -2243.954)"/><g transform="translate(15.574 15.586)"><path class="z" d="M667.579,1824.981c-16.2-.268-34.071,4.253-34.071,4.253-4.828,28.173-.844,60.669-.844,60.669,12.54,3.289,26.686-2.01,26.686-2.01,2.084-11.776,11.809-44.917,11.809-44.917a53.359,53.359,0,0,0,19.8-6.285c-4.1-4.747-6.026-10.788-6.865-14.359A54.345,54.345,0,0,1,667.579,1824.981Z" transform="translate(-631.118 -1799.894)"/><path class="aa" d="M1114.394,1632.141a3.1,3.1,0,0,0-3.6-1.013c-2.384,10.069-14.882,18.233-27.723,22.224.839,3.571,2.769,9.611,6.865,14.358C1111.241,1655.729,1114.394,1632.141,1114.394,1632.141Z" transform="translate(-1030.087 -1630.914)"/></g><g transform="translate(96.276 0)"><path class="ab" d="M1322.786,1515.259c.167.53-1.762,1.335-2.9-.829-.04-1.037-.671-5.482-.051-6.328,3.3-4.5,9.7-10.145,9.7-10.145a1.524,1.524,0,0,1,.191,2.116l-3.105,3.235a15.046,15.046,0,0,1,1.813,3.585,4.351,4.351,0,0,1-.434,3.2c-.545.982-1.289,2.259-1.992,3.258A4.3,4.3,0,0,1,1322.786,1515.259Z" transform="translate(-1319.567 -1497.957)"/><path class="ac" d="M1340.2,1561.516l-2.83,2.4-.888,2.389,2.523,2.8s.848-4.739,1.479-5.765S1340.79,1561.816,1340.2,1561.516Z" transform="translate(-1334.501 -1554.065)"/></g><path class="ad" d="M525.032,1896.89l-6.213-15.685s-15.13,10.28-17.618,23.314a35.811,35.811,0,0,1,13.153,3.525C515.473,1901.89,525.032,1896.89,525.032,1896.89Z" transform="translate(-500.856 -1836.279)"/><path class="ae" d="M535.657,2087.224s-16.987,9.6-22.719,1.4a6.444,6.444,0,0,1-1.181-5.007,35.8,35.8,0,0,0-13.153-3.525,17.991,17.991,0,0,0,1.955,12.333c10.04,18.366,37.346-1.015,37.346-1.015Z" transform="translate(-498.259 -2011.855)"/><g transform="translate(35.32 49.303)"><path class="af" d="M799.6,1980.443l9.271-32.377a.944.944,0,0,1,.8-.68c1.68-.2,6.547-.746,12.167-1.221,6.769-.573,14.63-1.036,19.328-.642a.948.948,0,0,1,.775,1.364c-2.671,5.4-13.659,27.388-19.162,34.589a.949.949,0,0,1-.764.375l-21.51-.2A.947.947,0,0,1,799.6,1980.443Z" transform="translate(-799.565 -1942.232)"/><path class="ag" d="M991.637,1919.675l6.722-1.12a.483.483,0,0,1,.537.627l-.665,2.016a.483.483,0,0,1-.394.327l-6.468.864a.483.483,0,0,1-.533-.588l.412-1.76A.483.483,0,0,1,991.637,1919.675Z" transform="translate(-968.402 -1918.548)"/><path class="ah" d="M954.75,1940.533l.554-2.884a.667.667,0,0,1,.587-.538l13.576-1.377a.667.667,0,0,1,.716.819l-.863,3.594a.667.667,0,0,1-.615.51l-13.267.668A.667.667,0,0,1,954.75,1940.533Z" transform="translate(-936.548 -1933.716)"/><path class="ai" d="M812.255,2094.661s-1.292-5.311-.771-7.195,1.53-4.307,4.895-3.768a49.2,49.2,0,0,1,7.333,1.956,1.926,1.926,0,0,1-2.758,1.663l1.586,1.227s-.227,1.965-2.387.915l1.475,1.627a1.719,1.719,0,0,1-2.517.579C817.523,2090.629,816.761,2095.3,812.255,2094.661Z" transform="translate(-809.977 -2064.272)"/></g><path class="aj" d="M763.143,1732.739l-5.154,14.905a.537.537,0,0,0,.245.647c1.4.777,6.467,3.022,12.567-.845a2.528,2.528,0,0,0,1.164-1.806l1.669-12.9Z" transform="translate(-727.516 -1705.217)"/><g transform="translate(31.457 6.611)"><path class="ak" d="M825.251,1610.2c.115.234,2.06,17.379,2.06,17.379l-9.813.9-4.257-15.975S823.321,1606.28,825.251,1610.2Z" transform="translate(-807.774 -1602.509)"/><path class="al" d="M775.266,1567.176l1.582,8.585a1.2,1.2,0,0,0,.1.315c.3.615,1.5,2.656,3.509,1.307,1.826-1.224,3.512-2.313,4.912-2.338a1.218,1.218,0,0,1,1.233,1.081,52.7,52.7,0,0,1,.331,8.175,1.216,1.216,0,0,1-1.182,1.14,39.319,39.319,0,0,1-9.129-.678,1.22,1.22,0,0,1-.9-.86c-.588-2.106-2.4-8.5-3.177-10.2-.732-1.6-3.1-1.932-4.1-2a1.2,1.2,0,0,1-.841-.431c-.745-.895-2.083-3.09.6-5.04a1.221,1.221,0,0,0,.247-1.741,3.167,3.167,0,0,1,.335-4.711,4.468,4.468,0,0,1,5.466-.426,1.22,1.22,0,0,0,1.535-.306.965.965,0,0,1,1.056-.3,1.2,1.2,0,0,0,1.458-1.016,3.641,3.641,0,0,1,3.372-3.313c4.324-.63,6.263,3.758,6.047,6.769s-4.943,3.427-7.585,2.8c-2.009-.474-3.837,1.3-4.6,2.18A1.21,1.21,0,0,0,775.266,1567.176Z" transform="translate(-766.606 -1554.35)"/><path class="am" d="M782.39,1700.953s.151-5.263-1.954-5.855-4.473.84-2.8,4.072C779.721,1703.191,782.39,1700.953,782.39,1700.953Z" transform="translate(-775.845 -1678.484)"/></g></g></g></svg>