<svg xmlns="http://www.w3.org/2000/svg" width="158.532" height="53.877" viewBox="0 0 158.532 53.877"><defs><style>.a{fill:#0040a3;}.b{fill:#2ecad2;}</style></defs><g transform="translate(-220.734 -140.011)"><path d="M282.239,161h2.991c.023,1.244.957,2.081,2.823,2.081,1.89,0,2.824-.837,2.824-2.081,0-1.364-1.46-1.627-3.159-1.939-2.369-.43-5.169-.933-5.169-4.57,0-2.9,2.2-4.929,5.528-4.929,3.23,0,5.408,1.938,5.527,4.81h-2.895c-.024-1.2-.909-2.058-2.608-2.058-1.723,0-2.584.933-2.584,2.081,0,1.364,1.459,1.627,3.158,1.939,2.369.43,5.193.933,5.193,4.57,0,3.039-2.322,4.929-5.815,4.929C284.584,165.836,282.31,163.994,282.239,161Z"/><path d="M296.476,148.536h2.847v6.82a3.984,3.984,0,0,1,3.518-1.963c2.727,0,5.312,1.771,5.312,5.983v6.149H305.3v-6.149c0-2.25-1.2-3.327-2.991-3.327-1.747,0-2.991,1.125-2.991,3.327v6.149h-2.847Z"/><path d="M310.689,150.283a1.89,1.89,0,1,1,3.78,0,1.89,1.89,0,1,1-3.78,0Zm.455,3.421h2.847v11.821h-2.847Z"/><path d="M316.982,159.71a5.972,5.972,0,0,1,6.293-6.317,6.08,6.08,0,0,1,6.389,6.341,5.808,5.808,0,0,1-5.886,6.1,4.493,4.493,0,0,1-3.948-2.034v6.772h-2.848Zm9.81-.1a3.482,3.482,0,1,0-3.493,3.565A3.373,3.373,0,0,0,326.792,159.615Z"/><path d="M331.769,159.71a5.972,5.972,0,0,1,6.293-6.317,6.08,6.08,0,0,1,6.389,6.341,5.808,5.808,0,0,1-5.886,6.1,4.493,4.493,0,0,1-3.948-2.034v6.772h-2.848Zm9.811-.1a3.482,3.482,0,1,0-3.493,3.565A3.374,3.374,0,0,0,341.58,159.615Z"/><path d="M346.509,150.283a1.891,1.891,0,1,1,3.781,0,1.891,1.891,0,0,1-3.781,0Zm.455,3.421h2.847v11.821h-2.847Z"/><path d="M352.8,159.376c0-3.949,2.345-5.983,5.838-5.983s5.839,2.01,5.839,5.983v6.149h-2.848v-6.149c0-2.25-1.2-3.327-2.991-3.327s-2.991,1.077-2.991,3.327v6.149H352.8Z"/><path d="M366.991,166.817h2.872c.478,1.1,1.627,1.6,3.134,1.6,2.106,0,3.422-.981,3.422-3.732v-1.029a4.463,4.463,0,0,1-4,2.033,5.691,5.691,0,0,1-5.838-6.077,6.071,6.071,0,0,1,6.365-6.222,5.978,5.978,0,0,1,6.316,6.317v4.882c0,4.522-2.8,6.293-6.269,6.293C370.054,170.885,367.733,169.617,366.991,166.817Zm9.428-7.2a3.483,3.483,0,1,0-6.963,0,3.482,3.482,0,0,0,6.963,0Z"/><path d="M283.05,172.518h7.489c2.968,0,4.523,1.7,4.523,4.067a3.658,3.658,0,0,1-2.034,3.446v.048a3.853,3.853,0,0,1,2.752,3.852c0,2.441-1.58,4.235-4.618,4.235H283.05Zm7.106,6.341a1.668,1.668,0,0,0,1.867-1.747c0-1.005-.478-1.747-1.89-1.747h-4.02v3.494Zm.479,6.484a1.764,1.764,0,0,0,2.01-1.866,1.835,1.835,0,0,0-1.986-1.891h-4.546v3.757Z"/><path d="M297.335,182.256a6.367,6.367,0,1,1,6.365,6.222A6.071,6.071,0,0,1,297.335,182.256Zm9.835,0a3.483,3.483,0,1,0-3.47,3.566A3.355,3.355,0,0,0,307.17,182.256Z"/><path d="M314.995,182.137l-4.164-5.791h3.446l2.847,4.259,2.848-4.259h3.374l-4.212,5.791,4.4,6.029h-3.446l-3.063-4.546-3.039,4.546H310.64Z"/><path d="M283.048,191h1.01a1.42,1.42,0,1,1,0,2.832h-1.01Zm1.01,2.182c.573,0,.814-.294.814-.766s-.241-.767-.814-.767h-.3v1.533Z"/><path d="M288.166,191h2.112v.649h-1.4v.464h1.15v.563h-1.15v.506h1.4v.65h-2.112Z"/><path d="M292.908,191h.708v2.182h1.352v.65h-2.06Z"/><path d="M297.509,191h.709v2.832h-.709Z"/><path d="M300.716,191h.761l.616,2.018L302.71,191h.744l-.98,2.832H301.7Z"/><path d="M305.952,191h2.112v.649h-1.4v.464h1.15v.563h-1.15v.506h1.4v.65h-2.112Z"/><path d="M310.694,191h1.159c.756,0,1.093.407,1.093.97a.878.878,0,0,1-.538.875l.643.987h-.84l-.507-.888h-.3v.888h-.708Zm1.167,1.295c.285,0,.368-.139.368-.325s-.083-.321-.368-.321H311.4v.646Z"/><path d="M316.175,192.658,315.13,191h.835l.564,1,.564-1h.818l-1.028,1.637v1.2h-.708Z"/><path d="M323.519,193h.691c0,.178.11.29.385.29s.385-.112.385-.29-.219-.229-.481-.277c-.407-.074-.927-.169-.927-.858a1.036,1.036,0,0,1,2.055-.021h-.665c0-.165-.109-.295-.354-.295s-.354.143-.354.291c0,.186.219.229.486.277.411.073.931.168.931.857,0,.563-.429.918-1.076.918S323.533,193.546,323.519,193Z"/><path d="M328.1,192.416a1.523,1.523,0,1,1,1.522,1.472A1.446,1.446,0,0,1,328.1,192.416Zm2.327,0a.805.805,0,1,0-.8.822A.777.777,0,0,0,330.422,192.416Z"/><path d="M333.716,191h.708v2.182h1.352v.65h-2.06Z"/><path d="M338.252,192.7V191h.709v1.7c0,.347.162.541.511.541s.521-.19.521-.541V191h.691v1.7a1.216,1.216,0,0,1-2.432,0Z"/><path d="M343.939,191.649h-.779V191h2.27v.649h-.783v2.183h-.708Z"/><path d="M347.977,191h.708v2.832h-.708Z"/><path d="M351.262,192.416a1.522,1.522,0,1,1,1.522,1.472A1.445,1.445,0,0,1,351.262,192.416Zm2.326,0a.8.8,0,1,0-.8.822A.776.776,0,0,0,353.588,192.416Z"/><path d="M356.817,192.134a1.225,1.225,0,0,1,2.449,0v1.7h-.708v-1.7a.517.517,0,1,0-1.033,0v1.7h-.708Z"/><path d="M361.769,193h.691c0,.178.109.29.385.29s.384-.112.384-.29-.218-.229-.48-.277c-.407-.074-.928-.169-.928-.858a1.036,1.036,0,0,1,2.056-.021h-.665c0-.165-.109-.295-.354-.295s-.354.143-.354.291c0,.186.218.229.485.277.411.073.931.168.931.857,0,.563-.428.918-1.075.918S361.782,193.546,361.769,193Z"/><path class="a" d="M220.734,148.508v45.325h45.321V148.508Zm39.657,39.661H226.4V154.176h33.993Z"/><path class="a" d="M243.4,171.171l-5.666-5.665H243.4Z"/><path class="a" d="M274.556,140.011v19.831h-5.668V145.675H254.725v-5.664Z"/><path class="b" d="M249.059,148.508v22.665h-5.664V165.5H237.73v-17Z"/></g></svg>