<svg xmlns="http://www.w3.org/2000/svg" width="325.574" height="110.576" viewBox="0 0 325.574 110.576"><defs><style>.a{fill:#fff;}.b{fill:#706f6f;}</style></defs><g transform="translate(-328.13 -1685.757)"><g transform="translate(454.565 1702.91)"><path class="a" d="M492.688,1734.752h6.138c.049,2.553,1.965,4.273,5.795,4.273,3.879,0,5.8-1.72,5.8-4.273,0-2.8-3-3.339-6.482-3.978-4.863-.884-10.608-1.916-10.608-9.381,0-5.942,4.518-10.116,11.344-10.116,6.63,0,11.1,3.978,11.344,9.871h-5.942c-.049-2.456-1.866-4.223-5.353-4.223-3.536,0-5.3,1.916-5.3,4.273,0,2.8,3,3.339,6.482,3.978,4.862.884,10.657,1.916,10.657,9.381,0,6.236-4.764,10.116-11.934,10.116C497.5,1744.672,492.835,1740.891,492.688,1734.752Z" transform="translate(-492.688 -1708.822)"/><path class="a" d="M530.718,1708.529h5.844v14a8.177,8.177,0,0,1,7.219-4.028c5.6,0,10.9,3.634,10.9,12.278V1743.4H548.84v-12.621c0-4.616-2.456-6.827-6.14-6.827-3.584,0-6.138,2.308-6.138,6.827V1743.4h-5.844Z" transform="translate(-501.498 -1708.186)"/><path class="a" d="M568.684,1712.01a3.88,3.88,0,1,1,7.759,0,3.88,3.88,0,0,1-7.759,0Zm.934,7.023h5.844v24.26h-5.844Z" transform="translate(-510.294 -1708.082)"/><path class="a" d="M585.494,1734.47c0-7.859,5.3-12.966,12.916-12.966,7.711,0,13.113,5.3,13.113,13.014,0,8.3-6.188,12.523-12.081,12.523a9.222,9.222,0,0,1-8.1-4.174v13.9h-5.845Zm20.136-.2a6.924,6.924,0,0,0-7.17-7.318c-4.273,0-7.121,3.045-7.121,7.318s2.848,7.318,7.121,7.318A6.923,6.923,0,0,0,605.63,1734.273Z" transform="translate(-514.188 -1711.191)"/><path class="a" d="M624.994,1734.47c0-7.859,5.3-12.966,12.916-12.966,7.71,0,13.112,5.3,13.112,13.014,0,8.3-6.187,12.523-12.08,12.523a9.223,9.223,0,0,1-8.1-4.174v13.9h-5.845Zm20.136-.2a6.924,6.924,0,0,0-7.17-7.318c-4.273,0-7.121,3.045-7.121,7.318s2.848,7.318,7.121,7.318A6.924,6.924,0,0,0,645.13,1734.273Z" transform="translate(-523.339 -1711.191)"/><path class="a" d="M664.368,1712.01a3.88,3.88,0,1,1,7.759,0,3.88,3.88,0,0,1-7.759,0Zm.933,7.023h5.844v24.26H665.3Z" transform="translate(-532.461 -1708.082)"/><path class="a" d="M681.178,1733.782c0-8.1,4.812-12.278,11.982-12.278s11.982,4.125,11.982,12.278V1746.4H699.3v-12.621c0-4.616-2.456-6.827-6.138-6.827s-6.139,2.211-6.139,6.827V1746.4h-5.843Z" transform="translate(-536.355 -1711.191)"/><path class="a" d="M718.828,1749.055h5.893c.982,2.259,3.339,3.29,6.433,3.29,4.322,0,7.023-2.013,7.023-7.661v-2.112c-1.67,2.7-4.568,4.174-8.2,4.174-5.795,0-11.982-3.879-11.982-12.474,0-7.367,5.4-12.769,13.063-12.769s12.965,5.107,12.965,12.966v10.017c0,9.282-5.746,12.917-12.867,12.917C725.115,1757.4,720.351,1754.8,718.828,1749.055Zm19.35-14.782c0-4.273-2.849-7.318-7.121-7.318a6.924,6.924,0,0,0-7.171,7.318c0,4.273,2.9,7.023,7.171,7.023S738.178,1738.546,738.178,1734.273Z" transform="translate(-544.884 -1711.191)"/></g><g transform="translate(456.028 1752.473)"><path class="a" d="M494.591,1772.589h15.371c6.09,0,9.281,3.487,9.281,8.348a7.508,7.508,0,0,1-4.174,7.073v.1a7.909,7.909,0,0,1,5.648,7.906c0,5.01-3.242,8.693-9.478,8.693H494.591Zm14.585,13.014c2.6,0,3.83-1.572,3.83-3.585,0-2.063-.981-3.585-3.879-3.585h-8.25v7.17Zm.982,13.308c2.947,0,4.125-1.718,4.125-3.83a3.766,3.766,0,0,0-4.075-3.88h-9.331v7.71Z" transform="translate(-494.591 -1772.589)"/><path class="a" d="M532.75,1794.753c0-7.367,5.4-12.769,13.063-12.769s13.063,5.4,13.063,12.769-5.4,12.769-13.063,12.769S532.75,1802.119,532.75,1794.753Zm20.184,0c0-4.273-2.848-7.318-7.121-7.318a7.319,7.319,0,0,0,0,14.635C550.086,1802.071,552.934,1799.026,552.934,1794.753Z" transform="translate(-503.431 -1774.766)"/><path class="a" d="M577.227,1794.7l-8.545-11.885h7.072l5.844,8.742,5.845-8.742h6.924l-8.644,11.885,9.036,12.376h-7.072l-6.286-9.331-6.237,9.331h-6.875Z" transform="translate(-511.664 -1774.958)"/></g><g transform="translate(456.023 1790.29)"><path class="a" d="M494.585,1821.959h2.073c2.064,0,3.142,1.164,3.142,2.906s-1.077,2.907-3.142,2.907h-2.073Zm2.073,4.479c1.176,0,1.67-.6,1.67-1.574s-.493-1.573-1.67-1.573h-.619v3.146Z" transform="translate(-494.585 -1821.843)"/><path class="a" d="M508.256,1821.959h4.335v1.333h-2.88v.951h2.361v1.155h-2.361v1.04h2.88v1.333h-4.335Z" transform="translate(-497.752 -1821.843)"/><path class="a" d="M520.922,1821.959h1.455v4.479h2.774v1.333h-4.228Z" transform="translate(-500.686 -1821.843)"/><path class="a" d="M533.215,1821.959h1.454v5.813h-1.454Z" transform="translate(-503.534 -1821.843)"/><path class="a" d="M541.78,1821.959h1.562l1.266,4.141,1.266-4.141H547.4l-2.01,5.813h-1.6Z" transform="translate(-505.518 -1821.843)"/><path class="a" d="M555.767,1821.959H560.1v1.333h-2.881v.951h2.361v1.155h-2.361v1.04H560.1v1.333h-4.335Z" transform="translate(-508.759 -1821.843)"/><path class="a" d="M568.433,1821.959h2.379c1.553,0,2.244.834,2.244,1.991a1.8,1.8,0,0,1-1.1,1.8l1.319,2.026h-1.723l-1.042-1.822h-.619v1.822h-1.454Zm2.4,2.658c.583,0,.754-.285.754-.667s-.171-.658-.754-.658h-.944v1.325Z" transform="translate(-511.693 -1821.843)"/><path class="a" d="M582.427,1825.363l-2.145-3.4H582l1.158,2.044,1.159-2.044h1.678l-2.109,3.359v2.453h-1.455Z" transform="translate(-514.438 -1821.843)"/><path class="a" d="M602.693,1826.021h1.418c0,.365.224.6.79.6s.79-.231.79-.6c0-.382-.449-.471-.987-.569-.835-.151-1.9-.346-1.9-1.76a2.126,2.126,0,0,1,4.219-.044h-1.365c-.008-.338-.224-.6-.728-.6-.519,0-.726.293-.726.595,0,.382.449.471,1,.569.844.151,1.912.346,1.912,1.76,0,1.155-.88,1.884-2.208,1.884C603.59,1827.852,602.72,1827.15,602.693,1826.021Z" transform="translate(-519.63 -1821.808)"/><path class="a" d="M614.915,1824.83a3.126,3.126,0,1,1,3.124,3.022A2.966,2.966,0,0,1,614.915,1824.83Zm4.775,0a1.652,1.652,0,1,0-1.651,1.689A1.594,1.594,0,0,0,619.69,1824.83Z" transform="translate(-522.461 -1821.808)"/><path class="a" d="M629.931,1821.959h1.454v4.479h2.774v1.333h-4.227Z" transform="translate(-525.94 -1821.843)"/><path class="a" d="M642.048,1825.443v-3.484H643.5v3.484c0,.711.333,1.111,1.05,1.111.736,0,1.068-.391,1.068-1.111v-3.484h1.418v3.484a2.5,2.5,0,0,1-4.99,0Z" transform="translate(-528.747 -1821.843)"/><path class="a" d="M656.756,1823.292h-1.6v-1.333h4.659v1.333h-1.607v4.479h-1.455Z" transform="translate(-531.784 -1821.843)"/><path class="a" d="M668.024,1821.959h1.454v5.813h-1.454Z" transform="translate(-534.765 -1821.843)"/><path class="a" d="M676.8,1824.83a3.125,3.125,0,1,1,3.124,3.022A2.966,2.966,0,0,1,676.8,1824.83Zm4.775,0a1.652,1.652,0,1,0-1.651,1.689A1.594,1.594,0,0,0,681.574,1824.83Z" transform="translate(-536.798 -1821.808)"/><path class="a" d="M691.639,1824.252a2.514,2.514,0,0,1,5.026,0v3.484h-1.454v-3.484c0-.711-.34-1.111-1.059-1.111a.967.967,0,0,0-1.059,1.111v3.484h-1.454Z" transform="translate(-540.236 -1821.808)"/><path class="a" d="M704.866,1826.021h1.418c0,.365.224.6.789.6s.791-.231.791-.6c0-.382-.449-.471-.987-.569-.835-.151-1.9-.346-1.9-1.76a2.126,2.126,0,0,1,4.219-.044h-1.364c-.01-.338-.225-.6-.728-.6-.521,0-.727.293-.727.595,0,.382.449.471,1,.569.844.151,1.912.346,1.912,1.76,0,1.155-.879,1.884-2.208,1.884C705.764,1827.852,704.893,1827.15,704.866,1826.021Z" transform="translate(-543.3 -1821.808)"/></g><path class="a" d="M328.13,1708.454v93.026h93.018v-93.026Zm81.393,81.4H339.756v-69.767h69.767Z" transform="translate(0 -5.258)"/><path class="b" d="M385.16,1765.486l-11.628-11.627H385.16Z" transform="translate(-10.518 -15.777)"/><path class="a" d="M459.629,1685.757v40.7H448v-29.075H418.929v-11.625Z" transform="translate(-21.035 0)"/><path class="a" d="M396.782,1708.454v46.517H385.157v-11.633H373.532v-34.884Z" transform="translate(-10.518 -5.258)"/></g></svg>