<svg xmlns="http://www.w3.org/2000/svg" width="327.383" height="271.227" viewBox="0 0 327.383 271.227"><defs><style>.a{fill:#f6b381;}.b{fill:#f6906b;}.c,.j{fill:#2f2d4f;}.d{fill:#7498ff;}.e{fill:#547dec;}.f{fill:#cfe3ff;}.g{fill:#fff;}.h{fill:#f072b9;}.i{fill:#606565;font-size:7px;font-family:Montserrat-Regular, Montserrat;letter-spacing:0.04em;}.j{opacity:0.22;mix-blend-mode:multiply;isolation:isolate;}.k{fill:#e3e3e6;}.l{fill:#f1e8e1;}.m{fill:#ddd3d2;}.n{fill:#393c63;}</style></defs><g transform="translate(-67.742 -145.516)"><g transform="translate(312.06 232.423)"><path class="a" d="M442.369,335.784l-5.66-43.763a17.614,17.614,0,0,0-6.783-11.745L402.32,259.207l-14.963,47.53,34.327,38.288Z" transform="translate(-387.357 -259.207)"/><path class="b" d="M406.261,278.3l19.369,16.075a2.222,2.222,0,0,1,.743,2.273l-6.887,26.824a2.225,2.225,0,0,1-3.906.819l-13.82-17.62a2.225,2.225,0,0,1-.095-2.617L403,278.773A2.225,2.225,0,0,1,406.261,278.3Z" transform="translate(-390.638 -263.585)"/></g><path class="c" d="M13.128,0H237.856a13.129,13.129,0,0,1,13.129,13.129V155.883a13.128,13.128,0,0,1-13.128,13.128H13.128A13.128,13.128,0,0,1,0,155.883V13.128A13.128,13.128,0,0,1,13.128,0Z" transform="translate(75.819 145.516)"/><rect class="d" width="225.019" height="145.339" transform="translate(89.681 157.059)"/><path class="e" d="M284.327,210.411c8,10.083,20.484,15.421,32.71,19.448s25,7.267,35.6,14.574c3.824,2.636,7.305,5.763,10.951,8.639V160.617H278.535C273.567,177.508,273.311,196.531,284.327,210.411Z" transform="translate(-48.887 -3.558)"/><g transform="translate(89.681 157.059)"><rect class="f" width="225.019" height="14.484"/><g transform="translate(176.55 4.362)"><path class="d" d="M334.005,169.624a3.3,3.3,0,1,1-3.3-3.3A3.3,3.3,0,0,1,334.005,169.624Z" transform="translate(-327.404 -166.323)"/><path class="d" d="M352.812,169.624a3.3,3.3,0,1,1-3.3-3.3A3.3,3.3,0,0,1,352.812,169.624Z" transform="translate(-331.835 -166.323)"/><path class="d" d="M371.619,169.624a3.3,3.3,0,1,1-3.3-3.3A3.3,3.3,0,0,1,371.619,169.624Z" transform="translate(-336.265 -166.323)"/></g><path class="g" d="M197.4,172.924H114.52a3.3,3.3,0,0,1-3.3-3.3h0a3.3,3.3,0,0,1,3.3-3.3H197.4a3.3,3.3,0,0,1,3.3,3.3h0A3.3,3.3,0,0,1,197.4,172.924Z" transform="translate(-99.923 -161.961)"/></g><path class="e" d="M215.947,318.021c-6.832-7.961-17.638-11-27.789-13.652l-16.686-4.353c-5.287-1.379-10.626-2.778-15.459-5.326-10.127-5.339-17.044-15.154-22.927-24.976s-11.29-20.212-19.737-27.939a38.2,38.2,0,0,0-16.906-9.148v90.292H219.285A28.582,28.582,0,0,0,215.947,318.021Z" transform="translate(-6.761 -20.522)"/><g transform="translate(128.262 188.603)"><rect class="g" width="157.26" height="93.3" rx="8.06"/><g transform="translate(17.338 22.159)"><circle class="h" cx="15.078" cy="15.078" r="15.078"/><g transform="translate(6.021 5.201)"><path class="g" d="M193.628,243.274a5.6,5.6,0,1,1-5.6-5.6A5.6,5.6,0,0,1,193.628,243.274Z" transform="translate(-178.639 -237.674)"/><path class="g" d="M177.471,263.454a9.181,9.181,0,1,1,18.362,0s-4.21,3.581-9.3,3.668S177.471,263.454,177.471,263.454Z" transform="translate(-177.471 -241.584)"/></g><g transform="translate(37.646 0.285)"><rect class="f" width="84.938" height="11.883" rx="2.748"/><text class="i" transform="translate(5.734 8.352)"><tspan x="0" y="0">NAME</tspan></text><g transform="translate(0 16.724)"><rect class="f" width="84.938" height="11.883" rx="2.748"/><text class="i" transform="translate(5.734 9.892)"><tspan x="0" y="0">**********</tspan></text></g></g></g><g transform="translate(22.298 66.894)"><rect class="h" width="36.088" height="11.736" rx="5.868"/><rect class="e" width="36.088" height="11.736" rx="5.868" transform="translate(76.576)"/></g></g><path class="j" d="M354.16,306.628s-3.96,9.682,1.981,16.724,15.184,9.462,15.184,9.462-1.76,15.184,4.841,19.364h14.523l1.32-31.907Z" transform="translate(-67.172 -37.956)"/><g transform="translate(285.663 264.184)"><g transform="translate(0 0)"><path class="a" d="M403.251,373.573,399.88,362.9a1.817,1.817,0,0,0-1.058-1.139L386.184,356.7c-11.608-4.643-11.183-22.824-10.852-27.687a1.8,1.8,0,0,0-1.017-1.747l-13.263-6.462a16.047,16.047,0,0,1-8.227-13.161v-.026c0-5.269,4.056-8.118,9.012-6.33l33.812,12.195a1.813,1.813,0,0,1,.945.779l17.732,29.765a1.816,1.816,0,0,0,2.131.795l14.988-4.961a1.816,1.816,0,0,1,2.344,1.329l6.994,31.44a1.816,1.816,0,0,1-1.773,2.211H404.983A1.816,1.816,0,0,1,403.251,373.573Z" transform="translate(-352.825 -300.756)"/><path class="b" d="M402.643,356.684c-24.645-4.4-18.483-29.927-18.483-29.927L353.234,313.19c.974,4.321,4.157,8.716,7.915,10.547l13.263,6.462h0l1.118.545s-.057.518-.114,1.4c0,.073-.009.144-.014.223-.008.128-.015.267-.022.407,0,.068-.007.131-.011.2q-.015.321-.027.68c0,.061,0,.129-.005.192-.006.185-.011.374-.014.573,0,.095,0,.2,0,.294,0,.177,0,.356-.005.542,0,.112,0,.229,0,.344,0,.181,0,.365,0,.554,0,.125,0,.251.005.378,0,.195.008.394.015.6,0,.125.007.25.011.378.008.222.018.451.029.68.006.115.01.227.017.343q.028.519.067,1.056l0,.053q.039.513.091,1.04c.011.116.025.235.037.352.027.254.054.509.086.767.018.143.037.287.056.43q.047.355.1.714.034.229.071.459c.038.239.079.478.122.719.027.15.053.3.083.451.048.254.1.508.154.763.029.137.057.274.087.41.07.316.147.631.227.946.018.074.035.149.054.224q.151.581.326,1.158c.032.106.068.212.1.317.088.277.177.554.273.829.048.139.1.277.151.416.088.24.178.479.273.716.059.146.12.292.182.437q.144.341.3.676c.066.144.133.287.2.43.111.227.227.45.345.672.07.131.138.262.21.391.14.249.288.494.439.735.059.095.114.191.174.284q.322.5.674.969c.047.063.1.122.147.184.192.248.388.493.594.729.09.1.186.2.278.3.174.188.35.375.534.554.109.107.222.209.334.313q.269.248.553.482c.121.1.244.2.369.294.2.151.4.3.6.436.127.087.253.175.384.258.23.146.469.281.71.414.118.065.231.134.352.2.367.188.745.364,1.139.521l4.129,1.652.446.178,2.4.96,1.56.625,4.9,1.961,3.63,11.5a1.816,1.816,0,0,0,1.732,1.27h8.082l-4.8-20.209Z" transform="translate(-352.921 -303.685)"/><path class="k" d="M355.782,309.907l1.286-2.5a2.838,2.838,0,0,1,3.49-1.371l6.41,2.321a2.838,2.838,0,0,1,1.561,3.96l-1.841,3.6a2.838,2.838,0,0,1-3.96,1.158l-5.855-3.425A2.839,2.839,0,0,1,355.782,309.907Z" transform="translate(-353.448 -301.96)"/></g><g transform="translate(39.379 63.622)"><rect class="l" width="50.171" height="14.523" rx="5.469" transform="translate(2.612 7.878) rotate(-9.034)"/><rect class="m" width="30.073" height="14.523" rx="6.525" transform="translate(2.612 7.878) rotate(-9.035)"/><path class="n" d="M474.423,475.841l-13-79.47-57.082,9.076,11.578,70.394Z" transform="translate(-404.34 -386.904)"/><path class="c" d="M450.813,477.427,440,411.762a10.269,10.269,0,0,0-11.754-8.529l-23.9,3.8,11.579,70.394Z" transform="translate(-404.34 -388.49)"/></g></g><path class="j" d="M172.813,290.544l-31.786,58.15H161.19c4.88-14.879,13.2-40.191,15.437-46.708C179.855,292.6,172.813,290.544,172.813,290.544Z" transform="translate(-17.265 -34.167)"/><g transform="translate(67.742 251.39)"><g transform="translate(17.52)"><path class="a" d="M93.469,377.5l1.553-10.865A7.187,7.187,0,0,0,94.1,362c-1.5-2.568-3.722-7.2-3.406-11.611.47-6.582,10.4-28.072,10.4-28.072s2.351-5.172,7.993-5.172c3.581,0,11.9,2.274,17.5,3.934a7.124,7.124,0,0,0,8.311-3.47l15.314-29.821a7.128,7.128,0,0,1,9.876-2.794h0a7.128,7.128,0,0,1,3.216,8.272l-16.308,52.505a7.129,7.129,0,0,0,1.334,6.678,11.988,11.988,0,0,1,3.02,9.223c-.694,5.209-9.85,10.673-14.592,13.175a7.107,7.107,0,0,0-3.587,4.612l-1.73,7.112a7.128,7.128,0,0,1-8.757,5.2L98.695,385.4A7.129,7.129,0,0,1,93.469,377.5Z" transform="translate(-90.662 -284.019)"/><path class="k" d="M169.641,295.775l6.583,2.038s3.6-6.113.47-8.777S170.738,292.641,169.641,295.775Z" transform="translate(-109.269 -285.049)"/><path class="b" d="M159.3,383.58a10.917,10.917,0,0,0-1.235-6.556c-7.99,13.873-28.858,15.02-28.858,15.02l-4.232,17.867-.565,2.117,6.224,1.655a7.128,7.128,0,0,0,8.757-5.2l1.73-7.112a7.1,7.1,0,0,1,3.587-4.612C149.448,394.254,158.6,388.789,159.3,383.58Z" transform="translate(-98.613 -305.93)"/></g><g transform="translate(0 93.433)"><rect class="l" width="50.171" height="14.523" rx="5.469" transform="translate(62.407 22.221) rotate(-170.966)"/><rect class="m" width="30.073" height="14.523" rx="6.525" transform="translate(62.407 22.221) rotate(-170.966)"/><path class="n" d="M126.263,481.086l8.779-53.377L77.96,418.632,67.742,481.086Z" transform="translate(-67.742 -409.166)"/><path class="c" d="M133.545,482.671l8.779-53.377-23.9-3.8a10.27,10.27,0,0,0-11.754,8.529l-8.011,48.649Z" transform="translate(-75.025 -410.752)"/></g></g></g></svg>